<?xml version="1.0" encoding="utf-8" standalone="no"?>
<!DOCTYPE svg PUBLIC "-//W3C//DTD SVG 1.1//EN"
  "http://www.w3.org/Graphics/SVG/1.1/DTD/svg11.dtd">
<svg height="422.555469pt" version="1.1" viewBox="0 0 755.846875 422.555469" width="755.846875pt" xmlns="http://www.w3.org/2000/svg" xmlns:xlink="http://www.w3.org/1999/xlink">
 <metadata>
  <rdf:RDF xmlns:cc="http://creativecommons.org/ns#" xmlns:dc="http://purl.org/dc/elements/1.1/" xmlns:rdf="http://www.w3.org/1999/02/22-rdf-syntax-ns#">
   <cc:Work>
    <dc:type rdf:resource="http://purl.org/dc/dcmitype/StillImage"/>
    <dc:date>2022-01-27T05:04:15.696803</dc:date>
    <dc:format>image/svg+xml</dc:format>
    <dc:creator>
     <cc:Agent>
      <dc:title>Matplotlib v3.4.2, https://matplotlib.org/</dc:title>
     </cc:Agent>
    </dc:creator>
   </cc:Work>
  </rdf:RDF>
 </metadata>
 <defs>
  <style type="text/css">*{stroke-linecap:butt;stroke-linejoin:round;}</style>
 </defs>
 <g id="figure_1">
  <g id="patch_1">
   <path d="M -0 422.555469 
L 755.846875 422.555469 
L 755.846875 0 
L -0 0 
z
" style="fill:#ffffff;"/>
  </g>
  <g id="axes_1">
   <g id="patch_2">
    <path d="M 79.046875 362.394375 
L 748.646875 362.394375 
L 748.646875 36.234375 
L 79.046875 36.234375 
z
" style="fill:#ffffff;"/>
   </g>
   <g id="patch_3">
    <path clip-path="url(#p1e5cd7adab)" d="M 82.241531 362.394375 
L 93.742295 362.394375 
L 93.742295 349.14278 
L 82.241531 349.14278 
z
" style="fill:#90cd97;"/>
   </g>
   <g id="patch_4">
    <path clip-path="url(#p1e5cd7adab)" d="M 95.020157 362.394375 
L 106.520921 362.394375 
L 106.520921 308.279182 
L 95.020157 308.279182 
z
" style="fill:#90cd97;"/>
   </g>
   <g id="patch_5">
    <path clip-path="url(#p1e5cd7adab)" d="M 107.798783 362.394375 
L 119.299547 362.394375 
L 119.299547 310.331091 
L 107.798783 310.331091 
z
" style="fill:#90cd97;"/>
   </g>
   <g id="patch_6">
    <path clip-path="url(#p1e5cd7adab)" d="M 120.577409 362.394375 
L 132.078173 362.394375 
L 132.078173 310.751926 
L 120.577409 310.751926 
z
" style="fill:#90cd97;"/>
   </g>
   <g id="patch_7">
    <path clip-path="url(#p1e5cd7adab)" d="M 133.356035 362.394375 
L 144.856799 362.394375 
L 144.856799 310.600461 
L 133.356035 310.600461 
z
" style="fill:#90cd97;"/>
   </g>
   <g id="patch_8">
    <path clip-path="url(#p1e5cd7adab)" d="M 146.134661 362.394375 
L 157.635425 362.394375 
L 157.635425 309.231436 
L 146.134661 309.231436 
z
" style="fill:#90cd97;"/>
   </g>
   <g id="patch_9">
    <path clip-path="url(#p1e5cd7adab)" d="M 158.913287 362.394375 
L 170.414051 362.394375 
L 170.414051 302.796606 
L 158.913287 302.796606 
z
" style="fill:#90cd97;"/>
   </g>
   <g id="patch_10">
    <path clip-path="url(#p1e5cd7adab)" d="M 171.691913 362.394375 
L 183.192677 362.394375 
L 183.192677 304.975221 
L 171.691913 304.975221 
z
" style="fill:#90cd97;"/>
   </g>
   <g id="patch_11">
    <path clip-path="url(#p1e5cd7adab)" d="M 184.470539 362.394375 
L 195.971302 362.394375 
L 195.971302 307.023514 
L 184.470539 307.023514 
z
" style="fill:#90cd97;"/>
   </g>
   <g id="patch_12">
    <path clip-path="url(#p1e5cd7adab)" d="M 197.249165 362.394375 
L 208.749928 362.394375 
L 208.749928 311.069617 
L 197.249165 311.069617 
z
" style="fill:#90cd97;"/>
   </g>
   <g id="patch_13">
    <path clip-path="url(#p1e5cd7adab)" d="M 210.027791 362.394375 
L 221.528554 362.394375 
L 221.528554 311.191264 
L 210.027791 311.191264 
z
" style="fill:#90cd97;"/>
   </g>
   <g id="patch_14">
    <path clip-path="url(#p1e5cd7adab)" d="M 222.806417 362.394375 
L 234.30718 362.394375 
L 234.30718 307.9768 
L 222.806417 307.9768 
z
" style="fill:#90cd97;"/>
   </g>
   <g id="patch_15">
    <path clip-path="url(#p1e5cd7adab)" d="M 235.585043 362.394375 
L 247.085806 362.394375 
L 247.085806 313.35252 
L 235.585043 313.35252 
z
" style="fill:#90cd97;"/>
   </g>
   <g id="patch_16">
    <path clip-path="url(#p1e5cd7adab)" d="M 248.363669 362.394375 
L 259.864432 362.394375 
L 259.864432 343.57647 
L 248.363669 343.57647 
z
" style="fill:#90cd97;"/>
   </g>
   <g id="patch_17">
    <path clip-path="url(#p1e5cd7adab)" d="M 261.142295 362.394375 
L 272.643058 362.394375 
L 272.643058 390.345886 
L 261.142295 390.345886 
z
" style="fill:#90cd97;"/>
   </g>
   <g id="patch_18">
    <path clip-path="url(#p1e5cd7adab)" d="M 273.920921 362.394375 
L 285.421684 362.394375 
L 285.421684 310.503257 
L 273.920921 310.503257 
z
" style="fill:#90cd97;"/>
   </g>
   <g id="patch_19">
    <path clip-path="url(#p1e5cd7adab)" d="M 286.699547 362.394375 
L 298.20031 362.394375 
L 298.20031 310.181275 
L 286.699547 310.181275 
z
" style="fill:#90cd97;"/>
   </g>
   <g id="patch_20">
    <path clip-path="url(#p1e5cd7adab)" d="M 299.478173 362.394375 
L 310.978936 362.394375 
L 310.978936 307.709282 
L 299.478173 307.709282 
z
" style="fill:#90cd97;"/>
   </g>
   <g id="patch_21">
    <path clip-path="url(#p1e5cd7adab)" d="M 312.256799 362.394375 
L 323.757562 362.394375 
L 323.757562 304.169302 
L 312.256799 304.169302 
z
" style="fill:#90cd97;"/>
   </g>
   <g id="patch_22">
    <path clip-path="url(#p1e5cd7adab)" d="M 325.035425 362.394375 
L 336.536188 362.394375 
L 336.536188 302.061338 
L 325.035425 302.061338 
z
" style="fill:#90cd97;"/>
   </g>
   <g id="patch_23">
    <path clip-path="url(#p1e5cd7adab)" d="M 337.814051 362.394375 
L 349.314814 362.394375 
L 349.314814 301.103422 
L 337.814051 301.103422 
z
" style="fill:#90cd97;"/>
   </g>
   <g id="patch_24">
    <path clip-path="url(#p1e5cd7adab)" d="M 350.592677 362.394375 
L 362.09344 362.394375 
L 362.09344 301.263009 
L 350.592677 301.263009 
z
" style="fill:#90cd97;"/>
   </g>
   <g id="patch_25">
    <path clip-path="url(#p1e5cd7adab)" d="M 363.371302 362.394375 
L 374.872066 362.394375 
L 374.872066 298.04283 
L 363.371302 298.04283 
z
" style="fill:#90cd97;"/>
   </g>
   <g id="patch_26">
    <path clip-path="url(#p1e5cd7adab)" d="M 376.149928 362.394375 
L 387.650692 362.394375 
L 387.650692 303.021332 
L 376.149928 303.021332 
z
" style="fill:#90cd97;"/>
   </g>
   <g id="patch_27">
    <path clip-path="url(#p1e5cd7adab)" d="M 388.928554 362.394375 
L 400.429318 362.394375 
L 400.429318 303.878835 
L 388.928554 303.878835 
z
" style="fill:#90cd97;"/>
   </g>
   <g id="patch_28">
    <path clip-path="url(#p1e5cd7adab)" d="M 401.70718 362.394375 
L 413.207944 362.394375 
L 413.207944 304.562594 
L 401.70718 304.562594 
z
" style="fill:#90cd97;"/>
   </g>
   <g id="patch_29">
    <path clip-path="url(#p1e5cd7adab)" d="M 414.485806 362.394375 
L 425.98657 362.394375 
L 425.98657 307.244029 
L 414.485806 307.244029 
z
" style="fill:#90cd97;"/>
   </g>
   <g id="patch_30">
    <path clip-path="url(#p1e5cd7adab)" d="M 427.264432 362.394375 
L 438.765196 362.394375 
L 438.765196 300.82101 
L 427.264432 300.82101 
z
" style="fill:#90cd97;"/>
   </g>
   <g id="patch_31">
    <path clip-path="url(#p1e5cd7adab)" d="M 440.043058 362.394375 
L 451.543822 362.394375 
L 451.543822 302.27486 
L 440.043058 302.27486 
z
" style="fill:#90cd97;"/>
   </g>
   <g id="patch_32">
    <path clip-path="url(#p1e5cd7adab)" d="M 452.821684 362.394375 
L 464.322448 362.394375 
L 464.322448 299.701776 
L 452.821684 299.701776 
z
" style="fill:#90cd97;"/>
   </g>
   <g id="patch_33">
    <path clip-path="url(#p1e5cd7adab)" d="M 465.60031 362.394375 
L 477.101073 362.394375 
L 477.101073 299.077805 
L 465.60031 299.077805 
z
" style="fill:#90cd97;"/>
   </g>
   <g id="patch_34">
    <path clip-path="url(#p1e5cd7adab)" d="M 478.378936 362.394375 
L 489.879699 362.394375 
L 489.879699 310.496191 
L 478.378936 310.496191 
z
" style="fill:#90cd97;"/>
   </g>
   <g id="patch_35">
    <path clip-path="url(#p1e5cd7adab)" d="M 491.157562 362.394375 
L 502.658325 362.394375 
L 502.658325 317.869618 
L 491.157562 317.869618 
z
" style="fill:#90cd97;"/>
   </g>
   <g id="patch_36">
    <path clip-path="url(#p1e5cd7adab)" d="M 503.936188 362.394375 
L 515.436951 362.394375 
L 515.436951 314.704358 
L 503.936188 314.704358 
z
" style="fill:#90cd97;"/>
   </g>
   <g id="patch_37">
    <path clip-path="url(#p1e5cd7adab)" d="M 516.714814 362.394375 
L 528.215577 362.394375 
L 528.215577 312.365983 
L 516.714814 312.365983 
z
" style="fill:#90cd97;"/>
   </g>
   <g id="patch_38">
    <path clip-path="url(#p1e5cd7adab)" d="M 529.49344 362.394375 
L 540.994203 362.394375 
L 540.994203 313.376938 
L 529.49344 313.376938 
z
" style="fill:#90cd97;"/>
   </g>
   <g id="patch_39">
    <path clip-path="url(#p1e5cd7adab)" d="M 542.272066 362.394375 
L 553.772829 362.394375 
L 553.772829 311.022615 
L 542.272066 311.022615 
z
" style="fill:#90cd97;"/>
   </g>
   <g id="patch_40">
    <path clip-path="url(#p1e5cd7adab)" d="M 555.050692 362.394375 
L 566.551455 362.394375 
L 566.551455 310.448388 
L 555.050692 310.448388 
z
" style="fill:#90cd97;"/>
   </g>
   <g id="patch_41">
    <path clip-path="url(#p1e5cd7adab)" d="M 567.829318 362.394375 
L 579.330081 362.394375 
L 579.330081 308.418684 
L 567.829318 308.418684 
z
" style="fill:#90cd97;"/>
   </g>
   <g id="patch_42">
    <path clip-path="url(#p1e5cd7adab)" d="M 580.607944 362.394375 
L 592.108707 362.394375 
L 592.108707 307.103512 
L 580.607944 307.103512 
z
" style="fill:#90cd97;"/>
   </g>
   <g id="patch_43">
    <path clip-path="url(#p1e5cd7adab)" d="M 593.38657 362.394375 
L 604.887333 362.394375 
L 604.887333 308.411725 
L 593.38657 308.411725 
z
" style="fill:#90cd97;"/>
   </g>
   <g id="patch_44">
    <path clip-path="url(#p1e5cd7adab)" d="M 606.165196 362.394375 
L 617.665959 362.394375 
L 617.665959 315.847996 
L 606.165196 315.847996 
z
" style="fill:#90cd97;"/>
   </g>
   <g id="patch_45">
    <path clip-path="url(#p1e5cd7adab)" d="M 618.943822 362.394375 
L 630.444585 362.394375 
L 630.444585 310.954808 
L 618.943822 310.954808 
z
" style="fill:#90cd97;"/>
   </g>
   <g id="patch_46">
    <path clip-path="url(#p1e5cd7adab)" d="M 631.722448 362.394375 
L 643.223211 362.394375 
L 643.223211 308.133452 
L 631.722448 308.133452 
z
" style="fill:#90cd97;"/>
   </g>
   <g id="patch_47">
    <path clip-path="url(#p1e5cd7adab)" d="M 644.501073 362.394375 
L 656.001837 362.394375 
L 656.001837 306.82309 
L 644.501073 306.82309 
z
" style="fill:#90cd97;"/>
   </g>
   <g id="patch_48">
    <path clip-path="url(#p1e5cd7adab)" d="M 657.279699 362.394375 
L 668.780463 362.394375 
L 668.780463 306.344184 
L 657.279699 306.344184 
z
" style="fill:#90cd97;"/>
   </g>
   <g id="patch_49">
    <path clip-path="url(#p1e5cd7adab)" d="M 670.058325 362.394375 
L 681.559089 362.394375 
L 681.559089 309.274905 
L 670.058325 309.274905 
z
" style="fill:#90cd97;"/>
   </g>
   <g id="patch_50">
    <path clip-path="url(#p1e5cd7adab)" d="M 682.836951 362.394375 
L 694.337715 362.394375 
L 694.337715 306.801418 
L 682.836951 306.801418 
z
" style="fill:#90cd97;"/>
   </g>
   <g id="patch_51">
    <path clip-path="url(#p1e5cd7adab)" d="M 695.615577 362.394375 
L 707.116341 362.394375 
L 707.116341 308.714812 
L 695.615577 308.714812 
z
" style="fill:#90cd97;"/>
   </g>
   <g id="patch_52">
    <path clip-path="url(#p1e5cd7adab)" d="M 708.394203 362.394375 
L 719.894967 362.394375 
L 719.894967 282.569785 
L 708.394203 282.569785 
z
" style="fill:#90cd97;"/>
   </g>
   <g id="patch_53">
    <path clip-path="url(#p1e5cd7adab)" d="M 721.172829 362.394375 
L 732.673593 362.394375 
L 732.673593 288.668635 
L 721.172829 288.668635 
z
" style="fill:#90cd97;"/>
   </g>
   <g id="patch_54">
    <path clip-path="url(#p1e5cd7adab)" d="M 733.951455 362.394375 
L 745.452219 362.394375 
L 745.452219 310.18025 
L 733.951455 310.18025 
z
" style="fill:#90cd97;"/>
   </g>
   <g id="patch_55">
    <path clip-path="url(#p1e5cd7adab)" d="M 82.241531 362.394375 
L 93.742295 362.394375 
L 93.742295 329.545988 
L 82.241531 329.545988 
z
" style="fill:#8c8c8c;"/>
   </g>
   <g id="patch_56">
    <path clip-path="url(#p1e5cd7adab)" d="M 95.020157 362.394375 
L 106.520921 362.394375 
L 106.520921 343.360861 
L 95.020157 343.360861 
z
" style="fill:#8c8c8c;"/>
   </g>
   <g id="patch_57">
    <path clip-path="url(#p1e5cd7adab)" d="M 107.798783 362.394375 
L 119.299547 362.394375 
L 119.299547 349.224149 
L 107.798783 349.224149 
z
" style="fill:#8c8c8c;"/>
   </g>
   <g id="patch_58">
    <path clip-path="url(#p1e5cd7adab)" d="M 120.577409 362.394375 
L 132.078173 362.394375 
L 132.078173 350.923143 
L 120.577409 350.923143 
z
" style="fill:#8c8c8c;"/>
   </g>
   <g id="patch_59">
    <path clip-path="url(#p1e5cd7adab)" d="M 133.356035 362.394375 
L 144.856799 362.394375 
L 144.856799 351.282722 
L 133.356035 351.282722 
z
" style="fill:#8c8c8c;"/>
   </g>
   <g id="patch_60">
    <path clip-path="url(#p1e5cd7adab)" d="M 146.134661 362.394375 
L 157.635425 362.394375 
L 157.635425 350.83169 
L 146.134661 350.83169 
z
" style="fill:#8c8c8c;"/>
   </g>
   <g id="patch_61">
    <path clip-path="url(#p1e5cd7adab)" d="M 158.913287 362.394375 
L 170.414051 362.394375 
L 170.414051 350.260635 
L 158.913287 350.260635 
z
" style="fill:#8c8c8c;"/>
   </g>
   <g id="patch_62">
    <path clip-path="url(#p1e5cd7adab)" d="M 171.691913 362.394375 
L 183.192677 362.394375 
L 183.192677 349.15166 
L 171.691913 349.15166 
z
" style="fill:#8c8c8c;"/>
   </g>
   <g id="patch_63">
    <path clip-path="url(#p1e5cd7adab)" d="M 184.470539 362.394375 
L 195.971302 362.394375 
L 195.971302 343.437225 
L 184.470539 343.437225 
z
" style="fill:#8c8c8c;"/>
   </g>
   <g id="patch_64">
    <path clip-path="url(#p1e5cd7adab)" d="M 197.249165 362.394375 
L 208.749928 362.394375 
L 208.749928 324.517583 
L 197.249165 324.517583 
z
" style="fill:#8c8c8c;"/>
   </g>
   <g id="patch_65">
    <path clip-path="url(#p1e5cd7adab)" d="M 210.027791 362.394375 
L 221.528554 362.394375 
L 221.528554 311.313601 
L 210.027791 311.313601 
z
" style="fill:#8c8c8c;"/>
   </g>
   <g id="patch_66">
    <path clip-path="url(#p1e5cd7adab)" d="M 222.806417 362.394375 
L 234.30718 362.394375 
L 234.30718 310.537077 
L 222.806417 310.537077 
z
" style="fill:#8c8c8c;"/>
   </g>
   <g id="patch_67">
    <path clip-path="url(#p1e5cd7adab)" d="M 235.585043 362.394375 
L 247.085806 362.394375 
L 247.085806 327.99576 
L 235.585043 327.99576 
z
" style="fill:#8c8c8c;"/>
   </g>
   <g id="patch_68">
    <path clip-path="url(#p1e5cd7adab)" d="M 248.363669 362.394375 
L 259.864432 362.394375 
L 259.864432 348.033301 
L 248.363669 348.033301 
z
" style="fill:#8c8c8c;"/>
   </g>
   <g id="patch_69">
    <path clip-path="url(#p1e5cd7adab)" d="M 261.142295 362.394375 
L 272.643058 362.394375 
L 272.643058 351.448004 
L 261.142295 351.448004 
z
" style="fill:#8c8c8c;"/>
   </g>
   <g id="patch_70">
    <path clip-path="url(#p1e5cd7adab)" d="M 273.920921 362.394375 
L 285.421684 362.394375 
L 285.421684 351.864278 
L 273.920921 351.864278 
z
" style="fill:#8c8c8c;"/>
   </g>
   <g id="patch_71">
    <path clip-path="url(#p1e5cd7adab)" d="M 286.699547 362.394375 
L 298.20031 362.394375 
L 298.20031 352.373693 
L 286.699547 352.373693 
z
" style="fill:#8c8c8c;"/>
   </g>
   <g id="patch_72">
    <path clip-path="url(#p1e5cd7adab)" d="M 299.478173 362.394375 
L 310.978936 362.394375 
L 310.978936 352.423947 
L 299.478173 352.423947 
z
" style="fill:#8c8c8c;"/>
   </g>
   <g id="patch_73">
    <path clip-path="url(#p1e5cd7adab)" d="M 312.256799 362.394375 
L 323.757562 362.394375 
L 323.757562 351.50298 
L 312.256799 351.50298 
z
" style="fill:#8c8c8c;"/>
   </g>
   <g id="patch_74">
    <path clip-path="url(#p1e5cd7adab)" d="M 325.035425 362.394375 
L 336.536188 362.394375 
L 336.536188 349.862054 
L 325.035425 349.862054 
z
" style="fill:#8c8c8c;"/>
   </g>
   <g id="patch_75">
    <path clip-path="url(#p1e5cd7adab)" d="M 337.814051 362.394375 
L 349.314814 362.394375 
L 349.314814 344.031085 
L 337.814051 344.031085 
z
" style="fill:#8c8c8c;"/>
   </g>
   <g id="patch_76">
    <path clip-path="url(#p1e5cd7adab)" d="M 350.592677 362.394375 
L 362.09344 362.394375 
L 362.09344 330.983917 
L 350.592677 330.983917 
z
" style="fill:#8c8c8c;"/>
   </g>
   <g id="patch_77">
    <path clip-path="url(#p1e5cd7adab)" d="M 363.371302 362.394375 
L 374.872066 362.394375 
L 374.872066 317.018505 
L 363.371302 317.018505 
z
" style="fill:#8c8c8c;"/>
   </g>
   <g id="patch_78">
    <path clip-path="url(#p1e5cd7adab)" d="M 376.149928 362.394375 
L 387.650692 362.394375 
L 387.650692 315.873905 
L 376.149928 315.873905 
z
" style="fill:#8c8c8c;"/>
   </g>
   <g id="patch_79">
    <path clip-path="url(#p1e5cd7adab)" d="M 388.928554 362.394375 
L 400.429318 362.394375 
L 400.429318 328.943783 
L 388.928554 328.943783 
z
" style="fill:#8c8c8c;"/>
   </g>
   <g id="patch_80">
    <path clip-path="url(#p1e5cd7adab)" d="M 401.70718 362.394375 
L 413.207944 362.394375 
L 413.207944 345.681994 
L 401.70718 345.681994 
z
" style="fill:#8c8c8c;"/>
   </g>
   <g id="patch_81">
    <path clip-path="url(#p1e5cd7adab)" d="M 414.485806 362.394375 
L 425.98657 362.394375 
L 425.98657 349.50626 
L 414.485806 349.50626 
z
" style="fill:#8c8c8c;"/>
   </g>
   <g id="patch_82">
    <path clip-path="url(#p1e5cd7adab)" d="M 427.264432 362.394375 
L 438.765196 362.394375 
L 438.765196 350.273823 
L 427.264432 350.273823 
z
" style="fill:#8c8c8c;"/>
   </g>
   <g id="patch_83">
    <path clip-path="url(#p1e5cd7adab)" d="M 440.043058 362.394375 
L 451.543822 362.394375 
L 451.543822 350.457599 
L 440.043058 350.457599 
z
" style="fill:#8c8c8c;"/>
   </g>
   <g id="patch_84">
    <path clip-path="url(#p1e5cd7adab)" d="M 452.821684 362.394375 
L 464.322448 362.394375 
L 464.322448 350.361459 
L 452.821684 350.361459 
z
" style="fill:#8c8c8c;"/>
   </g>
   <g id="patch_85">
    <path clip-path="url(#p1e5cd7adab)" d="M 465.60031 362.394375 
L 477.101073 362.394375 
L 477.101073 349.648171 
L 465.60031 349.648171 
z
" style="fill:#8c8c8c;"/>
   </g>
   <g id="patch_86">
    <path clip-path="url(#p1e5cd7adab)" d="M 478.378936 362.394375 
L 489.879699 362.394375 
L 489.879699 348.57103 
L 478.378936 348.57103 
z
" style="fill:#8c8c8c;"/>
   </g>
   <g id="patch_87">
    <path clip-path="url(#p1e5cd7adab)" d="M 491.157562 362.394375 
L 502.658325 362.394375 
L 502.658325 346.378858 
L 491.157562 346.378858 
z
" style="fill:#8c8c8c;"/>
   </g>
   <g id="patch_88">
    <path clip-path="url(#p1e5cd7adab)" d="M 503.936188 362.394375 
L 515.436951 362.394375 
L 515.436951 336.566565 
L 503.936188 336.566565 
z
" style="fill:#8c8c8c;"/>
   </g>
   <g id="patch_89">
    <path clip-path="url(#p1e5cd7adab)" d="M 516.714814 362.394375 
L 528.215577 362.394375 
L 528.215577 308.281468 
L 516.714814 308.281468 
z
" style="fill:#8c8c8c;"/>
   </g>
   <g id="patch_90">
    <path clip-path="url(#p1e5cd7adab)" d="M 529.49344 362.394375 
L 540.994203 362.394375 
L 540.994203 300.201827 
L 529.49344 300.201827 
z
" style="fill:#8c8c8c;"/>
   </g>
   <g id="patch_91">
    <path clip-path="url(#p1e5cd7adab)" d="M 542.272066 362.394375 
L 553.772829 362.394375 
L 553.772829 315.001405 
L 542.272066 315.001405 
z
" style="fill:#8c8c8c;"/>
   </g>
   <g id="patch_92">
    <path clip-path="url(#p1e5cd7adab)" d="M 555.050692 362.394375 
L 566.551455 362.394375 
L 566.551455 339.200573 
L 555.050692 339.200573 
z
" style="fill:#8c8c8c;"/>
   </g>
   <g id="patch_93">
    <path clip-path="url(#p1e5cd7adab)" d="M 567.829318 362.394375 
L 579.330081 362.394375 
L 579.330081 346.336258 
L 567.829318 346.336258 
z
" style="fill:#8c8c8c;"/>
   </g>
   <g id="patch_94">
    <path clip-path="url(#p1e5cd7adab)" d="M 580.607944 362.394375 
L 592.108707 362.394375 
L 592.108707 348.836957 
L 580.607944 348.836957 
z
" style="fill:#8c8c8c;"/>
   </g>
   <g id="patch_95">
    <path clip-path="url(#p1e5cd7adab)" d="M 593.38657 362.394375 
L 604.887333 362.394375 
L 604.887333 349.520475 
L 593.38657 349.520475 
z
" style="fill:#8c8c8c;"/>
   </g>
   <g id="patch_96">
    <path clip-path="url(#p1e5cd7adab)" d="M 606.165196 362.394375 
L 617.665959 362.394375 
L 617.665959 349.357909 
L 606.165196 349.357909 
z
" style="fill:#8c8c8c;"/>
   </g>
   <g id="patch_97">
    <path clip-path="url(#p1e5cd7adab)" d="M 618.943822 362.394375 
L 630.444585 362.394375 
L 630.444585 347.680761 
L 618.943822 347.680761 
z
" style="fill:#8c8c8c;"/>
   </g>
   <g id="patch_98">
    <path clip-path="url(#p1e5cd7adab)" d="M 631.722448 362.394375 
L 643.223211 362.394375 
L 643.223211 343.272841 
L 631.722448 343.272841 
z
" style="fill:#8c8c8c;"/>
   </g>
   <g id="patch_99">
    <path clip-path="url(#p1e5cd7adab)" d="M 644.501073 362.394375 
L 656.001837 362.394375 
L 656.001837 333.848399 
L 644.501073 333.848399 
z
" style="fill:#8c8c8c;"/>
   </g>
   <g id="patch_100">
    <path clip-path="url(#p1e5cd7adab)" d="M 657.279699 362.394375 
L 668.780463 362.394375 
L 668.780463 235.870857 
L 657.279699 235.870857 
z
" style="fill:#8c8c8c;"/>
   </g>
   <g id="patch_101">
    <path clip-path="url(#p1e5cd7adab)" d="M 670.058325 362.394375 
L 681.559089 362.394375 
L 681.559089 133.728389 
L 670.058325 133.728389 
z
" style="fill:#8c8c8c;"/>
   </g>
   <g id="patch_102">
    <path clip-path="url(#p1e5cd7adab)" d="M 682.836951 362.394375 
L 694.337715 362.394375 
L 694.337715 53.096828 
L 682.836951 53.096828 
z
" style="fill:#8c8c8c;"/>
   </g>
   <g id="patch_103">
    <path clip-path="url(#p1e5cd7adab)" d="M 695.615577 362.394375 
L 707.116341 362.394375 
L 707.116341 309.604497 
L 695.615577 309.604497 
z
" style="fill:#8c8c8c;"/>
   </g>
   <g id="patch_104">
    <path clip-path="url(#p1e5cd7adab)" d="M 708.394203 362.394375 
L 719.894967 362.394375 
L 719.894967 333.718863 
L 708.394203 333.718863 
z
" style="fill:#8c8c8c;"/>
   </g>
   <g id="patch_105">
    <path clip-path="url(#p1e5cd7adab)" d="M 721.172829 362.394375 
L 732.673593 362.394375 
L 732.673593 345.425919 
L 721.172829 345.425919 
z
" style="fill:#8c8c8c;"/>
   </g>
   <g id="patch_106">
    <path clip-path="url(#p1e5cd7adab)" d="M 733.951455 362.394375 
L 745.452219 362.394375 
L 745.452219 347.870295 
L 733.951455 347.870295 
z
" style="fill:#8c8c8c;"/>
   </g>
   <g id="matplotlib.axis_1">
    <g id="xtick_1">
     <g id="line2d_1">
      <defs>
       <path d="M 0 0 
L 0 3.5 
" id="mcf38c04991" style="stroke:#000000;stroke-width:0.8;"/>
      </defs>
      <g>
       <use style="stroke:#000000;stroke-width:0.8;" x="87.991913" xlink:href="#mcf38c04991" y="362.394375"/>
      </g>
     </g>
     <g id="text_1">
      <!-- 2017-09 -->
      <g transform="translate(91.027226 415.355469)rotate(-90)scale(0.11 -0.11)">
       <defs>
        <path d="M 1228 531 
L 3431 531 
L 3431 0 
L 469 0 
L 469 531 
Q 828 903 1448 1529 
Q 2069 2156 2228 2338 
Q 2531 2678 2651 2914 
Q 2772 3150 2772 3378 
Q 2772 3750 2511 3984 
Q 2250 4219 1831 4219 
Q 1534 4219 1204 4116 
Q 875 4013 500 3803 
L 500 4441 
Q 881 4594 1212 4672 
Q 1544 4750 1819 4750 
Q 2544 4750 2975 4387 
Q 3406 4025 3406 3419 
Q 3406 3131 3298 2873 
Q 3191 2616 2906 2266 
Q 2828 2175 2409 1742 
Q 1991 1309 1228 531 
z
" id="DejaVuSans-32" transform="scale(0.015625)"/>
        <path d="M 2034 4250 
Q 1547 4250 1301 3770 
Q 1056 3291 1056 2328 
Q 1056 1369 1301 889 
Q 1547 409 2034 409 
Q 2525 409 2770 889 
Q 3016 1369 3016 2328 
Q 3016 3291 2770 3770 
Q 2525 4250 2034 4250 
z
M 2034 4750 
Q 2819 4750 3233 4129 
Q 3647 3509 3647 2328 
Q 3647 1150 3233 529 
Q 2819 -91 2034 -91 
Q 1250 -91 836 529 
Q 422 1150 422 2328 
Q 422 3509 836 4129 
Q 1250 4750 2034 4750 
z
" id="DejaVuSans-30" transform="scale(0.015625)"/>
        <path d="M 794 531 
L 1825 531 
L 1825 4091 
L 703 3866 
L 703 4441 
L 1819 4666 
L 2450 4666 
L 2450 531 
L 3481 531 
L 3481 0 
L 794 0 
L 794 531 
z
" id="DejaVuSans-31" transform="scale(0.015625)"/>
        <path d="M 525 4666 
L 3525 4666 
L 3525 4397 
L 1831 0 
L 1172 0 
L 2766 4134 
L 525 4134 
L 525 4666 
z
" id="DejaVuSans-37" transform="scale(0.015625)"/>
        <path d="M 313 2009 
L 1997 2009 
L 1997 1497 
L 313 1497 
L 313 2009 
z
" id="DejaVuSans-2d" transform="scale(0.015625)"/>
        <path d="M 703 97 
L 703 672 
Q 941 559 1184 500 
Q 1428 441 1663 441 
Q 2288 441 2617 861 
Q 2947 1281 2994 2138 
Q 2813 1869 2534 1725 
Q 2256 1581 1919 1581 
Q 1219 1581 811 2004 
Q 403 2428 403 3163 
Q 403 3881 828 4315 
Q 1253 4750 1959 4750 
Q 2769 4750 3195 4129 
Q 3622 3509 3622 2328 
Q 3622 1225 3098 567 
Q 2575 -91 1691 -91 
Q 1453 -91 1209 -44 
Q 966 3 703 97 
z
M 1959 2075 
Q 2384 2075 2632 2365 
Q 2881 2656 2881 3163 
Q 2881 3666 2632 3958 
Q 2384 4250 1959 4250 
Q 1534 4250 1286 3958 
Q 1038 3666 1038 3163 
Q 1038 2656 1286 2365 
Q 1534 2075 1959 2075 
z
" id="DejaVuSans-39" transform="scale(0.015625)"/>
       </defs>
       <use xlink:href="#DejaVuSans-32"/>
       <use x="63.623047" xlink:href="#DejaVuSans-30"/>
       <use x="127.246094" xlink:href="#DejaVuSans-31"/>
       <use x="190.869141" xlink:href="#DejaVuSans-37"/>
       <use x="254.492188" xlink:href="#DejaVuSans-2d"/>
       <use x="290.576172" xlink:href="#DejaVuSans-30"/>
       <use x="354.199219" xlink:href="#DejaVuSans-39"/>
      </g>
     </g>
    </g>
    <g id="xtick_2">
     <g id="line2d_2">
      <g>
       <use style="stroke:#000000;stroke-width:0.8;" x="100.770539" xlink:href="#mcf38c04991" y="362.394375"/>
      </g>
     </g>
     <g id="text_2">
      <!-- 2017-10 -->
      <g transform="translate(103.805852 415.355469)rotate(-90)scale(0.11 -0.11)">
       <use xlink:href="#DejaVuSans-32"/>
       <use x="63.623047" xlink:href="#DejaVuSans-30"/>
       <use x="127.246094" xlink:href="#DejaVuSans-31"/>
       <use x="190.869141" xlink:href="#DejaVuSans-37"/>
       <use x="254.492188" xlink:href="#DejaVuSans-2d"/>
       <use x="290.576172" xlink:href="#DejaVuSans-31"/>
       <use x="354.199219" xlink:href="#DejaVuSans-30"/>
      </g>
     </g>
    </g>
    <g id="xtick_3">
     <g id="line2d_3">
      <g>
       <use style="stroke:#000000;stroke-width:0.8;" x="113.549165" xlink:href="#mcf38c04991" y="362.394375"/>
      </g>
     </g>
     <g id="text_3">
      <!-- 2017-11 -->
      <g transform="translate(116.584478 415.355469)rotate(-90)scale(0.11 -0.11)">
       <use xlink:href="#DejaVuSans-32"/>
       <use x="63.623047" xlink:href="#DejaVuSans-30"/>
       <use x="127.246094" xlink:href="#DejaVuSans-31"/>
       <use x="190.869141" xlink:href="#DejaVuSans-37"/>
       <use x="254.492188" xlink:href="#DejaVuSans-2d"/>
       <use x="290.576172" xlink:href="#DejaVuSans-31"/>
       <use x="354.199219" xlink:href="#DejaVuSans-31"/>
      </g>
     </g>
    </g>
    <g id="xtick_4">
     <g id="line2d_4">
      <g>
       <use style="stroke:#000000;stroke-width:0.8;" x="126.327791" xlink:href="#mcf38c04991" y="362.394375"/>
      </g>
     </g>
     <g id="text_4">
      <!-- 2017-12 -->
      <g transform="translate(129.363104 415.355469)rotate(-90)scale(0.11 -0.11)">
       <use xlink:href="#DejaVuSans-32"/>
       <use x="63.623047" xlink:href="#DejaVuSans-30"/>
       <use x="127.246094" xlink:href="#DejaVuSans-31"/>
       <use x="190.869141" xlink:href="#DejaVuSans-37"/>
       <use x="254.492188" xlink:href="#DejaVuSans-2d"/>
       <use x="290.576172" xlink:href="#DejaVuSans-31"/>
       <use x="354.199219" xlink:href="#DejaVuSans-32"/>
      </g>
     </g>
    </g>
    <g id="xtick_5">
     <g id="line2d_5">
      <g>
       <use style="stroke:#000000;stroke-width:0.8;" x="139.106417" xlink:href="#mcf38c04991" y="362.394375"/>
      </g>
     </g>
     <g id="text_5">
      <!-- 2018-01 -->
      <g transform="translate(142.141729 415.355469)rotate(-90)scale(0.11 -0.11)">
       <defs>
        <path d="M 2034 2216 
Q 1584 2216 1326 1975 
Q 1069 1734 1069 1313 
Q 1069 891 1326 650 
Q 1584 409 2034 409 
Q 2484 409 2743 651 
Q 3003 894 3003 1313 
Q 3003 1734 2745 1975 
Q 2488 2216 2034 2216 
z
M 1403 2484 
Q 997 2584 770 2862 
Q 544 3141 544 3541 
Q 544 4100 942 4425 
Q 1341 4750 2034 4750 
Q 2731 4750 3128 4425 
Q 3525 4100 3525 3541 
Q 3525 3141 3298 2862 
Q 3072 2584 2669 2484 
Q 3125 2378 3379 2068 
Q 3634 1759 3634 1313 
Q 3634 634 3220 271 
Q 2806 -91 2034 -91 
Q 1263 -91 848 271 
Q 434 634 434 1313 
Q 434 1759 690 2068 
Q 947 2378 1403 2484 
z
M 1172 3481 
Q 1172 3119 1398 2916 
Q 1625 2713 2034 2713 
Q 2441 2713 2670 2916 
Q 2900 3119 2900 3481 
Q 2900 3844 2670 4047 
Q 2441 4250 2034 4250 
Q 1625 4250 1398 4047 
Q 1172 3844 1172 3481 
z
" id="DejaVuSans-38" transform="scale(0.015625)"/>
       </defs>
       <use xlink:href="#DejaVuSans-32"/>
       <use x="63.623047" xlink:href="#DejaVuSans-30"/>
       <use x="127.246094" xlink:href="#DejaVuSans-31"/>
       <use x="190.869141" xlink:href="#DejaVuSans-38"/>
       <use x="254.492188" xlink:href="#DejaVuSans-2d"/>
       <use x="290.576172" xlink:href="#DejaVuSans-30"/>
       <use x="354.199219" xlink:href="#DejaVuSans-31"/>
      </g>
     </g>
    </g>
    <g id="xtick_6">
     <g id="line2d_6">
      <g>
       <use style="stroke:#000000;stroke-width:0.8;" x="151.885043" xlink:href="#mcf38c04991" y="362.394375"/>
      </g>
     </g>
     <g id="text_6">
      <!-- 2018-02 -->
      <g transform="translate(154.920355 415.355469)rotate(-90)scale(0.11 -0.11)">
       <use xlink:href="#DejaVuSans-32"/>
       <use x="63.623047" xlink:href="#DejaVuSans-30"/>
       <use x="127.246094" xlink:href="#DejaVuSans-31"/>
       <use x="190.869141" xlink:href="#DejaVuSans-38"/>
       <use x="254.492188" xlink:href="#DejaVuSans-2d"/>
       <use x="290.576172" xlink:href="#DejaVuSans-30"/>
       <use x="354.199219" xlink:href="#DejaVuSans-32"/>
      </g>
     </g>
    </g>
    <g id="xtick_7">
     <g id="line2d_7">
      <g>
       <use style="stroke:#000000;stroke-width:0.8;" x="164.663669" xlink:href="#mcf38c04991" y="362.394375"/>
      </g>
     </g>
     <g id="text_7">
      <!-- 2018-03 -->
      <g transform="translate(167.698981 415.355469)rotate(-90)scale(0.11 -0.11)">
       <defs>
        <path d="M 2597 2516 
Q 3050 2419 3304 2112 
Q 3559 1806 3559 1356 
Q 3559 666 3084 287 
Q 2609 -91 1734 -91 
Q 1441 -91 1130 -33 
Q 819 25 488 141 
L 488 750 
Q 750 597 1062 519 
Q 1375 441 1716 441 
Q 2309 441 2620 675 
Q 2931 909 2931 1356 
Q 2931 1769 2642 2001 
Q 2353 2234 1838 2234 
L 1294 2234 
L 1294 2753 
L 1863 2753 
Q 2328 2753 2575 2939 
Q 2822 3125 2822 3475 
Q 2822 3834 2567 4026 
Q 2313 4219 1838 4219 
Q 1578 4219 1281 4162 
Q 984 4106 628 3988 
L 628 4550 
Q 988 4650 1302 4700 
Q 1616 4750 1894 4750 
Q 2613 4750 3031 4423 
Q 3450 4097 3450 3541 
Q 3450 3153 3228 2886 
Q 3006 2619 2597 2516 
z
" id="DejaVuSans-33" transform="scale(0.015625)"/>
       </defs>
       <use xlink:href="#DejaVuSans-32"/>
       <use x="63.623047" xlink:href="#DejaVuSans-30"/>
       <use x="127.246094" xlink:href="#DejaVuSans-31"/>
       <use x="190.869141" xlink:href="#DejaVuSans-38"/>
       <use x="254.492188" xlink:href="#DejaVuSans-2d"/>
       <use x="290.576172" xlink:href="#DejaVuSans-30"/>
       <use x="354.199219" xlink:href="#DejaVuSans-33"/>
      </g>
     </g>
    </g>
    <g id="xtick_8">
     <g id="line2d_8">
      <g>
       <use style="stroke:#000000;stroke-width:0.8;" x="177.442295" xlink:href="#mcf38c04991" y="362.394375"/>
      </g>
     </g>
     <g id="text_8">
      <!-- 2018-04 -->
      <g transform="translate(180.477607 415.355469)rotate(-90)scale(0.11 -0.11)">
       <defs>
        <path d="M 2419 4116 
L 825 1625 
L 2419 1625 
L 2419 4116 
z
M 2253 4666 
L 3047 4666 
L 3047 1625 
L 3713 1625 
L 3713 1100 
L 3047 1100 
L 3047 0 
L 2419 0 
L 2419 1100 
L 313 1100 
L 313 1709 
L 2253 4666 
z
" id="DejaVuSans-34" transform="scale(0.015625)"/>
       </defs>
       <use xlink:href="#DejaVuSans-32"/>
       <use x="63.623047" xlink:href="#DejaVuSans-30"/>
       <use x="127.246094" xlink:href="#DejaVuSans-31"/>
       <use x="190.869141" xlink:href="#DejaVuSans-38"/>
       <use x="254.492188" xlink:href="#DejaVuSans-2d"/>
       <use x="290.576172" xlink:href="#DejaVuSans-30"/>
       <use x="354.199219" xlink:href="#DejaVuSans-34"/>
      </g>
     </g>
    </g>
    <g id="xtick_9">
     <g id="line2d_9">
      <g>
       <use style="stroke:#000000;stroke-width:0.8;" x="190.220921" xlink:href="#mcf38c04991" y="362.394375"/>
      </g>
     </g>
     <g id="text_9">
      <!-- 2018-05 -->
      <g transform="translate(193.256233 415.355469)rotate(-90)scale(0.11 -0.11)">
       <defs>
        <path d="M 691 4666 
L 3169 4666 
L 3169 4134 
L 1269 4134 
L 1269 2991 
Q 1406 3038 1543 3061 
Q 1681 3084 1819 3084 
Q 2600 3084 3056 2656 
Q 3513 2228 3513 1497 
Q 3513 744 3044 326 
Q 2575 -91 1722 -91 
Q 1428 -91 1123 -41 
Q 819 9 494 109 
L 494 744 
Q 775 591 1075 516 
Q 1375 441 1709 441 
Q 2250 441 2565 725 
Q 2881 1009 2881 1497 
Q 2881 1984 2565 2268 
Q 2250 2553 1709 2553 
Q 1456 2553 1204 2497 
Q 953 2441 691 2322 
L 691 4666 
z
" id="DejaVuSans-35" transform="scale(0.015625)"/>
       </defs>
       <use xlink:href="#DejaVuSans-32"/>
       <use x="63.623047" xlink:href="#DejaVuSans-30"/>
       <use x="127.246094" xlink:href="#DejaVuSans-31"/>
       <use x="190.869141" xlink:href="#DejaVuSans-38"/>
       <use x="254.492188" xlink:href="#DejaVuSans-2d"/>
       <use x="290.576172" xlink:href="#DejaVuSans-30"/>
       <use x="354.199219" xlink:href="#DejaVuSans-35"/>
      </g>
     </g>
    </g>
    <g id="xtick_10">
     <g id="line2d_10">
      <g>
       <use style="stroke:#000000;stroke-width:0.8;" x="202.999547" xlink:href="#mcf38c04991" y="362.394375"/>
      </g>
     </g>
     <g id="text_10">
      <!-- 2018-06 -->
      <g transform="translate(206.034859 415.355469)rotate(-90)scale(0.11 -0.11)">
       <defs>
        <path d="M 2113 2584 
Q 1688 2584 1439 2293 
Q 1191 2003 1191 1497 
Q 1191 994 1439 701 
Q 1688 409 2113 409 
Q 2538 409 2786 701 
Q 3034 994 3034 1497 
Q 3034 2003 2786 2293 
Q 2538 2584 2113 2584 
z
M 3366 4563 
L 3366 3988 
Q 3128 4100 2886 4159 
Q 2644 4219 2406 4219 
Q 1781 4219 1451 3797 
Q 1122 3375 1075 2522 
Q 1259 2794 1537 2939 
Q 1816 3084 2150 3084 
Q 2853 3084 3261 2657 
Q 3669 2231 3669 1497 
Q 3669 778 3244 343 
Q 2819 -91 2113 -91 
Q 1303 -91 875 529 
Q 447 1150 447 2328 
Q 447 3434 972 4092 
Q 1497 4750 2381 4750 
Q 2619 4750 2861 4703 
Q 3103 4656 3366 4563 
z
" id="DejaVuSans-36" transform="scale(0.015625)"/>
       </defs>
       <use xlink:href="#DejaVuSans-32"/>
       <use x="63.623047" xlink:href="#DejaVuSans-30"/>
       <use x="127.246094" xlink:href="#DejaVuSans-31"/>
       <use x="190.869141" xlink:href="#DejaVuSans-38"/>
       <use x="254.492188" xlink:href="#DejaVuSans-2d"/>
       <use x="290.576172" xlink:href="#DejaVuSans-30"/>
       <use x="354.199219" xlink:href="#DejaVuSans-36"/>
      </g>
     </g>
    </g>
    <g id="xtick_11">
     <g id="line2d_11">
      <g>
       <use style="stroke:#000000;stroke-width:0.8;" x="215.778173" xlink:href="#mcf38c04991" y="362.394375"/>
      </g>
     </g>
     <g id="text_11">
      <!-- 2018-07 -->
      <g transform="translate(218.813485 415.355469)rotate(-90)scale(0.11 -0.11)">
       <use xlink:href="#DejaVuSans-32"/>
       <use x="63.623047" xlink:href="#DejaVuSans-30"/>
       <use x="127.246094" xlink:href="#DejaVuSans-31"/>
       <use x="190.869141" xlink:href="#DejaVuSans-38"/>
       <use x="254.492188" xlink:href="#DejaVuSans-2d"/>
       <use x="290.576172" xlink:href="#DejaVuSans-30"/>
       <use x="354.199219" xlink:href="#DejaVuSans-37"/>
      </g>
     </g>
    </g>
    <g id="xtick_12">
     <g id="line2d_12">
      <g>
       <use style="stroke:#000000;stroke-width:0.8;" x="228.556799" xlink:href="#mcf38c04991" y="362.394375"/>
      </g>
     </g>
     <g id="text_12">
      <!-- 2018-08 -->
      <g transform="translate(231.592111 415.355469)rotate(-90)scale(0.11 -0.11)">
       <use xlink:href="#DejaVuSans-32"/>
       <use x="63.623047" xlink:href="#DejaVuSans-30"/>
       <use x="127.246094" xlink:href="#DejaVuSans-31"/>
       <use x="190.869141" xlink:href="#DejaVuSans-38"/>
       <use x="254.492188" xlink:href="#DejaVuSans-2d"/>
       <use x="290.576172" xlink:href="#DejaVuSans-30"/>
       <use x="354.199219" xlink:href="#DejaVuSans-38"/>
      </g>
     </g>
    </g>
    <g id="xtick_13">
     <g id="line2d_13">
      <g>
       <use style="stroke:#000000;stroke-width:0.8;" x="241.335425" xlink:href="#mcf38c04991" y="362.394375"/>
      </g>
     </g>
     <g id="text_13">
      <!-- 2018-09 -->
      <g transform="translate(244.370737 415.355469)rotate(-90)scale(0.11 -0.11)">
       <use xlink:href="#DejaVuSans-32"/>
       <use x="63.623047" xlink:href="#DejaVuSans-30"/>
       <use x="127.246094" xlink:href="#DejaVuSans-31"/>
       <use x="190.869141" xlink:href="#DejaVuSans-38"/>
       <use x="254.492188" xlink:href="#DejaVuSans-2d"/>
       <use x="290.576172" xlink:href="#DejaVuSans-30"/>
       <use x="354.199219" xlink:href="#DejaVuSans-39"/>
      </g>
     </g>
    </g>
    <g id="xtick_14">
     <g id="line2d_14">
      <g>
       <use style="stroke:#000000;stroke-width:0.8;" x="254.114051" xlink:href="#mcf38c04991" y="362.394375"/>
      </g>
     </g>
     <g id="text_14">
      <!-- 2018-10 -->
      <g transform="translate(257.149363 415.355469)rotate(-90)scale(0.11 -0.11)">
       <use xlink:href="#DejaVuSans-32"/>
       <use x="63.623047" xlink:href="#DejaVuSans-30"/>
       <use x="127.246094" xlink:href="#DejaVuSans-31"/>
       <use x="190.869141" xlink:href="#DejaVuSans-38"/>
       <use x="254.492188" xlink:href="#DejaVuSans-2d"/>
       <use x="290.576172" xlink:href="#DejaVuSans-31"/>
       <use x="354.199219" xlink:href="#DejaVuSans-30"/>
      </g>
     </g>
    </g>
    <g id="xtick_15">
     <g id="line2d_15">
      <g>
       <use style="stroke:#000000;stroke-width:0.8;" x="266.892677" xlink:href="#mcf38c04991" y="362.394375"/>
      </g>
     </g>
     <g id="text_15">
      <!-- 2018-11 -->
      <g transform="translate(269.927989 415.355469)rotate(-90)scale(0.11 -0.11)">
       <use xlink:href="#DejaVuSans-32"/>
       <use x="63.623047" xlink:href="#DejaVuSans-30"/>
       <use x="127.246094" xlink:href="#DejaVuSans-31"/>
       <use x="190.869141" xlink:href="#DejaVuSans-38"/>
       <use x="254.492188" xlink:href="#DejaVuSans-2d"/>
       <use x="290.576172" xlink:href="#DejaVuSans-31"/>
       <use x="354.199219" xlink:href="#DejaVuSans-31"/>
      </g>
     </g>
    </g>
    <g id="xtick_16">
     <g id="line2d_16">
      <g>
       <use style="stroke:#000000;stroke-width:0.8;" x="279.671302" xlink:href="#mcf38c04991" y="362.394375"/>
      </g>
     </g>
     <g id="text_16">
      <!-- 2018-12 -->
      <g transform="translate(282.706615 415.355469)rotate(-90)scale(0.11 -0.11)">
       <use xlink:href="#DejaVuSans-32"/>
       <use x="63.623047" xlink:href="#DejaVuSans-30"/>
       <use x="127.246094" xlink:href="#DejaVuSans-31"/>
       <use x="190.869141" xlink:href="#DejaVuSans-38"/>
       <use x="254.492188" xlink:href="#DejaVuSans-2d"/>
       <use x="290.576172" xlink:href="#DejaVuSans-31"/>
       <use x="354.199219" xlink:href="#DejaVuSans-32"/>
      </g>
     </g>
    </g>
    <g id="xtick_17">
     <g id="line2d_17">
      <g>
       <use style="stroke:#000000;stroke-width:0.8;" x="292.449928" xlink:href="#mcf38c04991" y="362.394375"/>
      </g>
     </g>
     <g id="text_17">
      <!-- 2019-01 -->
      <g transform="translate(295.485241 415.355469)rotate(-90)scale(0.11 -0.11)">
       <use xlink:href="#DejaVuSans-32"/>
       <use x="63.623047" xlink:href="#DejaVuSans-30"/>
       <use x="127.246094" xlink:href="#DejaVuSans-31"/>
       <use x="190.869141" xlink:href="#DejaVuSans-39"/>
       <use x="254.492188" xlink:href="#DejaVuSans-2d"/>
       <use x="290.576172" xlink:href="#DejaVuSans-30"/>
       <use x="354.199219" xlink:href="#DejaVuSans-31"/>
      </g>
     </g>
    </g>
    <g id="xtick_18">
     <g id="line2d_18">
      <g>
       <use style="stroke:#000000;stroke-width:0.8;" x="305.228554" xlink:href="#mcf38c04991" y="362.394375"/>
      </g>
     </g>
     <g id="text_18">
      <!-- 2019-02 -->
      <g transform="translate(308.263867 415.355469)rotate(-90)scale(0.11 -0.11)">
       <use xlink:href="#DejaVuSans-32"/>
       <use x="63.623047" xlink:href="#DejaVuSans-30"/>
       <use x="127.246094" xlink:href="#DejaVuSans-31"/>
       <use x="190.869141" xlink:href="#DejaVuSans-39"/>
       <use x="254.492188" xlink:href="#DejaVuSans-2d"/>
       <use x="290.576172" xlink:href="#DejaVuSans-30"/>
       <use x="354.199219" xlink:href="#DejaVuSans-32"/>
      </g>
     </g>
    </g>
    <g id="xtick_19">
     <g id="line2d_19">
      <g>
       <use style="stroke:#000000;stroke-width:0.8;" x="318.00718" xlink:href="#mcf38c04991" y="362.394375"/>
      </g>
     </g>
     <g id="text_19">
      <!-- 2019-03 -->
      <g transform="translate(321.042493 415.355469)rotate(-90)scale(0.11 -0.11)">
       <use xlink:href="#DejaVuSans-32"/>
       <use x="63.623047" xlink:href="#DejaVuSans-30"/>
       <use x="127.246094" xlink:href="#DejaVuSans-31"/>
       <use x="190.869141" xlink:href="#DejaVuSans-39"/>
       <use x="254.492188" xlink:href="#DejaVuSans-2d"/>
       <use x="290.576172" xlink:href="#DejaVuSans-30"/>
       <use x="354.199219" xlink:href="#DejaVuSans-33"/>
      </g>
     </g>
    </g>
    <g id="xtick_20">
     <g id="line2d_20">
      <g>
       <use style="stroke:#000000;stroke-width:0.8;" x="330.785806" xlink:href="#mcf38c04991" y="362.394375"/>
      </g>
     </g>
     <g id="text_20">
      <!-- 2019-04 -->
      <g transform="translate(333.821119 415.355469)rotate(-90)scale(0.11 -0.11)">
       <use xlink:href="#DejaVuSans-32"/>
       <use x="63.623047" xlink:href="#DejaVuSans-30"/>
       <use x="127.246094" xlink:href="#DejaVuSans-31"/>
       <use x="190.869141" xlink:href="#DejaVuSans-39"/>
       <use x="254.492188" xlink:href="#DejaVuSans-2d"/>
       <use x="290.576172" xlink:href="#DejaVuSans-30"/>
       <use x="354.199219" xlink:href="#DejaVuSans-34"/>
      </g>
     </g>
    </g>
    <g id="xtick_21">
     <g id="line2d_21">
      <g>
       <use style="stroke:#000000;stroke-width:0.8;" x="343.564432" xlink:href="#mcf38c04991" y="362.394375"/>
      </g>
     </g>
     <g id="text_21">
      <!-- 2019-05 -->
      <g transform="translate(346.599745 415.355469)rotate(-90)scale(0.11 -0.11)">
       <use xlink:href="#DejaVuSans-32"/>
       <use x="63.623047" xlink:href="#DejaVuSans-30"/>
       <use x="127.246094" xlink:href="#DejaVuSans-31"/>
       <use x="190.869141" xlink:href="#DejaVuSans-39"/>
       <use x="254.492188" xlink:href="#DejaVuSans-2d"/>
       <use x="290.576172" xlink:href="#DejaVuSans-30"/>
       <use x="354.199219" xlink:href="#DejaVuSans-35"/>
      </g>
     </g>
    </g>
    <g id="xtick_22">
     <g id="line2d_22">
      <g>
       <use style="stroke:#000000;stroke-width:0.8;" x="356.343058" xlink:href="#mcf38c04991" y="362.394375"/>
      </g>
     </g>
     <g id="text_22">
      <!-- 2019-06 -->
      <g transform="translate(359.378371 415.355469)rotate(-90)scale(0.11 -0.11)">
       <use xlink:href="#DejaVuSans-32"/>
       <use x="63.623047" xlink:href="#DejaVuSans-30"/>
       <use x="127.246094" xlink:href="#DejaVuSans-31"/>
       <use x="190.869141" xlink:href="#DejaVuSans-39"/>
       <use x="254.492188" xlink:href="#DejaVuSans-2d"/>
       <use x="290.576172" xlink:href="#DejaVuSans-30"/>
       <use x="354.199219" xlink:href="#DejaVuSans-36"/>
      </g>
     </g>
    </g>
    <g id="xtick_23">
     <g id="line2d_23">
      <g>
       <use style="stroke:#000000;stroke-width:0.8;" x="369.121684" xlink:href="#mcf38c04991" y="362.394375"/>
      </g>
     </g>
     <g id="text_23">
      <!-- 2019-07 -->
      <g transform="translate(372.156997 415.355469)rotate(-90)scale(0.11 -0.11)">
       <use xlink:href="#DejaVuSans-32"/>
       <use x="63.623047" xlink:href="#DejaVuSans-30"/>
       <use x="127.246094" xlink:href="#DejaVuSans-31"/>
       <use x="190.869141" xlink:href="#DejaVuSans-39"/>
       <use x="254.492188" xlink:href="#DejaVuSans-2d"/>
       <use x="290.576172" xlink:href="#DejaVuSans-30"/>
       <use x="354.199219" xlink:href="#DejaVuSans-37"/>
      </g>
     </g>
    </g>
    <g id="xtick_24">
     <g id="line2d_24">
      <g>
       <use style="stroke:#000000;stroke-width:0.8;" x="381.90031" xlink:href="#mcf38c04991" y="362.394375"/>
      </g>
     </g>
     <g id="text_24">
      <!-- 2019-08 -->
      <g transform="translate(384.935623 415.355469)rotate(-90)scale(0.11 -0.11)">
       <use xlink:href="#DejaVuSans-32"/>
       <use x="63.623047" xlink:href="#DejaVuSans-30"/>
       <use x="127.246094" xlink:href="#DejaVuSans-31"/>
       <use x="190.869141" xlink:href="#DejaVuSans-39"/>
       <use x="254.492188" xlink:href="#DejaVuSans-2d"/>
       <use x="290.576172" xlink:href="#DejaVuSans-30"/>
       <use x="354.199219" xlink:href="#DejaVuSans-38"/>
      </g>
     </g>
    </g>
    <g id="xtick_25">
     <g id="line2d_25">
      <g>
       <use style="stroke:#000000;stroke-width:0.8;" x="394.678936" xlink:href="#mcf38c04991" y="362.394375"/>
      </g>
     </g>
     <g id="text_25">
      <!-- 2019-09 -->
      <g transform="translate(397.714249 415.355469)rotate(-90)scale(0.11 -0.11)">
       <use xlink:href="#DejaVuSans-32"/>
       <use x="63.623047" xlink:href="#DejaVuSans-30"/>
       <use x="127.246094" xlink:href="#DejaVuSans-31"/>
       <use x="190.869141" xlink:href="#DejaVuSans-39"/>
       <use x="254.492188" xlink:href="#DejaVuSans-2d"/>
       <use x="290.576172" xlink:href="#DejaVuSans-30"/>
       <use x="354.199219" xlink:href="#DejaVuSans-39"/>
      </g>
     </g>
    </g>
    <g id="xtick_26">
     <g id="line2d_26">
      <g>
       <use style="stroke:#000000;stroke-width:0.8;" x="407.457562" xlink:href="#mcf38c04991" y="362.394375"/>
      </g>
     </g>
     <g id="text_26">
      <!-- 2019-10 -->
      <g transform="translate(410.492875 415.355469)rotate(-90)scale(0.11 -0.11)">
       <use xlink:href="#DejaVuSans-32"/>
       <use x="63.623047" xlink:href="#DejaVuSans-30"/>
       <use x="127.246094" xlink:href="#DejaVuSans-31"/>
       <use x="190.869141" xlink:href="#DejaVuSans-39"/>
       <use x="254.492188" xlink:href="#DejaVuSans-2d"/>
       <use x="290.576172" xlink:href="#DejaVuSans-31"/>
       <use x="354.199219" xlink:href="#DejaVuSans-30"/>
      </g>
     </g>
    </g>
    <g id="xtick_27">
     <g id="line2d_27">
      <g>
       <use style="stroke:#000000;stroke-width:0.8;" x="420.236188" xlink:href="#mcf38c04991" y="362.394375"/>
      </g>
     </g>
     <g id="text_27">
      <!-- 2019-11 -->
      <g transform="translate(423.2715 415.355469)rotate(-90)scale(0.11 -0.11)">
       <use xlink:href="#DejaVuSans-32"/>
       <use x="63.623047" xlink:href="#DejaVuSans-30"/>
       <use x="127.246094" xlink:href="#DejaVuSans-31"/>
       <use x="190.869141" xlink:href="#DejaVuSans-39"/>
       <use x="254.492188" xlink:href="#DejaVuSans-2d"/>
       <use x="290.576172" xlink:href="#DejaVuSans-31"/>
       <use x="354.199219" xlink:href="#DejaVuSans-31"/>
      </g>
     </g>
    </g>
    <g id="xtick_28">
     <g id="line2d_28">
      <g>
       <use style="stroke:#000000;stroke-width:0.8;" x="433.014814" xlink:href="#mcf38c04991" y="362.394375"/>
      </g>
     </g>
     <g id="text_28">
      <!-- 2019-12 -->
      <g transform="translate(436.050126 415.355469)rotate(-90)scale(0.11 -0.11)">
       <use xlink:href="#DejaVuSans-32"/>
       <use x="63.623047" xlink:href="#DejaVuSans-30"/>
       <use x="127.246094" xlink:href="#DejaVuSans-31"/>
       <use x="190.869141" xlink:href="#DejaVuSans-39"/>
       <use x="254.492188" xlink:href="#DejaVuSans-2d"/>
       <use x="290.576172" xlink:href="#DejaVuSans-31"/>
       <use x="354.199219" xlink:href="#DejaVuSans-32"/>
      </g>
     </g>
    </g>
    <g id="xtick_29">
     <g id="line2d_29">
      <g>
       <use style="stroke:#000000;stroke-width:0.8;" x="445.79344" xlink:href="#mcf38c04991" y="362.394375"/>
      </g>
     </g>
     <g id="text_29">
      <!-- 2020-01 -->
      <g transform="translate(448.828752 415.355469)rotate(-90)scale(0.11 -0.11)">
       <use xlink:href="#DejaVuSans-32"/>
       <use x="63.623047" xlink:href="#DejaVuSans-30"/>
       <use x="127.246094" xlink:href="#DejaVuSans-32"/>
       <use x="190.869141" xlink:href="#DejaVuSans-30"/>
       <use x="254.492188" xlink:href="#DejaVuSans-2d"/>
       <use x="290.576172" xlink:href="#DejaVuSans-30"/>
       <use x="354.199219" xlink:href="#DejaVuSans-31"/>
      </g>
     </g>
    </g>
    <g id="xtick_30">
     <g id="line2d_30">
      <g>
       <use style="stroke:#000000;stroke-width:0.8;" x="458.572066" xlink:href="#mcf38c04991" y="362.394375"/>
      </g>
     </g>
     <g id="text_30">
      <!-- 2020-02 -->
      <g transform="translate(461.607378 415.355469)rotate(-90)scale(0.11 -0.11)">
       <use xlink:href="#DejaVuSans-32"/>
       <use x="63.623047" xlink:href="#DejaVuSans-30"/>
       <use x="127.246094" xlink:href="#DejaVuSans-32"/>
       <use x="190.869141" xlink:href="#DejaVuSans-30"/>
       <use x="254.492188" xlink:href="#DejaVuSans-2d"/>
       <use x="290.576172" xlink:href="#DejaVuSans-30"/>
       <use x="354.199219" xlink:href="#DejaVuSans-32"/>
      </g>
     </g>
    </g>
    <g id="xtick_31">
     <g id="line2d_31">
      <g>
       <use style="stroke:#000000;stroke-width:0.8;" x="471.350692" xlink:href="#mcf38c04991" y="362.394375"/>
      </g>
     </g>
     <g id="text_31">
      <!-- 2020-03 -->
      <g transform="translate(474.386004 415.355469)rotate(-90)scale(0.11 -0.11)">
       <use xlink:href="#DejaVuSans-32"/>
       <use x="63.623047" xlink:href="#DejaVuSans-30"/>
       <use x="127.246094" xlink:href="#DejaVuSans-32"/>
       <use x="190.869141" xlink:href="#DejaVuSans-30"/>
       <use x="254.492188" xlink:href="#DejaVuSans-2d"/>
       <use x="290.576172" xlink:href="#DejaVuSans-30"/>
       <use x="354.199219" xlink:href="#DejaVuSans-33"/>
      </g>
     </g>
    </g>
    <g id="xtick_32">
     <g id="line2d_32">
      <g>
       <use style="stroke:#000000;stroke-width:0.8;" x="484.129318" xlink:href="#mcf38c04991" y="362.394375"/>
      </g>
     </g>
     <g id="text_32">
      <!-- 2020-04 -->
      <g transform="translate(487.16463 415.355469)rotate(-90)scale(0.11 -0.11)">
       <use xlink:href="#DejaVuSans-32"/>
       <use x="63.623047" xlink:href="#DejaVuSans-30"/>
       <use x="127.246094" xlink:href="#DejaVuSans-32"/>
       <use x="190.869141" xlink:href="#DejaVuSans-30"/>
       <use x="254.492188" xlink:href="#DejaVuSans-2d"/>
       <use x="290.576172" xlink:href="#DejaVuSans-30"/>
       <use x="354.199219" xlink:href="#DejaVuSans-34"/>
      </g>
     </g>
    </g>
    <g id="xtick_33">
     <g id="line2d_33">
      <g>
       <use style="stroke:#000000;stroke-width:0.8;" x="496.907944" xlink:href="#mcf38c04991" y="362.394375"/>
      </g>
     </g>
     <g id="text_33">
      <!-- 2020-05 -->
      <g transform="translate(499.943256 415.355469)rotate(-90)scale(0.11 -0.11)">
       <use xlink:href="#DejaVuSans-32"/>
       <use x="63.623047" xlink:href="#DejaVuSans-30"/>
       <use x="127.246094" xlink:href="#DejaVuSans-32"/>
       <use x="190.869141" xlink:href="#DejaVuSans-30"/>
       <use x="254.492188" xlink:href="#DejaVuSans-2d"/>
       <use x="290.576172" xlink:href="#DejaVuSans-30"/>
       <use x="354.199219" xlink:href="#DejaVuSans-35"/>
      </g>
     </g>
    </g>
    <g id="xtick_34">
     <g id="line2d_34">
      <g>
       <use style="stroke:#000000;stroke-width:0.8;" x="509.68657" xlink:href="#mcf38c04991" y="362.394375"/>
      </g>
     </g>
     <g id="text_34">
      <!-- 2020-06 -->
      <g transform="translate(512.721882 415.355469)rotate(-90)scale(0.11 -0.11)">
       <use xlink:href="#DejaVuSans-32"/>
       <use x="63.623047" xlink:href="#DejaVuSans-30"/>
       <use x="127.246094" xlink:href="#DejaVuSans-32"/>
       <use x="190.869141" xlink:href="#DejaVuSans-30"/>
       <use x="254.492188" xlink:href="#DejaVuSans-2d"/>
       <use x="290.576172" xlink:href="#DejaVuSans-30"/>
       <use x="354.199219" xlink:href="#DejaVuSans-36"/>
      </g>
     </g>
    </g>
    <g id="xtick_35">
     <g id="line2d_35">
      <g>
       <use style="stroke:#000000;stroke-width:0.8;" x="522.465196" xlink:href="#mcf38c04991" y="362.394375"/>
      </g>
     </g>
     <g id="text_35">
      <!-- 2020-07 -->
      <g transform="translate(525.500508 415.355469)rotate(-90)scale(0.11 -0.11)">
       <use xlink:href="#DejaVuSans-32"/>
       <use x="63.623047" xlink:href="#DejaVuSans-30"/>
       <use x="127.246094" xlink:href="#DejaVuSans-32"/>
       <use x="190.869141" xlink:href="#DejaVuSans-30"/>
       <use x="254.492188" xlink:href="#DejaVuSans-2d"/>
       <use x="290.576172" xlink:href="#DejaVuSans-30"/>
       <use x="354.199219" xlink:href="#DejaVuSans-37"/>
      </g>
     </g>
    </g>
    <g id="xtick_36">
     <g id="line2d_36">
      <g>
       <use style="stroke:#000000;stroke-width:0.8;" x="535.243822" xlink:href="#mcf38c04991" y="362.394375"/>
      </g>
     </g>
     <g id="text_36">
      <!-- 2020-08 -->
      <g transform="translate(538.279134 415.355469)rotate(-90)scale(0.11 -0.11)">
       <use xlink:href="#DejaVuSans-32"/>
       <use x="63.623047" xlink:href="#DejaVuSans-30"/>
       <use x="127.246094" xlink:href="#DejaVuSans-32"/>
       <use x="190.869141" xlink:href="#DejaVuSans-30"/>
       <use x="254.492188" xlink:href="#DejaVuSans-2d"/>
       <use x="290.576172" xlink:href="#DejaVuSans-30"/>
       <use x="354.199219" xlink:href="#DejaVuSans-38"/>
      </g>
     </g>
    </g>
    <g id="xtick_37">
     <g id="line2d_37">
      <g>
       <use style="stroke:#000000;stroke-width:0.8;" x="548.022448" xlink:href="#mcf38c04991" y="362.394375"/>
      </g>
     </g>
     <g id="text_37">
      <!-- 2020-09 -->
      <g transform="translate(551.05776 415.355469)rotate(-90)scale(0.11 -0.11)">
       <use xlink:href="#DejaVuSans-32"/>
       <use x="63.623047" xlink:href="#DejaVuSans-30"/>
       <use x="127.246094" xlink:href="#DejaVuSans-32"/>
       <use x="190.869141" xlink:href="#DejaVuSans-30"/>
       <use x="254.492188" xlink:href="#DejaVuSans-2d"/>
       <use x="290.576172" xlink:href="#DejaVuSans-30"/>
       <use x="354.199219" xlink:href="#DejaVuSans-39"/>
      </g>
     </g>
    </g>
    <g id="xtick_38">
     <g id="line2d_38">
      <g>
       <use style="stroke:#000000;stroke-width:0.8;" x="560.801073" xlink:href="#mcf38c04991" y="362.394375"/>
      </g>
     </g>
     <g id="text_38">
      <!-- 2020-10 -->
      <g transform="translate(563.836386 415.355469)rotate(-90)scale(0.11 -0.11)">
       <use xlink:href="#DejaVuSans-32"/>
       <use x="63.623047" xlink:href="#DejaVuSans-30"/>
       <use x="127.246094" xlink:href="#DejaVuSans-32"/>
       <use x="190.869141" xlink:href="#DejaVuSans-30"/>
       <use x="254.492188" xlink:href="#DejaVuSans-2d"/>
       <use x="290.576172" xlink:href="#DejaVuSans-31"/>
       <use x="354.199219" xlink:href="#DejaVuSans-30"/>
      </g>
     </g>
    </g>
    <g id="xtick_39">
     <g id="line2d_39">
      <g>
       <use style="stroke:#000000;stroke-width:0.8;" x="573.579699" xlink:href="#mcf38c04991" y="362.394375"/>
      </g>
     </g>
     <g id="text_39">
      <!-- 2020-11 -->
      <g transform="translate(576.615012 415.355469)rotate(-90)scale(0.11 -0.11)">
       <use xlink:href="#DejaVuSans-32"/>
       <use x="63.623047" xlink:href="#DejaVuSans-30"/>
       <use x="127.246094" xlink:href="#DejaVuSans-32"/>
       <use x="190.869141" xlink:href="#DejaVuSans-30"/>
       <use x="254.492188" xlink:href="#DejaVuSans-2d"/>
       <use x="290.576172" xlink:href="#DejaVuSans-31"/>
       <use x="354.199219" xlink:href="#DejaVuSans-31"/>
      </g>
     </g>
    </g>
    <g id="xtick_40">
     <g id="line2d_40">
      <g>
       <use style="stroke:#000000;stroke-width:0.8;" x="586.358325" xlink:href="#mcf38c04991" y="362.394375"/>
      </g>
     </g>
     <g id="text_40">
      <!-- 2020-12 -->
      <g transform="translate(589.393638 415.355469)rotate(-90)scale(0.11 -0.11)">
       <use xlink:href="#DejaVuSans-32"/>
       <use x="63.623047" xlink:href="#DejaVuSans-30"/>
       <use x="127.246094" xlink:href="#DejaVuSans-32"/>
       <use x="190.869141" xlink:href="#DejaVuSans-30"/>
       <use x="254.492188" xlink:href="#DejaVuSans-2d"/>
       <use x="290.576172" xlink:href="#DejaVuSans-31"/>
       <use x="354.199219" xlink:href="#DejaVuSans-32"/>
      </g>
     </g>
    </g>
    <g id="xtick_41">
     <g id="line2d_41">
      <g>
       <use style="stroke:#000000;stroke-width:0.8;" x="599.136951" xlink:href="#mcf38c04991" y="362.394375"/>
      </g>
     </g>
     <g id="text_41">
      <!-- 2021-01 -->
      <g transform="translate(602.172264 415.355469)rotate(-90)scale(0.11 -0.11)">
       <use xlink:href="#DejaVuSans-32"/>
       <use x="63.623047" xlink:href="#DejaVuSans-30"/>
       <use x="127.246094" xlink:href="#DejaVuSans-32"/>
       <use x="190.869141" xlink:href="#DejaVuSans-31"/>
       <use x="254.492188" xlink:href="#DejaVuSans-2d"/>
       <use x="290.576172" xlink:href="#DejaVuSans-30"/>
       <use x="354.199219" xlink:href="#DejaVuSans-31"/>
      </g>
     </g>
    </g>
    <g id="xtick_42">
     <g id="line2d_42">
      <g>
       <use style="stroke:#000000;stroke-width:0.8;" x="611.915577" xlink:href="#mcf38c04991" y="362.394375"/>
      </g>
     </g>
     <g id="text_42">
      <!-- 2021-02 -->
      <g transform="translate(614.95089 415.355469)rotate(-90)scale(0.11 -0.11)">
       <use xlink:href="#DejaVuSans-32"/>
       <use x="63.623047" xlink:href="#DejaVuSans-30"/>
       <use x="127.246094" xlink:href="#DejaVuSans-32"/>
       <use x="190.869141" xlink:href="#DejaVuSans-31"/>
       <use x="254.492188" xlink:href="#DejaVuSans-2d"/>
       <use x="290.576172" xlink:href="#DejaVuSans-30"/>
       <use x="354.199219" xlink:href="#DejaVuSans-32"/>
      </g>
     </g>
    </g>
    <g id="xtick_43">
     <g id="line2d_43">
      <g>
       <use style="stroke:#000000;stroke-width:0.8;" x="624.694203" xlink:href="#mcf38c04991" y="362.394375"/>
      </g>
     </g>
     <g id="text_43">
      <!-- 2021-03 -->
      <g transform="translate(627.729516 415.355469)rotate(-90)scale(0.11 -0.11)">
       <use xlink:href="#DejaVuSans-32"/>
       <use x="63.623047" xlink:href="#DejaVuSans-30"/>
       <use x="127.246094" xlink:href="#DejaVuSans-32"/>
       <use x="190.869141" xlink:href="#DejaVuSans-31"/>
       <use x="254.492188" xlink:href="#DejaVuSans-2d"/>
       <use x="290.576172" xlink:href="#DejaVuSans-30"/>
       <use x="354.199219" xlink:href="#DejaVuSans-33"/>
      </g>
     </g>
    </g>
    <g id="xtick_44">
     <g id="line2d_44">
      <g>
       <use style="stroke:#000000;stroke-width:0.8;" x="637.472829" xlink:href="#mcf38c04991" y="362.394375"/>
      </g>
     </g>
     <g id="text_44">
      <!-- 2021-04 -->
      <g transform="translate(640.508142 415.355469)rotate(-90)scale(0.11 -0.11)">
       <use xlink:href="#DejaVuSans-32"/>
       <use x="63.623047" xlink:href="#DejaVuSans-30"/>
       <use x="127.246094" xlink:href="#DejaVuSans-32"/>
       <use x="190.869141" xlink:href="#DejaVuSans-31"/>
       <use x="254.492188" xlink:href="#DejaVuSans-2d"/>
       <use x="290.576172" xlink:href="#DejaVuSans-30"/>
       <use x="354.199219" xlink:href="#DejaVuSans-34"/>
      </g>
     </g>
    </g>
    <g id="xtick_45">
     <g id="line2d_45">
      <g>
       <use style="stroke:#000000;stroke-width:0.8;" x="650.251455" xlink:href="#mcf38c04991" y="362.394375"/>
      </g>
     </g>
     <g id="text_45">
      <!-- 2021-05 -->
      <g transform="translate(653.286768 415.355469)rotate(-90)scale(0.11 -0.11)">
       <use xlink:href="#DejaVuSans-32"/>
       <use x="63.623047" xlink:href="#DejaVuSans-30"/>
       <use x="127.246094" xlink:href="#DejaVuSans-32"/>
       <use x="190.869141" xlink:href="#DejaVuSans-31"/>
       <use x="254.492188" xlink:href="#DejaVuSans-2d"/>
       <use x="290.576172" xlink:href="#DejaVuSans-30"/>
       <use x="354.199219" xlink:href="#DejaVuSans-35"/>
      </g>
     </g>
    </g>
    <g id="xtick_46">
     <g id="line2d_46">
      <g>
       <use style="stroke:#000000;stroke-width:0.8;" x="663.030081" xlink:href="#mcf38c04991" y="362.394375"/>
      </g>
     </g>
     <g id="text_46">
      <!-- 2021-06 -->
      <g transform="translate(666.065394 415.355469)rotate(-90)scale(0.11 -0.11)">
       <use xlink:href="#DejaVuSans-32"/>
       <use x="63.623047" xlink:href="#DejaVuSans-30"/>
       <use x="127.246094" xlink:href="#DejaVuSans-32"/>
       <use x="190.869141" xlink:href="#DejaVuSans-31"/>
       <use x="254.492188" xlink:href="#DejaVuSans-2d"/>
       <use x="290.576172" xlink:href="#DejaVuSans-30"/>
       <use x="354.199219" xlink:href="#DejaVuSans-36"/>
      </g>
     </g>
    </g>
    <g id="xtick_47">
     <g id="line2d_47">
      <g>
       <use style="stroke:#000000;stroke-width:0.8;" x="675.808707" xlink:href="#mcf38c04991" y="362.394375"/>
      </g>
     </g>
     <g id="text_47">
      <!-- 2021-07 -->
      <g transform="translate(678.84402 415.355469)rotate(-90)scale(0.11 -0.11)">
       <use xlink:href="#DejaVuSans-32"/>
       <use x="63.623047" xlink:href="#DejaVuSans-30"/>
       <use x="127.246094" xlink:href="#DejaVuSans-32"/>
       <use x="190.869141" xlink:href="#DejaVuSans-31"/>
       <use x="254.492188" xlink:href="#DejaVuSans-2d"/>
       <use x="290.576172" xlink:href="#DejaVuSans-30"/>
       <use x="354.199219" xlink:href="#DejaVuSans-37"/>
      </g>
     </g>
    </g>
    <g id="xtick_48">
     <g id="line2d_48">
      <g>
       <use style="stroke:#000000;stroke-width:0.8;" x="688.587333" xlink:href="#mcf38c04991" y="362.394375"/>
      </g>
     </g>
     <g id="text_48">
      <!-- 2021-08 -->
      <g transform="translate(691.622646 415.355469)rotate(-90)scale(0.11 -0.11)">
       <use xlink:href="#DejaVuSans-32"/>
       <use x="63.623047" xlink:href="#DejaVuSans-30"/>
       <use x="127.246094" xlink:href="#DejaVuSans-32"/>
       <use x="190.869141" xlink:href="#DejaVuSans-31"/>
       <use x="254.492188" xlink:href="#DejaVuSans-2d"/>
       <use x="290.576172" xlink:href="#DejaVuSans-30"/>
       <use x="354.199219" xlink:href="#DejaVuSans-38"/>
      </g>
     </g>
    </g>
    <g id="xtick_49">
     <g id="line2d_49">
      <g>
       <use style="stroke:#000000;stroke-width:0.8;" x="701.365959" xlink:href="#mcf38c04991" y="362.394375"/>
      </g>
     </g>
     <g id="text_49">
      <!-- 2021-09 -->
      <g transform="translate(704.401271 415.355469)rotate(-90)scale(0.11 -0.11)">
       <use xlink:href="#DejaVuSans-32"/>
       <use x="63.623047" xlink:href="#DejaVuSans-30"/>
       <use x="127.246094" xlink:href="#DejaVuSans-32"/>
       <use x="190.869141" xlink:href="#DejaVuSans-31"/>
       <use x="254.492188" xlink:href="#DejaVuSans-2d"/>
       <use x="290.576172" xlink:href="#DejaVuSans-30"/>
       <use x="354.199219" xlink:href="#DejaVuSans-39"/>
      </g>
     </g>
    </g>
    <g id="xtick_50">
     <g id="line2d_50">
      <g>
       <use style="stroke:#000000;stroke-width:0.8;" x="714.144585" xlink:href="#mcf38c04991" y="362.394375"/>
      </g>
     </g>
     <g id="text_50">
      <!-- 2021-10 -->
      <g transform="translate(717.179897 415.355469)rotate(-90)scale(0.11 -0.11)">
       <use xlink:href="#DejaVuSans-32"/>
       <use x="63.623047" xlink:href="#DejaVuSans-30"/>
       <use x="127.246094" xlink:href="#DejaVuSans-32"/>
       <use x="190.869141" xlink:href="#DejaVuSans-31"/>
       <use x="254.492188" xlink:href="#DejaVuSans-2d"/>
       <use x="290.576172" xlink:href="#DejaVuSans-31"/>
       <use x="354.199219" xlink:href="#DejaVuSans-30"/>
      </g>
     </g>
    </g>
    <g id="xtick_51">
     <g id="line2d_51">
      <g>
       <use style="stroke:#000000;stroke-width:0.8;" x="726.923211" xlink:href="#mcf38c04991" y="362.394375"/>
      </g>
     </g>
     <g id="text_51">
      <!-- 2021-11 -->
      <g transform="translate(729.958523 415.355469)rotate(-90)scale(0.11 -0.11)">
       <use xlink:href="#DejaVuSans-32"/>
       <use x="63.623047" xlink:href="#DejaVuSans-30"/>
       <use x="127.246094" xlink:href="#DejaVuSans-32"/>
       <use x="190.869141" xlink:href="#DejaVuSans-31"/>
       <use x="254.492188" xlink:href="#DejaVuSans-2d"/>
       <use x="290.576172" xlink:href="#DejaVuSans-31"/>
       <use x="354.199219" xlink:href="#DejaVuSans-31"/>
      </g>
     </g>
    </g>
    <g id="xtick_52">
     <g id="line2d_52">
      <g>
       <use style="stroke:#000000;stroke-width:0.8;" x="739.701837" xlink:href="#mcf38c04991" y="362.394375"/>
      </g>
     </g>
     <g id="text_52">
      <!-- 2021-12 -->
      <g transform="translate(742.737149 415.355469)rotate(-90)scale(0.11 -0.11)">
       <use xlink:href="#DejaVuSans-32"/>
       <use x="63.623047" xlink:href="#DejaVuSans-30"/>
       <use x="127.246094" xlink:href="#DejaVuSans-32"/>
       <use x="190.869141" xlink:href="#DejaVuSans-31"/>
       <use x="254.492188" xlink:href="#DejaVuSans-2d"/>
       <use x="290.576172" xlink:href="#DejaVuSans-31"/>
       <use x="354.199219" xlink:href="#DejaVuSans-32"/>
      </g>
     </g>
    </g>
   </g>
   <g id="matplotlib.axis_2">
    <g id="ytick_1">
     <g id="line2d_53">
      <defs>
       <path d="M 0 0 
L -3.5 0 
" id="m273cc5012b" style="stroke:#000000;stroke-width:0.8;"/>
      </defs>
      <g>
       <use style="stroke:#000000;stroke-width:0.8;" x="79.046875" xlink:href="#m273cc5012b" y="362.394375"/>
      </g>
     </g>
     <g id="text_53">
      <!-- 0 -->
      <g transform="translate(56.140625 371.892422)scale(0.25 -0.25)">
       <use xlink:href="#DejaVuSans-30"/>
      </g>
     </g>
    </g>
    <g id="ytick_2">
     <g id="line2d_54">
      <g>
       <use style="stroke:#000000;stroke-width:0.8;" x="79.046875" xlink:href="#m273cc5012b" y="289.269126"/>
      </g>
     </g>
     <g id="text_54">
      <!-- 20 -->
      <g transform="translate(40.234375 298.767173)scale(0.25 -0.25)">
       <use xlink:href="#DejaVuSans-32"/>
       <use x="63.623047" xlink:href="#DejaVuSans-30"/>
      </g>
     </g>
    </g>
    <g id="ytick_3">
     <g id="line2d_55">
      <g>
       <use style="stroke:#000000;stroke-width:0.8;" x="79.046875" xlink:href="#m273cc5012b" y="216.143878"/>
      </g>
     </g>
     <g id="text_55">
      <!-- 40 -->
      <g transform="translate(40.234375 225.641925)scale(0.25 -0.25)">
       <use xlink:href="#DejaVuSans-34"/>
       <use x="63.623047" xlink:href="#DejaVuSans-30"/>
      </g>
     </g>
    </g>
    <g id="ytick_4">
     <g id="line2d_56">
      <g>
       <use style="stroke:#000000;stroke-width:0.8;" x="79.046875" xlink:href="#m273cc5012b" y="143.018629"/>
      </g>
     </g>
     <g id="text_56">
      <!-- 60 -->
      <g transform="translate(40.234375 152.516676)scale(0.25 -0.25)">
       <use xlink:href="#DejaVuSans-36"/>
       <use x="63.623047" xlink:href="#DejaVuSans-30"/>
      </g>
     </g>
    </g>
    <g id="ytick_5">
     <g id="line2d_57">
      <g>
       <use style="stroke:#000000;stroke-width:0.8;" x="79.046875" xlink:href="#m273cc5012b" y="69.893381"/>
      </g>
     </g>
     <g id="text_57">
      <!-- 80 -->
      <g transform="translate(40.234375 79.391428)scale(0.25 -0.25)">
       <use xlink:href="#DejaVuSans-38"/>
       <use x="63.623047" xlink:href="#DejaVuSans-30"/>
      </g>
     </g>
    </g>
    <g id="text_58">
     <!-- /kWh -->
     <g transform="translate(29.995312 246.934687)rotate(-90)scale(0.3 -0.3)">
      <defs>
       <path d="M 2119 409 
L 2119 3084 
Q 1659 3028 1403 2675 
Q 1147 2322 1147 1747 
Q 1147 1169 1403 816 
Q 1659 463 2119 409 
z
M 3309 3366 
L 3309 2828 
Q 3078 2956 2865 3022 
Q 2653 3088 2441 3097 
L 2438 397 
Q 2656 413 2870 478 
Q 3084 544 3309 666 
L 3309 134 
Q 3106 41 2892 -14 
Q 2678 -69 2438 -91 
L 2438 -978 
L 2119 -978 
L 2119 -78 
Q 1366 -16 952 464 
Q 538 944 538 1747 
Q 538 2553 952 3031 
Q 1366 3509 2119 3578 
L 2119 4475 
L 2438 4475 
L 2441 3578 
Q 2669 3566 2883 3514 
Q 3097 3463 3309 3366 
z
" id="DejaVuSans-a2" transform="scale(0.015625)"/>
       <path d="M 1625 4666 
L 2156 4666 
L 531 -594 
L 0 -594 
L 1625 4666 
z
" id="DejaVuSans-2f" transform="scale(0.015625)"/>
       <path d="M 581 4863 
L 1159 4863 
L 1159 1991 
L 2875 3500 
L 3609 3500 
L 1753 1863 
L 3688 0 
L 2938 0 
L 1159 1709 
L 1159 0 
L 581 0 
L 581 4863 
z
" id="DejaVuSans-6b" transform="scale(0.015625)"/>
       <path d="M 213 4666 
L 850 4666 
L 1831 722 
L 2809 4666 
L 3519 4666 
L 4500 722 
L 5478 4666 
L 6119 4666 
L 4947 0 
L 4153 0 
L 3169 4050 
L 2175 0 
L 1381 0 
L 213 4666 
z
" id="DejaVuSans-57" transform="scale(0.015625)"/>
       <path d="M 3513 2113 
L 3513 0 
L 2938 0 
L 2938 2094 
Q 2938 2591 2744 2837 
Q 2550 3084 2163 3084 
Q 1697 3084 1428 2787 
Q 1159 2491 1159 1978 
L 1159 0 
L 581 0 
L 581 4863 
L 1159 4863 
L 1159 2956 
Q 1366 3272 1645 3428 
Q 1925 3584 2291 3584 
Q 2894 3584 3203 3211 
Q 3513 2838 3513 2113 
z
" id="DejaVuSans-68" transform="scale(0.015625)"/>
      </defs>
      <use xlink:href="#DejaVuSans-a2"/>
      <use x="63.623047" xlink:href="#DejaVuSans-2f"/>
      <use x="97.314453" xlink:href="#DejaVuSans-6b"/>
      <use x="155.224609" xlink:href="#DejaVuSans-57"/>
      <use x="254.101562" xlink:href="#DejaVuSans-68"/>
     </g>
    </g>
   </g>
   <g id="line2d_58">
    <path clip-path="url(#p1e5cd7adab)" d="M 87.991913 337.950929 
L 100.770539 331.75837 
L 113.549165 340.664978 
L 126.327791 345.373147 
L 139.106417 346.592472 
L 151.885043 345.175753 
L 164.663669 344.411625 
L 177.442295 342.000852 
L 190.220921 331.306392 
L 202.999547 315.784488 
L 215.778173 311.227481 
L 228.556799 308.835557 
L 241.335425 318.74709 
L 254.114051 347.057197 
L 266.892677 357.667486 
L 279.671302 345.780203 
L 292.449928 347.636705 
L 305.228554 347.841252 
L 318.00718 345.759999 
L 330.785806 342.974571 
L 343.564432 332.775916 
L 356.343058 317.306201 
L 369.121684 306.201054 
L 381.90031 308.025718 
L 394.678936 316.203411 
L 407.457562 335.655131 
L 420.236188 342.838749 
L 433.014814 344.903935 
L 445.79344 345.298726 
L 458.572066 344.892692 
L 471.350692 343.354942 
L 484.129318 341.153408 
L 496.907944 337.785194 
L 509.68657 324.763976 
L 522.465196 311.652212 
L 535.243822 311.574227 
L 548.022448 311.896395 
L 560.801073 323.73589 
L 573.579699 334.754818 
L 586.358325 340.281282 
L 599.136951 342.349195 
L 611.915577 343.701836 
L 624.694203 339.308736 
L 637.472829 328.930803 
L 650.251455 318.56291 
L 663.030081 298.106711 
L 675.808707 298.902644 
L 688.587333 294.624916 
L 701.365959 308.9367 
L 714.144585 304.238614 
L 726.923211 327.680957 
L 739.701837 340.291715 
" style="fill:none;stroke:#000000;stroke-linecap:square;stroke-width:1.5;"/>
   </g>
   <g id="patch_107">
    <path d="M 79.046875 362.394375 
L 79.046875 36.234375 
" style="fill:none;stroke:#000000;stroke-linecap:square;stroke-linejoin:miter;stroke-width:0.8;"/>
   </g>
   <g id="patch_108">
    <path d="M 79.046875 362.394375 
L 748.646875 362.394375 
" style="fill:none;stroke:#000000;stroke-linecap:square;stroke-linejoin:miter;stroke-width:0.8;"/>
   </g>
   <g id="text_59">
    <!-- Average energy cost -->
    <g transform="translate(259.323438 29.995312)scale(0.3 -0.3)">
     <defs>
      <path d="M 2188 4044 
L 1331 1722 
L 3047 1722 
L 2188 4044 
z
M 1831 4666 
L 2547 4666 
L 4325 0 
L 3669 0 
L 3244 1197 
L 1141 1197 
L 716 0 
L 50 0 
L 1831 4666 
z
" id="DejaVuSans-41" transform="scale(0.015625)"/>
      <path d="M 191 3500 
L 800 3500 
L 1894 563 
L 2988 3500 
L 3597 3500 
L 2284 0 
L 1503 0 
L 191 3500 
z
" id="DejaVuSans-76" transform="scale(0.015625)"/>
      <path d="M 3597 1894 
L 3597 1613 
L 953 1613 
Q 991 1019 1311 708 
Q 1631 397 2203 397 
Q 2534 397 2845 478 
Q 3156 559 3463 722 
L 3463 178 
Q 3153 47 2828 -22 
Q 2503 -91 2169 -91 
Q 1331 -91 842 396 
Q 353 884 353 1716 
Q 353 2575 817 3079 
Q 1281 3584 2069 3584 
Q 2775 3584 3186 3129 
Q 3597 2675 3597 1894 
z
M 3022 2063 
Q 3016 2534 2758 2815 
Q 2500 3097 2075 3097 
Q 1594 3097 1305 2825 
Q 1016 2553 972 2059 
L 3022 2063 
z
" id="DejaVuSans-65" transform="scale(0.015625)"/>
      <path d="M 2631 2963 
Q 2534 3019 2420 3045 
Q 2306 3072 2169 3072 
Q 1681 3072 1420 2755 
Q 1159 2438 1159 1844 
L 1159 0 
L 581 0 
L 581 3500 
L 1159 3500 
L 1159 2956 
Q 1341 3275 1631 3429 
Q 1922 3584 2338 3584 
Q 2397 3584 2469 3576 
Q 2541 3569 2628 3553 
L 2631 2963 
z
" id="DejaVuSans-72" transform="scale(0.015625)"/>
      <path d="M 2194 1759 
Q 1497 1759 1228 1600 
Q 959 1441 959 1056 
Q 959 750 1161 570 
Q 1363 391 1709 391 
Q 2188 391 2477 730 
Q 2766 1069 2766 1631 
L 2766 1759 
L 2194 1759 
z
M 3341 1997 
L 3341 0 
L 2766 0 
L 2766 531 
Q 2569 213 2275 61 
Q 1981 -91 1556 -91 
Q 1019 -91 701 211 
Q 384 513 384 1019 
Q 384 1609 779 1909 
Q 1175 2209 1959 2209 
L 2766 2209 
L 2766 2266 
Q 2766 2663 2505 2880 
Q 2244 3097 1772 3097 
Q 1472 3097 1187 3025 
Q 903 2953 641 2809 
L 641 3341 
Q 956 3463 1253 3523 
Q 1550 3584 1831 3584 
Q 2591 3584 2966 3190 
Q 3341 2797 3341 1997 
z
" id="DejaVuSans-61" transform="scale(0.015625)"/>
      <path d="M 2906 1791 
Q 2906 2416 2648 2759 
Q 2391 3103 1925 3103 
Q 1463 3103 1205 2759 
Q 947 2416 947 1791 
Q 947 1169 1205 825 
Q 1463 481 1925 481 
Q 2391 481 2648 825 
Q 2906 1169 2906 1791 
z
M 3481 434 
Q 3481 -459 3084 -895 
Q 2688 -1331 1869 -1331 
Q 1566 -1331 1297 -1286 
Q 1028 -1241 775 -1147 
L 775 -588 
Q 1028 -725 1275 -790 
Q 1522 -856 1778 -856 
Q 2344 -856 2625 -561 
Q 2906 -266 2906 331 
L 2906 616 
Q 2728 306 2450 153 
Q 2172 0 1784 0 
Q 1141 0 747 490 
Q 353 981 353 1791 
Q 353 2603 747 3093 
Q 1141 3584 1784 3584 
Q 2172 3584 2450 3431 
Q 2728 3278 2906 2969 
L 2906 3500 
L 3481 3500 
L 3481 434 
z
" id="DejaVuSans-67" transform="scale(0.015625)"/>
      <path id="DejaVuSans-20" transform="scale(0.015625)"/>
      <path d="M 3513 2113 
L 3513 0 
L 2938 0 
L 2938 2094 
Q 2938 2591 2744 2837 
Q 2550 3084 2163 3084 
Q 1697 3084 1428 2787 
Q 1159 2491 1159 1978 
L 1159 0 
L 581 0 
L 581 3500 
L 1159 3500 
L 1159 2956 
Q 1366 3272 1645 3428 
Q 1925 3584 2291 3584 
Q 2894 3584 3203 3211 
Q 3513 2838 3513 2113 
z
" id="DejaVuSans-6e" transform="scale(0.015625)"/>
      <path d="M 2059 -325 
Q 1816 -950 1584 -1140 
Q 1353 -1331 966 -1331 
L 506 -1331 
L 506 -850 
L 844 -850 
Q 1081 -850 1212 -737 
Q 1344 -625 1503 -206 
L 1606 56 
L 191 3500 
L 800 3500 
L 1894 763 
L 2988 3500 
L 3597 3500 
L 2059 -325 
z
" id="DejaVuSans-79" transform="scale(0.015625)"/>
      <path d="M 3122 3366 
L 3122 2828 
Q 2878 2963 2633 3030 
Q 2388 3097 2138 3097 
Q 1578 3097 1268 2742 
Q 959 2388 959 1747 
Q 959 1106 1268 751 
Q 1578 397 2138 397 
Q 2388 397 2633 464 
Q 2878 531 3122 666 
L 3122 134 
Q 2881 22 2623 -34 
Q 2366 -91 2075 -91 
Q 1284 -91 818 406 
Q 353 903 353 1747 
Q 353 2603 823 3093 
Q 1294 3584 2113 3584 
Q 2378 3584 2631 3529 
Q 2884 3475 3122 3366 
z
" id="DejaVuSans-63" transform="scale(0.015625)"/>
      <path d="M 1959 3097 
Q 1497 3097 1228 2736 
Q 959 2375 959 1747 
Q 959 1119 1226 758 
Q 1494 397 1959 397 
Q 2419 397 2687 759 
Q 2956 1122 2956 1747 
Q 2956 2369 2687 2733 
Q 2419 3097 1959 3097 
z
M 1959 3584 
Q 2709 3584 3137 3096 
Q 3566 2609 3566 1747 
Q 3566 888 3137 398 
Q 2709 -91 1959 -91 
Q 1206 -91 779 398 
Q 353 888 353 1747 
Q 353 2609 779 3096 
Q 1206 3584 1959 3584 
z
" id="DejaVuSans-6f" transform="scale(0.015625)"/>
      <path d="M 2834 3397 
L 2834 2853 
Q 2591 2978 2328 3040 
Q 2066 3103 1784 3103 
Q 1356 3103 1142 2972 
Q 928 2841 928 2578 
Q 928 2378 1081 2264 
Q 1234 2150 1697 2047 
L 1894 2003 
Q 2506 1872 2764 1633 
Q 3022 1394 3022 966 
Q 3022 478 2636 193 
Q 2250 -91 1575 -91 
Q 1294 -91 989 -36 
Q 684 19 347 128 
L 347 722 
Q 666 556 975 473 
Q 1284 391 1588 391 
Q 1994 391 2212 530 
Q 2431 669 2431 922 
Q 2431 1156 2273 1281 
Q 2116 1406 1581 1522 
L 1381 1569 
Q 847 1681 609 1914 
Q 372 2147 372 2553 
Q 372 3047 722 3315 
Q 1072 3584 1716 3584 
Q 2034 3584 2315 3537 
Q 2597 3491 2834 3397 
z
" id="DejaVuSans-73" transform="scale(0.015625)"/>
      <path d="M 1172 4494 
L 1172 3500 
L 2356 3500 
L 2356 3053 
L 1172 3053 
L 1172 1153 
Q 1172 725 1289 603 
Q 1406 481 1766 481 
L 2356 481 
L 2356 0 
L 1766 0 
Q 1100 0 847 248 
Q 594 497 594 1153 
L 594 3053 
L 172 3053 
L 172 3500 
L 594 3500 
L 594 4494 
L 1172 4494 
z
" id="DejaVuSans-74" transform="scale(0.015625)"/>
     </defs>
     <use xlink:href="#DejaVuSans-41"/>
     <use x="62.533203" xlink:href="#DejaVuSans-76"/>
     <use x="121.712891" xlink:href="#DejaVuSans-65"/>
     <use x="183.236328" xlink:href="#DejaVuSans-72"/>
     <use x="224.349609" xlink:href="#DejaVuSans-61"/>
     <use x="285.628906" xlink:href="#DejaVuSans-67"/>
     <use x="349.105469" xlink:href="#DejaVuSans-65"/>
     <use x="410.628906" xlink:href="#DejaVuSans-20"/>
     <use x="442.416016" xlink:href="#DejaVuSans-65"/>
     <use x="503.939453" xlink:href="#DejaVuSans-6e"/>
     <use x="567.318359" xlink:href="#DejaVuSans-65"/>
     <use x="628.841797" xlink:href="#DejaVuSans-72"/>
     <use x="668.205078" xlink:href="#DejaVuSans-67"/>
     <use x="731.681641" xlink:href="#DejaVuSans-79"/>
     <use x="790.861328" xlink:href="#DejaVuSans-20"/>
     <use x="822.648438" xlink:href="#DejaVuSans-63"/>
     <use x="877.628906" xlink:href="#DejaVuSans-6f"/>
     <use x="938.810547" xlink:href="#DejaVuSans-73"/>
     <use x="990.910156" xlink:href="#DejaVuSans-74"/>
    </g>
   </g>
   <g id="legend_1">
    <g id="patch_109">
     <path d="M 96.546875 166.320312 
L 300.730469 166.320312 
Q 305.730469 166.320312 305.730469 161.320312 
L 305.730469 53.734375 
Q 305.730469 48.734375 300.730469 48.734375 
L 96.546875 48.734375 
Q 91.546875 48.734375 91.546875 53.734375 
L 91.546875 161.320312 
Q 91.546875 166.320312 96.546875 166.320312 
z
" style="fill:#ffffff;opacity:0.8;stroke:#cccccc;stroke-linejoin:miter;"/>
    </g>
    <g id="line2d_59">
     <path d="M 101.546875 68.980469 
L 151.546875 68.980469 
" style="fill:none;stroke:#000000;stroke-linecap:square;stroke-width:1.5;"/>
    </g>
    <g id="line2d_60"/>
    <g id="text_60">
     <!-- Blended -->
     <g transform="translate(171.546875 77.730469)scale(0.25 -0.25)">
      <defs>
       <path d="M 1259 2228 
L 1259 519 
L 2272 519 
Q 2781 519 3026 730 
Q 3272 941 3272 1375 
Q 3272 1813 3026 2020 
Q 2781 2228 2272 2228 
L 1259 2228 
z
M 1259 4147 
L 1259 2741 
L 2194 2741 
Q 2656 2741 2882 2914 
Q 3109 3088 3109 3444 
Q 3109 3797 2882 3972 
Q 2656 4147 2194 4147 
L 1259 4147 
z
M 628 4666 
L 2241 4666 
Q 2963 4666 3353 4366 
Q 3744 4066 3744 3513 
Q 3744 3084 3544 2831 
Q 3344 2578 2956 2516 
Q 3422 2416 3680 2098 
Q 3938 1781 3938 1306 
Q 3938 681 3513 340 
Q 3088 0 2303 0 
L 628 0 
L 628 4666 
z
" id="DejaVuSans-42" transform="scale(0.015625)"/>
       <path d="M 603 4863 
L 1178 4863 
L 1178 0 
L 603 0 
L 603 4863 
z
" id="DejaVuSans-6c" transform="scale(0.015625)"/>
       <path d="M 2906 2969 
L 2906 4863 
L 3481 4863 
L 3481 0 
L 2906 0 
L 2906 525 
Q 2725 213 2448 61 
Q 2172 -91 1784 -91 
Q 1150 -91 751 415 
Q 353 922 353 1747 
Q 353 2572 751 3078 
Q 1150 3584 1784 3584 
Q 2172 3584 2448 3432 
Q 2725 3281 2906 2969 
z
M 947 1747 
Q 947 1113 1208 752 
Q 1469 391 1925 391 
Q 2381 391 2643 752 
Q 2906 1113 2906 1747 
Q 2906 2381 2643 2742 
Q 2381 3103 1925 3103 
Q 1469 3103 1208 2742 
Q 947 2381 947 1747 
z
" id="DejaVuSans-64" transform="scale(0.015625)"/>
      </defs>
      <use xlink:href="#DejaVuSans-42"/>
      <use x="68.603516" xlink:href="#DejaVuSans-6c"/>
      <use x="96.386719" xlink:href="#DejaVuSans-65"/>
      <use x="157.910156" xlink:href="#DejaVuSans-6e"/>
      <use x="221.289062" xlink:href="#DejaVuSans-64"/>
      <use x="284.765625" xlink:href="#DejaVuSans-65"/>
      <use x="346.289062" xlink:href="#DejaVuSans-64"/>
     </g>
    </g>
    <g id="patch_110">
     <path d="M 101.546875 114.425781 
L 151.546875 114.425781 
L 151.546875 96.925781 
L 101.546875 96.925781 
z
" style="fill:#90cd97;"/>
    </g>
    <g id="text_61">
     <!-- Electricity -->
     <g transform="translate(171.546875 114.425781)scale(0.25 -0.25)">
      <defs>
       <path d="M 628 4666 
L 3578 4666 
L 3578 4134 
L 1259 4134 
L 1259 2753 
L 3481 2753 
L 3481 2222 
L 1259 2222 
L 1259 531 
L 3634 531 
L 3634 0 
L 628 0 
L 628 4666 
z
" id="DejaVuSans-45" transform="scale(0.015625)"/>
       <path d="M 603 3500 
L 1178 3500 
L 1178 0 
L 603 0 
L 603 3500 
z
M 603 4863 
L 1178 4863 
L 1178 4134 
L 603 4134 
L 603 4863 
z
" id="DejaVuSans-69" transform="scale(0.015625)"/>
      </defs>
      <use xlink:href="#DejaVuSans-45"/>
      <use x="63.183594" xlink:href="#DejaVuSans-6c"/>
      <use x="90.966797" xlink:href="#DejaVuSans-65"/>
      <use x="152.490234" xlink:href="#DejaVuSans-63"/>
      <use x="207.470703" xlink:href="#DejaVuSans-74"/>
      <use x="246.679688" xlink:href="#DejaVuSans-72"/>
      <use x="287.792969" xlink:href="#DejaVuSans-69"/>
      <use x="315.576172" xlink:href="#DejaVuSans-63"/>
      <use x="370.556641" xlink:href="#DejaVuSans-69"/>
      <use x="398.339844" xlink:href="#DejaVuSans-74"/>
      <use x="437.548828" xlink:href="#DejaVuSans-79"/>
     </g>
    </g>
    <g id="patch_111">
     <path d="M 101.546875 151.121094 
L 151.546875 151.121094 
L 151.546875 133.621094 
L 101.546875 133.621094 
z
" style="fill:#8c8c8c;"/>
    </g>
    <g id="text_62">
     <!-- Gas -->
     <g transform="translate(171.546875 151.121094)scale(0.25 -0.25)">
      <defs>
       <path d="M 3809 666 
L 3809 1919 
L 2778 1919 
L 2778 2438 
L 4434 2438 
L 4434 434 
Q 4069 175 3628 42 
Q 3188 -91 2688 -91 
Q 1594 -91 976 548 
Q 359 1188 359 2328 
Q 359 3472 976 4111 
Q 1594 4750 2688 4750 
Q 3144 4750 3555 4637 
Q 3966 4525 4313 4306 
L 4313 3634 
Q 3963 3931 3569 4081 
Q 3175 4231 2741 4231 
Q 1884 4231 1454 3753 
Q 1025 3275 1025 2328 
Q 1025 1384 1454 906 
Q 1884 428 2741 428 
Q 3075 428 3337 486 
Q 3600 544 3809 666 
z
" id="DejaVuSans-47" transform="scale(0.015625)"/>
      </defs>
      <use xlink:href="#DejaVuSans-47"/>
      <use x="77.490234" xlink:href="#DejaVuSans-61"/>
      <use x="138.769531" xlink:href="#DejaVuSans-73"/>
     </g>
    </g>
   </g>
  </g>
 </g>
 <defs>
  <clipPath id="p1e5cd7adab">
   <rect height="326.16" width="669.6" x="79.046875" y="36.234375"/>
  </clipPath>
 </defs>
</svg>
