<?xml version="1.0" encoding="utf-8" standalone="no"?>
<!DOCTYPE svg PUBLIC "-//W3C//DTD SVG 1.1//EN"
  "http://www.w3.org/Graphics/SVG/1.1/DTD/svg11.dtd">
<svg height="418.377187pt" version="1.1" viewBox="0 0 809.91875 418.377187" width="809.91875pt" xmlns="http://www.w3.org/2000/svg" xmlns:xlink="http://www.w3.org/1999/xlink">
 <metadata>
  <rdf:RDF xmlns:cc="http://creativecommons.org/ns#" xmlns:dc="http://purl.org/dc/elements/1.1/" xmlns:rdf="http://www.w3.org/1999/02/22-rdf-syntax-ns#">
   <cc:Work>
    <dc:type rdf:resource="http://purl.org/dc/dcmitype/StillImage"/>
    <dc:date>2022-01-27T04:26:57.226676</dc:date>
    <dc:format>image/svg+xml</dc:format>
    <dc:creator>
     <cc:Agent>
      <dc:title>Matplotlib v3.4.2, https://matplotlib.org/</dc:title>
     </cc:Agent>
    </dc:creator>
   </cc:Work>
  </rdf:RDF>
 </metadata>
 <defs>
  <style type="text/css">*{stroke-linecap:butt;stroke-linejoin:round;}</style>
 </defs>
 <g id="figure_1">
  <g id="patch_1">
   <path d="M 0 418.377187 
L 809.91875 418.377187 
L 809.91875 0 
L 0 0 
z
" style="fill:#ffffff;"/>
  </g>
  <g id="axes_1">
   <g id="patch_2">
    <path d="M 133.11875 362.394375 
L 802.71875 362.394375 
L 802.71875 36.234375 
L 133.11875 36.234375 
z
" style="fill:#ffffff;"/>
   </g>
   <g id="patch_3">
    <path clip-path="url(#p992e1f037a)" d="M 136.313406 362.394375 
L 147.81417 362.394375 
L 147.81417 355.283155 
L 136.313406 355.283155 
z
" style="fill:#f07e6e;"/>
   </g>
   <g id="patch_4">
    <path clip-path="url(#p992e1f037a)" d="M 149.092032 362.394375 
L 160.592796 362.394375 
L 160.592796 348.715674 
L 149.092032 348.715674 
z
" style="fill:#f07e6e;"/>
   </g>
   <g id="patch_5">
    <path clip-path="url(#p992e1f037a)" d="M 161.870658 362.394375 
L 173.371422 362.394375 
L 173.371422 337.626654 
L 161.870658 337.626654 
z
" style="fill:#f07e6e;"/>
   </g>
   <g id="patch_6">
    <path clip-path="url(#p992e1f037a)" d="M 174.649284 362.394375 
L 186.150048 362.394375 
L 186.150048 332.411302 
L 174.649284 332.411302 
z
" style="fill:#f07e6e;"/>
   </g>
   <g id="patch_7">
    <path clip-path="url(#p992e1f037a)" d="M 187.42791 362.394375 
L 198.928674 362.394375 
L 198.928674 334.7401 
L 187.42791 334.7401 
z
" style="fill:#f07e6e;"/>
   </g>
   <g id="patch_8">
    <path clip-path="url(#p992e1f037a)" d="M 200.206536 362.394375 
L 211.7073 362.394375 
L 211.7073 336.742978 
L 200.206536 336.742978 
z
" style="fill:#f07e6e;"/>
   </g>
   <g id="patch_9">
    <path clip-path="url(#p992e1f037a)" d="M 212.985162 362.394375 
L 224.485926 362.394375 
L 224.485926 340.281135 
L 212.985162 340.281135 
z
" style="fill:#f07e6e;"/>
   </g>
   <g id="patch_10">
    <path clip-path="url(#p992e1f037a)" d="M 225.763788 362.394375 
L 237.264552 362.394375 
L 237.264552 342.422946 
L 225.763788 342.422946 
z
" style="fill:#f07e6e;"/>
   </g>
   <g id="patch_11">
    <path clip-path="url(#p992e1f037a)" d="M 238.542414 362.394375 
L 250.043177 362.394375 
L 250.043177 343.293984 
L 238.542414 343.293984 
z
" style="fill:#f07e6e;"/>
   </g>
   <g id="patch_12">
    <path clip-path="url(#p992e1f037a)" d="M 251.32104 362.394375 
L 262.821803 362.394375 
L 262.821803 340.282901 
L 251.32104 340.282901 
z
" style="fill:#f07e6e;"/>
   </g>
   <g id="patch_13">
    <path clip-path="url(#p992e1f037a)" d="M 264.099666 362.394375 
L 275.600429 362.394375 
L 275.600429 341.467425 
L 264.099666 341.467425 
z
" style="fill:#f07e6e;"/>
   </g>
   <g id="patch_14">
    <path clip-path="url(#p992e1f037a)" d="M 276.878292 362.394375 
L 288.379055 362.394375 
L 288.379055 345.391462 
L 276.878292 345.391462 
z
" style="fill:#f07e6e;"/>
   </g>
   <g id="patch_15">
    <path clip-path="url(#p992e1f037a)" d="M 289.656918 362.394375 
L 301.157681 362.394375 
L 301.157681 343.822019 
L 289.656918 343.822019 
z
" style="fill:#f07e6e;"/>
   </g>
   <g id="patch_16">
    <path clip-path="url(#p992e1f037a)" d="M 302.435544 362.394375 
L 313.936307 362.394375 
L 313.936307 349.279989 
L 302.435544 349.279989 
z
" style="fill:#f07e6e;"/>
   </g>
   <g id="patch_17">
    <path clip-path="url(#p992e1f037a)" d="M 315.21417 362.394375 
L 326.714933 362.394375 
L 326.714933 343.475542 
L 315.21417 343.475542 
z
" style="fill:#f07e6e;"/>
   </g>
   <g id="patch_18">
    <path clip-path="url(#p992e1f037a)" d="M 327.992796 362.394375 
L 339.493559 362.394375 
L 339.493559 339.815889 
L 327.992796 339.815889 
z
" style="fill:#f07e6e;"/>
   </g>
   <g id="patch_19">
    <path clip-path="url(#p992e1f037a)" d="M 340.771422 362.394375 
L 352.272185 362.394375 
L 352.272185 339.005377 
L 340.771422 339.005377 
z
" style="fill:#f07e6e;"/>
   </g>
   <g id="patch_20">
    <path clip-path="url(#p992e1f037a)" d="M 353.550048 362.394375 
L 365.050811 362.394375 
L 365.050811 336.421892 
L 353.550048 336.421892 
z
" style="fill:#f07e6e;"/>
   </g>
   <g id="patch_21">
    <path clip-path="url(#p992e1f037a)" d="M 366.328674 362.394375 
L 377.829437 362.394375 
L 377.829437 341.673158 
L 366.328674 341.673158 
z
" style="fill:#f07e6e;"/>
   </g>
   <g id="patch_22">
    <path clip-path="url(#p992e1f037a)" d="M 379.1073 362.394375 
L 390.608063 362.394375 
L 390.608063 342.267984 
L 379.1073 342.267984 
z
" style="fill:#f07e6e;"/>
   </g>
   <g id="patch_23">
    <path clip-path="url(#p992e1f037a)" d="M 391.885926 362.394375 
L 403.386689 362.394375 
L 403.386689 344.15531 
L 391.885926 344.15531 
z
" style="fill:#f07e6e;"/>
   </g>
   <g id="patch_24">
    <path clip-path="url(#p992e1f037a)" d="M 404.664552 362.394375 
L 416.165315 362.394375 
L 416.165315 348.09521 
L 404.664552 348.09521 
z
" style="fill:#f07e6e;"/>
   </g>
   <g id="patch_25">
    <path clip-path="url(#p992e1f037a)" d="M 417.443177 362.394375 
L 428.943941 362.394375 
L 428.943941 351.186366 
L 417.443177 351.186366 
z
" style="fill:#f07e6e;"/>
   </g>
   <g id="patch_26">
    <path clip-path="url(#p992e1f037a)" d="M 430.221803 362.394375 
L 441.722567 362.394375 
L 441.722567 347.840391 
L 430.221803 347.840391 
z
" style="fill:#f07e6e;"/>
   </g>
   <g id="patch_27">
    <path clip-path="url(#p992e1f037a)" d="M 443.000429 362.394375 
L 454.501193 362.394375 
L 454.501193 347.508277 
L 443.000429 347.508277 
z
" style="fill:#f07e6e;"/>
   </g>
   <g id="patch_28">
    <path clip-path="url(#p992e1f037a)" d="M 455.779055 362.394375 
L 467.279819 362.394375 
L 467.279819 352.101917 
L 455.779055 352.101917 
z
" style="fill:#f07e6e;"/>
   </g>
   <g id="patch_29">
    <path clip-path="url(#p992e1f037a)" d="M 468.557681 362.394375 
L 480.058445 362.394375 
L 480.058445 348.912474 
L 468.557681 348.912474 
z
" style="fill:#f07e6e;"/>
   </g>
   <g id="patch_30">
    <path clip-path="url(#p992e1f037a)" d="M 481.336307 362.394375 
L 492.837071 362.394375 
L 492.837071 343.164126 
L 481.336307 343.164126 
z
" style="fill:#f07e6e;"/>
   </g>
   <g id="patch_31">
    <path clip-path="url(#p992e1f037a)" d="M 494.114933 362.394375 
L 505.615697 362.394375 
L 505.615697 341.900015 
L 494.114933 341.900015 
z
" style="fill:#f07e6e;"/>
   </g>
   <g id="patch_32">
    <path clip-path="url(#p992e1f037a)" d="M 506.893559 362.394375 
L 518.394323 362.394375 
L 518.394323 340.561559 
L 506.893559 340.561559 
z
" style="fill:#f07e6e;"/>
   </g>
   <g id="patch_33">
    <path clip-path="url(#p992e1f037a)" d="M 519.672185 362.394375 
L 531.172948 362.394375 
L 531.172948 344.647413 
L 519.672185 344.647413 
z
" style="fill:#f07e6e;"/>
   </g>
   <g id="patch_34">
    <path clip-path="url(#p992e1f037a)" d="M 532.450811 362.394375 
L 543.951574 362.394375 
L 543.951574 340.497772 
L 532.450811 340.497772 
z
" style="fill:#f07e6e;"/>
   </g>
   <g id="patch_35">
    <path clip-path="url(#p992e1f037a)" d="M 545.229437 362.394375 
L 556.7302 362.394375 
L 556.7302 335.250857 
L 545.229437 335.250857 
z
" style="fill:#f07e6e;"/>
   </g>
   <g id="patch_36">
    <path clip-path="url(#p992e1f037a)" d="M 558.008063 362.394375 
L 569.508826 362.394375 
L 569.508826 341.600307 
L 558.008063 341.600307 
z
" style="fill:#f07e6e;"/>
   </g>
   <g id="patch_37">
    <path clip-path="url(#p992e1f037a)" d="M 570.786689 362.394375 
L 582.287452 362.394375 
L 582.287452 333.498901 
L 570.786689 333.498901 
z
" style="fill:#f07e6e;"/>
   </g>
   <g id="patch_38">
    <path clip-path="url(#p992e1f037a)" d="M 583.565315 362.394375 
L 595.066078 362.394375 
L 595.066078 322.797153 
L 583.565315 322.797153 
z
" style="fill:#f07e6e;"/>
   </g>
   <g id="patch_39">
    <path clip-path="url(#p992e1f037a)" d="M 596.343941 362.394375 
L 607.844704 362.394375 
L 607.844704 330.669088 
L 596.343941 330.669088 
z
" style="fill:#f07e6e;"/>
   </g>
   <g id="patch_40">
    <path clip-path="url(#p992e1f037a)" d="M 609.122567 362.394375 
L 620.62333 362.394375 
L 620.62333 335.633509 
L 609.122567 335.633509 
z
" style="fill:#f07e6e;"/>
   </g>
   <g id="patch_41">
    <path clip-path="url(#p992e1f037a)" d="M 621.901193 362.394375 
L 633.401956 362.394375 
L 633.401956 333.351225 
L 621.901193 333.351225 
z
" style="fill:#f07e6e;"/>
   </g>
   <g id="patch_42">
    <path clip-path="url(#p992e1f037a)" d="M 634.679819 362.394375 
L 646.180582 362.394375 
L 646.180582 329.089898 
L 634.679819 329.089898 
z
" style="fill:#f07e6e;"/>
   </g>
   <g id="patch_43">
    <path clip-path="url(#p992e1f037a)" d="M 647.458445 362.394375 
L 658.959208 362.394375 
L 658.959208 325.983522 
L 647.458445 325.983522 
z
" style="fill:#f07e6e;"/>
   </g>
   <g id="patch_44">
    <path clip-path="url(#p992e1f037a)" d="M 660.237071 362.394375 
L 671.737834 362.394375 
L 671.737834 327.101447 
L 660.237071 327.101447 
z
" style="fill:#f07e6e;"/>
   </g>
   <g id="patch_45">
    <path clip-path="url(#p992e1f037a)" d="M 673.015697 362.394375 
L 684.51646 362.394375 
L 684.51646 327.192246 
L 673.015697 327.192246 
z
" style="fill:#f07e6e;"/>
   </g>
   <g id="patch_46">
    <path clip-path="url(#p992e1f037a)" d="M 685.794323 362.394375 
L 697.295086 362.394375 
L 697.295086 324.968457 
L 685.794323 324.968457 
z
" style="fill:#f07e6e;"/>
   </g>
   <g id="patch_47">
    <path clip-path="url(#p992e1f037a)" d="M 698.572948 362.394375 
L 710.073712 362.394375 
L 710.073712 328.198673 
L 698.572948 328.198673 
z
" style="fill:#f07e6e;"/>
   </g>
   <g id="patch_48">
    <path clip-path="url(#p992e1f037a)" d="M 711.351574 362.394375 
L 722.852338 362.394375 
L 722.852338 335.222611 
L 711.351574 335.222611 
z
" style="fill:#f07e6e;"/>
   </g>
   <g id="patch_49">
    <path clip-path="url(#p992e1f037a)" d="M 724.1302 362.394375 
L 735.630964 362.394375 
L 735.630964 336.876341 
L 724.1302 336.876341 
z
" style="fill:#f07e6e;"/>
   </g>
   <g id="patch_50">
    <path clip-path="url(#p992e1f037a)" d="M 736.908826 362.394375 
L 748.40959 362.394375 
L 748.40959 335.419593 
L 736.908826 335.419593 
z
" style="fill:#f07e6e;"/>
   </g>
   <g id="patch_51">
    <path clip-path="url(#p992e1f037a)" d="M 749.687452 362.394375 
L 761.188216 362.394375 
L 761.188216 338.256924 
L 749.687452 338.256924 
z
" style="fill:#f07e6e;"/>
   </g>
   <g id="patch_52">
    <path clip-path="url(#p992e1f037a)" d="M 762.466078 362.394375 
L 773.966842 362.394375 
L 773.966842 337.936931 
L 762.466078 337.936931 
z
" style="fill:#f07e6e;"/>
   </g>
   <g id="patch_53">
    <path clip-path="url(#p992e1f037a)" d="M 775.244704 362.394375 
L 786.745468 362.394375 
L 786.745468 329.730838 
L 775.244704 329.730838 
z
" style="fill:#f07e6e;"/>
   </g>
   <g id="patch_54">
    <path clip-path="url(#p992e1f037a)" d="M 788.02333 362.394375 
L 799.524094 362.394375 
L 799.524094 334.431746 
L 788.02333 334.431746 
z
" style="fill:#f07e6e;"/>
   </g>
   <g id="patch_55">
    <path clip-path="url(#p992e1f037a)" d="M 136.313406 355.283155 
L 147.81417 355.283155 
L 147.81417 346.90923 
L 136.313406 346.90923 
z
" style="fill:#eddd46;"/>
   </g>
   <g id="patch_56">
    <path clip-path="url(#p992e1f037a)" d="M 149.092032 348.715674 
L 160.592796 348.715674 
L 160.592796 328.243174 
L 149.092032 328.243174 
z
" style="fill:#eddd46;"/>
   </g>
   <g id="patch_57">
    <path clip-path="url(#p992e1f037a)" d="M 161.870658 337.626654 
L 173.371422 337.626654 
L 173.371422 313.770587 
L 161.870658 313.770587 
z
" style="fill:#eddd46;"/>
   </g>
   <g id="patch_58">
    <path clip-path="url(#p992e1f037a)" d="M 174.649284 332.411302 
L 186.150048 332.411302 
L 186.150048 312.596198 
L 174.649284 312.596198 
z
" style="fill:#eddd46;"/>
   </g>
   <g id="patch_59">
    <path clip-path="url(#p992e1f037a)" d="M 187.42791 334.7401 
L 198.928674 334.7401 
L 198.928674 314.599272 
L 187.42791 314.599272 
z
" style="fill:#eddd46;"/>
   </g>
   <g id="patch_60">
    <path clip-path="url(#p992e1f037a)" d="M 200.206536 336.742978 
L 211.7073 336.742978 
L 211.7073 317.785109 
L 200.206536 317.785109 
z
" style="fill:#eddd46;"/>
   </g>
   <g id="patch_61">
    <path clip-path="url(#p992e1f037a)" d="M 212.985162 340.281135 
L 224.485926 340.281135 
L 224.485926 326.595461 
L 212.985162 326.595461 
z
" style="fill:#eddd46;"/>
   </g>
   <g id="patch_62">
    <path clip-path="url(#p992e1f037a)" d="M 225.763788 342.422946 
L 237.264552 342.422946 
L 237.264552 327.627821 
L 225.763788 327.627821 
z
" style="fill:#eddd46;"/>
   </g>
   <g id="patch_63">
    <path clip-path="url(#p992e1f037a)" d="M 238.542414 343.293984 
L 250.043177 343.293984 
L 250.043177 324.587555 
L 238.542414 324.587555 
z
" style="fill:#eddd46;"/>
   </g>
   <g id="patch_64">
    <path clip-path="url(#p992e1f037a)" d="M 251.32104 340.282901 
L 262.821803 340.282901 
L 262.821803 312.350559 
L 251.32104 312.350559 
z
" style="fill:#eddd46;"/>
   </g>
   <g id="patch_65">
    <path clip-path="url(#p992e1f037a)" d="M 264.099666 341.467425 
L 275.600429 341.467425 
L 275.600429 317.423209 
L 264.099666 317.423209 
z
" style="fill:#eddd46;"/>
   </g>
   <g id="patch_66">
    <path clip-path="url(#p992e1f037a)" d="M 276.878292 345.391462 
L 288.379055 345.391462 
L 288.379055 328.577083 
L 276.878292 328.577083 
z
" style="fill:#eddd46;"/>
   </g>
   <g id="patch_67">
    <path clip-path="url(#p992e1f037a)" d="M 289.656918 343.822019 
L 301.157681 343.822019 
L 301.157681 323.836787 
L 289.656918 323.836787 
z
" style="fill:#eddd46;"/>
   </g>
   <g id="patch_68">
    <path clip-path="url(#p992e1f037a)" d="M 302.435544 349.279989 
L 313.936307 349.279989 
L 313.936307 331.871597 
L 302.435544 331.871597 
z
" style="fill:#eddd46;"/>
   </g>
   <g id="patch_69">
    <path clip-path="url(#p992e1f037a)" d="M 315.21417 343.475542 
L 326.714933 343.475542 
L 326.714933 319.941949 
L 315.21417 319.941949 
z
" style="fill:#eddd46;"/>
   </g>
   <g id="patch_70">
    <path clip-path="url(#p992e1f037a)" d="M 327.992796 339.815889 
L 339.493559 339.815889 
L 339.493559 320.804787 
L 327.992796 320.804787 
z
" style="fill:#eddd46;"/>
   </g>
   <g id="patch_71">
    <path clip-path="url(#p992e1f037a)" d="M 340.771422 339.005377 
L 352.272185 339.005377 
L 352.272185 321.710328 
L 340.771422 321.710328 
z
" style="fill:#eddd46;"/>
   </g>
   <g id="patch_72">
    <path clip-path="url(#p992e1f037a)" d="M 353.550048 336.421892 
L 365.050811 336.421892 
L 365.050811 317.533785 
L 353.550048 317.533785 
z
" style="fill:#eddd46;"/>
   </g>
   <g id="patch_73">
    <path clip-path="url(#p992e1f037a)" d="M 366.328674 341.673158 
L 377.829437 341.673158 
L 377.829437 325.034514 
L 366.328674 325.034514 
z
" style="fill:#eddd46;"/>
   </g>
   <g id="patch_74">
    <path clip-path="url(#p992e1f037a)" d="M 379.1073 342.267984 
L 390.608063 342.267984 
L 390.608063 327.391536 
L 379.1073 327.391536 
z
" style="fill:#eddd46;"/>
   </g>
   <g id="patch_75">
    <path clip-path="url(#p992e1f037a)" d="M 391.885926 344.15531 
L 403.386689 344.15531 
L 403.386689 327.945619 
L 391.885926 327.945619 
z
" style="fill:#eddd46;"/>
   </g>
   <g id="patch_76">
    <path clip-path="url(#p992e1f037a)" d="M 404.664552 348.09521 
L 416.165315 348.09521 
L 416.165315 329.771386 
L 404.664552 329.771386 
z
" style="fill:#eddd46;"/>
   </g>
   <g id="patch_77">
    <path clip-path="url(#p992e1f037a)" d="M 417.443177 351.186366 
L 428.943941 351.186366 
L 428.943941 337.058266 
L 417.443177 337.058266 
z
" style="fill:#eddd46;"/>
   </g>
   <g id="patch_78">
    <path clip-path="url(#p992e1f037a)" d="M 430.221803 347.840391 
L 441.722567 347.840391 
L 441.722567 333.284233 
L 430.221803 333.284233 
z
" style="fill:#eddd46;"/>
   </g>
   <g id="patch_79">
    <path clip-path="url(#p992e1f037a)" d="M 443.000429 347.508277 
L 454.501193 347.508277 
L 454.501193 332.298893 
L 443.000429 332.298893 
z
" style="fill:#eddd46;"/>
   </g>
   <g id="patch_80">
    <path clip-path="url(#p992e1f037a)" d="M 455.779055 352.101917 
L 467.279819 352.101917 
L 467.279819 339.712569 
L 455.779055 339.712569 
z
" style="fill:#eddd46;"/>
   </g>
   <g id="patch_81">
    <path clip-path="url(#p992e1f037a)" d="M 468.557681 348.912474 
L 480.058445 348.912474 
L 480.058445 334.304855 
L 468.557681 334.304855 
z
" style="fill:#eddd46;"/>
   </g>
   <g id="patch_82">
    <path clip-path="url(#p992e1f037a)" d="M 481.336307 343.164126 
L 492.837071 343.164126 
L 492.837071 328.567887 
L 481.336307 328.567887 
z
" style="fill:#eddd46;"/>
   </g>
   <g id="patch_83">
    <path clip-path="url(#p992e1f037a)" d="M 494.114933 341.900015 
L 505.615697 341.900015 
L 505.615697 326.52688 
L 494.114933 326.52688 
z
" style="fill:#eddd46;"/>
   </g>
   <g id="patch_84">
    <path clip-path="url(#p992e1f037a)" d="M 506.893559 340.561559 
L 518.394323 340.561559 
L 518.394323 325.320771 
L 506.893559 325.320771 
z
" style="fill:#eddd46;"/>
   </g>
   <g id="patch_85">
    <path clip-path="url(#p992e1f037a)" d="M 519.672185 344.647413 
L 531.172948 344.647413 
L 531.172948 332.163201 
L 519.672185 332.163201 
z
" style="fill:#eddd46;"/>
   </g>
   <g id="patch_86">
    <path clip-path="url(#p992e1f037a)" d="M 532.450811 340.497772 
L 543.951574 340.497772 
L 543.951574 321.533643 
L 532.450811 321.533643 
z
" style="fill:#eddd46;"/>
   </g>
   <g id="patch_87">
    <path clip-path="url(#p992e1f037a)" d="M 545.229437 335.250857 
L 556.7302 335.250857 
L 556.7302 309.180042 
L 545.229437 309.180042 
z
" style="fill:#eddd46;"/>
   </g>
   <g id="patch_88">
    <path clip-path="url(#p992e1f037a)" d="M 558.008063 341.600307 
L 569.508826 341.600307 
L 569.508826 319.76379 
L 558.008063 319.76379 
z
" style="fill:#eddd46;"/>
   </g>
   <g id="patch_89">
    <path clip-path="url(#p992e1f037a)" d="M 570.786689 333.498901 
L 582.287452 333.498901 
L 582.287452 304.28443 
L 570.786689 304.28443 
z
" style="fill:#eddd46;"/>
   </g>
   <g id="patch_90">
    <path clip-path="url(#p992e1f037a)" d="M 583.565315 322.797153 
L 595.066078 322.797153 
L 595.066078 289.320867 
L 583.565315 289.320867 
z
" style="fill:#eddd46;"/>
   </g>
   <g id="patch_91">
    <path clip-path="url(#p992e1f037a)" d="M 596.343941 330.669088 
L 607.844704 330.669088 
L 607.844704 305.861886 
L 596.343941 305.861886 
z
" style="fill:#eddd46;"/>
   </g>
   <g id="patch_92">
    <path clip-path="url(#p992e1f037a)" d="M 609.122567 335.633509 
L 620.62333 335.633509 
L 620.62333 309.600243 
L 609.122567 309.600243 
z
" style="fill:#eddd46;"/>
   </g>
   <g id="patch_93">
    <path clip-path="url(#p992e1f037a)" d="M 621.901193 333.351225 
L 633.401956 333.351225 
L 633.401956 308.047111 
L 621.901193 308.047111 
z
" style="fill:#eddd46;"/>
   </g>
   <g id="patch_94">
    <path clip-path="url(#p992e1f037a)" d="M 634.679819 329.089898 
L 646.180582 329.089898 
L 646.180582 301.978671 
L 634.679819 301.978671 
z
" style="fill:#eddd46;"/>
   </g>
   <g id="patch_95">
    <path clip-path="url(#p992e1f037a)" d="M 647.458445 325.983522 
L 658.959208 325.983522 
L 658.959208 296.734168 
L 647.458445 296.734168 
z
" style="fill:#eddd46;"/>
   </g>
   <g id="patch_96">
    <path clip-path="url(#p992e1f037a)" d="M 660.237071 327.101447 
L 671.737834 327.101447 
L 671.737834 299.460716 
L 660.237071 299.460716 
z
" style="fill:#eddd46;"/>
   </g>
   <g id="patch_97">
    <path clip-path="url(#p992e1f037a)" d="M 673.015697 327.192246 
L 684.51646 327.192246 
L 684.51646 303.312346 
L 673.015697 303.312346 
z
" style="fill:#eddd46;"/>
   </g>
   <g id="patch_98">
    <path clip-path="url(#p992e1f037a)" d="M 685.794323 324.968457 
L 697.295086 324.968457 
L 697.295086 296.395537 
L 685.794323 296.395537 
z
" style="fill:#eddd46;"/>
   </g>
   <g id="patch_99">
    <path clip-path="url(#p992e1f037a)" d="M 698.572948 328.198673 
L 710.073712 328.198673 
L 710.073712 297.135195 
L 698.572948 297.135195 
z
" style="fill:#eddd46;"/>
   </g>
   <g id="patch_100">
    <path clip-path="url(#p992e1f037a)" d="M 711.351574 335.222611 
L 722.852338 335.222611 
L 722.852338 303.639056 
L 711.351574 303.639056 
z
" style="fill:#eddd46;"/>
   </g>
   <g id="patch_101">
    <path clip-path="url(#p992e1f037a)" d="M 724.1302 336.876341 
L 735.630964 336.876341 
L 735.630964 305.288108 
L 724.1302 305.288108 
z
" style="fill:#eddd46;"/>
   </g>
   <g id="patch_102">
    <path clip-path="url(#p992e1f037a)" d="M 736.908826 335.419593 
L 748.40959 335.419593 
L 748.40959 307.823233 
L 736.908826 307.823233 
z
" style="fill:#eddd46;"/>
   </g>
   <g id="patch_103">
    <path clip-path="url(#p992e1f037a)" d="M 749.687452 338.256924 
L 761.188216 338.256924 
L 761.188216 310.074123 
L 749.687452 310.074123 
z
" style="fill:#eddd46;"/>
   </g>
   <g id="patch_104">
    <path clip-path="url(#p992e1f037a)" d="M 762.466078 337.936931 
L 773.966842 337.936931 
L 773.966842 304.690355 
L 762.466078 304.690355 
z
" style="fill:#eddd46;"/>
   </g>
   <g id="patch_105">
    <path clip-path="url(#p992e1f037a)" d="M 775.244704 329.730838 
L 786.745468 329.730838 
L 786.745468 303.157421 
L 775.244704 303.157421 
z
" style="fill:#eddd46;"/>
   </g>
   <g id="patch_106">
    <path clip-path="url(#p992e1f037a)" d="M 788.02333 334.431746 
L 799.524094 334.431746 
L 799.524094 309.329696 
L 788.02333 309.329696 
z
" style="fill:#eddd46;"/>
   </g>
   <g id="patch_107">
    <path clip-path="url(#p992e1f037a)" d="M 136.313406 346.90923 
L 147.81417 346.90923 
L 147.81417 306.659844 
L 136.313406 306.659844 
z
" style="fill:#90cd97;"/>
   </g>
   <g id="patch_108">
    <path clip-path="url(#p992e1f037a)" d="M 149.092032 328.243174 
L 160.592796 328.243174 
L 160.592796 259.832501 
L 149.092032 259.832501 
z
" style="fill:#90cd97;"/>
   </g>
   <g id="patch_109">
    <path clip-path="url(#p992e1f037a)" d="M 161.870658 313.770587 
L 173.371422 313.770587 
L 173.371422 230.032124 
L 161.870658 230.032124 
z
" style="fill:#90cd97;"/>
   </g>
   <g id="patch_110">
    <path clip-path="url(#p992e1f037a)" d="M 174.649284 312.596198 
L 186.150048 312.596198 
L 186.150048 222.285212 
L 174.649284 222.285212 
z
" style="fill:#90cd97;"/>
   </g>
   <g id="patch_111">
    <path clip-path="url(#p992e1f037a)" d="M 187.42791 314.599272 
L 198.928674 314.599272 
L 198.928674 227.210136 
L 187.42791 227.210136 
z
" style="fill:#90cd97;"/>
   </g>
   <g id="patch_112">
    <path clip-path="url(#p992e1f037a)" d="M 200.206536 317.785109 
L 211.7073 317.785109 
L 211.7073 238.207143 
L 200.206536 238.207143 
z
" style="fill:#90cd97;"/>
   </g>
   <g id="patch_113">
    <path clip-path="url(#p992e1f037a)" d="M 212.985162 326.595461 
L 224.485926 326.595461 
L 224.485926 272.845652 
L 212.985162 272.845652 
z
" style="fill:#90cd97;"/>
   </g>
   <g id="patch_114">
    <path clip-path="url(#p992e1f037a)" d="M 225.763788 327.627821 
L 237.264552 327.627821 
L 237.264552 267.10992 
L 225.763788 267.10992 
z
" style="fill:#90cd97;"/>
   </g>
   <g id="patch_115">
    <path clip-path="url(#p992e1f037a)" d="M 238.542414 324.587555 
L 250.043177 324.587555 
L 250.043177 260.962568 
L 238.542414 260.962568 
z
" style="fill:#90cd97;"/>
   </g>
   <g id="patch_116">
    <path clip-path="url(#p992e1f037a)" d="M 251.32104 312.350559 
L 262.821803 312.350559 
L 262.821803 240.005734 
L 251.32104 240.005734 
z
" style="fill:#90cd97;"/>
   </g>
   <g id="patch_117">
    <path clip-path="url(#p992e1f037a)" d="M 264.099666 317.423209 
L 275.600429 317.423209 
L 275.600429 245.114437 
L 264.099666 245.114437 
z
" style="fill:#90cd97;"/>
   </g>
   <g id="patch_118">
    <path clip-path="url(#p992e1f037a)" d="M 276.878292 328.577083 
L 288.379055 328.577083 
L 288.379055 265.865468 
L 276.878292 265.865468 
z
" style="fill:#90cd97;"/>
   </g>
   <g id="patch_119">
    <path clip-path="url(#p992e1f037a)" d="M 289.656918 323.836787 
L 301.157681 323.836787 
L 301.157681 234.494959 
L 289.656918 234.494959 
z
" style="fill:#90cd97;"/>
   </g>
   <g id="patch_120">
    <path clip-path="url(#p992e1f037a)" d="M 302.435544 331.871597 
L 313.936307 331.871597 
L 313.936307 278.199867 
L 302.435544 278.199867 
z
" style="fill:#90cd97;"/>
   </g>
   <g id="patch_121">
    <path clip-path="url(#p992e1f037a)" d="M 315.21417 319.941949 
L 326.714933 319.941949 
L 326.714933 245.558893 
L 315.21417 245.558893 
z
" style="fill:#90cd97;"/>
   </g>
   <g id="patch_122">
    <path clip-path="url(#p992e1f037a)" d="M 327.992796 320.804787 
L 339.493559 320.804787 
L 339.493559 246.828961 
L 327.992796 246.828961 
z
" style="fill:#90cd97;"/>
   </g>
   <g id="patch_123">
    <path clip-path="url(#p992e1f037a)" d="M 340.771422 321.710328 
L 352.272185 321.710328 
L 352.272185 248.382653 
L 340.771422 248.382653 
z
" style="fill:#90cd97;"/>
   </g>
   <g id="patch_124">
    <path clip-path="url(#p992e1f037a)" d="M 353.550048 317.533785 
L 365.050811 317.533785 
L 365.050811 256.037223 
L 353.550048 256.037223 
z
" style="fill:#90cd97;"/>
   </g>
   <g id="patch_125">
    <path clip-path="url(#p992e1f037a)" d="M 366.328674 325.034514 
L 377.829437 325.034514 
L 377.829437 273.844653 
L 366.328674 273.844653 
z
" style="fill:#90cd97;"/>
   </g>
   <g id="patch_126">
    <path clip-path="url(#p992e1f037a)" d="M 379.1073 327.391536 
L 390.608063 327.391536 
L 390.608063 279.496462 
L 379.1073 279.496462 
z
" style="fill:#90cd97;"/>
   </g>
   <g id="patch_127">
    <path clip-path="url(#p992e1f037a)" d="M 391.885926 327.945619 
L 403.386689 327.945619 
L 403.386689 279.13337 
L 391.885926 279.13337 
z
" style="fill:#90cd97;"/>
   </g>
   <g id="patch_128">
    <path clip-path="url(#p992e1f037a)" d="M 404.664552 329.771386 
L 416.165315 329.771386 
L 416.165315 281.02258 
L 404.664552 281.02258 
z
" style="fill:#90cd97;"/>
   </g>
   <g id="patch_129">
    <path clip-path="url(#p992e1f037a)" d="M 417.443177 337.058266 
L 428.943941 337.058266 
L 428.943941 292.418218 
L 417.443177 292.418218 
z
" style="fill:#90cd97;"/>
   </g>
   <g id="patch_130">
    <path clip-path="url(#p992e1f037a)" d="M 430.221803 333.284233 
L 441.722567 333.284233 
L 441.722567 277.413387 
L 430.221803 277.413387 
z
" style="fill:#90cd97;"/>
   </g>
   <g id="patch_131">
    <path clip-path="url(#p992e1f037a)" d="M 443.000429 332.298893 
L 454.501193 332.298893 
L 454.501193 274.295064 
L 443.000429 274.295064 
z
" style="fill:#90cd97;"/>
   </g>
   <g id="patch_132">
    <path clip-path="url(#p992e1f037a)" d="M 455.779055 339.712569 
L 467.279819 339.712569 
L 467.279819 277.759308 
L 455.779055 277.759308 
z
" style="fill:#90cd97;"/>
   </g>
   <g id="patch_133">
    <path clip-path="url(#p992e1f037a)" d="M 468.557681 334.304855 
L 480.058445 334.304855 
L 480.058445 264.095342 
L 468.557681 264.095342 
z
" style="fill:#90cd97;"/>
   </g>
   <g id="patch_134">
    <path clip-path="url(#p992e1f037a)" d="M 481.336307 328.567887 
L 492.837071 328.567887 
L 492.837071 277.520512 
L 481.336307 277.520512 
z
" style="fill:#90cd97;"/>
   </g>
   <g id="patch_135">
    <path clip-path="url(#p992e1f037a)" d="M 494.114933 326.52688 
L 505.615697 326.52688 
L 505.615697 270.037502 
L 494.114933 270.037502 
z
" style="fill:#90cd97;"/>
   </g>
   <g id="patch_136">
    <path clip-path="url(#p992e1f037a)" d="M 506.893559 325.320771 
L 518.394323 325.320771 
L 518.394323 275.061355 
L 506.893559 275.061355 
z
" style="fill:#90cd97;"/>
   </g>
   <g id="patch_137">
    <path clip-path="url(#p992e1f037a)" d="M 519.672185 332.163201 
L 531.172948 332.163201 
L 531.172948 286.304403 
L 519.672185 286.304403 
z
" style="fill:#90cd97;"/>
   </g>
   <g id="patch_138">
    <path clip-path="url(#p992e1f037a)" d="M 532.450811 321.533643 
L 543.951574 321.533643 
L 543.951574 249.742269 
L 532.450811 249.742269 
z
" style="fill:#90cd97;"/>
   </g>
   <g id="patch_139">
    <path clip-path="url(#p992e1f037a)" d="M 545.229437 309.180042 
L 556.7302 309.180042 
L 556.7302 204.959278 
L 545.229437 204.959278 
z
" style="fill:#90cd97;"/>
   </g>
   <g id="patch_140">
    <path clip-path="url(#p992e1f037a)" d="M 558.008063 319.76379 
L 569.508826 319.76379 
L 569.508826 208.509281 
L 558.008063 208.509281 
z
" style="fill:#90cd97;"/>
   </g>
   <g id="patch_141">
    <path clip-path="url(#p992e1f037a)" d="M 570.786689 304.28443 
L 582.287452 304.28443 
L 582.287452 141.280534 
L 570.786689 141.280534 
z
" style="fill:#90cd97;"/>
   </g>
   <g id="patch_142">
    <path clip-path="url(#p992e1f037a)" d="M 583.565315 289.320867 
L 595.066078 289.320867 
L 595.066078 102.608168 
L 583.565315 102.608168 
z
" style="fill:#90cd97;"/>
   </g>
   <g id="patch_143">
    <path clip-path="url(#p992e1f037a)" d="M 596.343941 305.861886 
L 607.844704 305.861886 
L 607.844704 177.654913 
L 596.343941 177.654913 
z
" style="fill:#90cd97;"/>
   </g>
   <g id="patch_144">
    <path clip-path="url(#p992e1f037a)" d="M 609.122567 309.600243 
L 620.62333 309.600243 
L 620.62333 189.236481 
L 609.122567 189.236481 
z
" style="fill:#90cd97;"/>
   </g>
   <g id="patch_145">
    <path clip-path="url(#p992e1f037a)" d="M 621.901193 308.047111 
L 633.401956 308.047111 
L 633.401956 215.215141 
L 621.901193 215.215141 
z
" style="fill:#90cd97;"/>
   </g>
   <g id="patch_146">
    <path clip-path="url(#p992e1f037a)" d="M 634.679819 301.978671 
L 646.180582 301.978671 
L 646.180582 211.834508 
L 634.679819 211.834508 
z
" style="fill:#90cd97;"/>
   </g>
   <g id="patch_147">
    <path clip-path="url(#p992e1f037a)" d="M 647.458445 296.734168 
L 658.959208 296.734168 
L 658.959208 208.60956 
L 647.458445 208.60956 
z
" style="fill:#90cd97;"/>
   </g>
   <g id="patch_148">
    <path clip-path="url(#p992e1f037a)" d="M 660.237071 299.460716 
L 671.737834 299.460716 
L 671.737834 222.354478 
L 660.237071 222.354478 
z
" style="fill:#90cd97;"/>
   </g>
   <g id="patch_149">
    <path clip-path="url(#p992e1f037a)" d="M 673.015697 303.312346 
L 684.51646 303.312346 
L 684.51646 226.730745 
L 673.015697 226.730745 
z
" style="fill:#90cd97;"/>
   </g>
   <g id="patch_150">
    <path clip-path="url(#p992e1f037a)" d="M 685.794323 296.395537 
L 697.295086 296.395537 
L 697.295086 203.867279 
L 685.794323 203.867279 
z
" style="fill:#90cd97;"/>
   </g>
   <g id="patch_151">
    <path clip-path="url(#p992e1f037a)" d="M 698.572948 297.135195 
L 710.073712 297.135195 
L 710.073712 216.823498 
L 698.572948 216.823498 
z
" style="fill:#90cd97;"/>
   </g>
   <g id="patch_152">
    <path clip-path="url(#p992e1f037a)" d="M 711.351574 303.639056 
L 722.852338 303.639056 
L 722.852338 229.298297 
L 711.351574 229.298297 
z
" style="fill:#90cd97;"/>
   </g>
   <g id="patch_153">
    <path clip-path="url(#p992e1f037a)" d="M 724.1302 305.288108 
L 735.630964 305.288108 
L 735.630964 209.089028 
L 724.1302 209.089028 
z
" style="fill:#90cd97;"/>
   </g>
   <g id="patch_154">
    <path clip-path="url(#p992e1f037a)" d="M 736.908826 307.823233 
L 748.40959 307.823233 
L 748.40959 226.603395 
L 736.908826 226.603395 
z
" style="fill:#90cd97;"/>
   </g>
   <g id="patch_155">
    <path clip-path="url(#p992e1f037a)" d="M 749.687452 310.074123 
L 761.188216 310.074123 
L 761.188216 217.527472 
L 749.687452 217.527472 
z
" style="fill:#90cd97;"/>
   </g>
   <g id="patch_156">
    <path clip-path="url(#p992e1f037a)" d="M 762.466078 304.690355 
L 773.966842 304.690355 
L 773.966842 214.806043 
L 762.466078 214.806043 
z
" style="fill:#90cd97;"/>
   </g>
   <g id="patch_157">
    <path clip-path="url(#p992e1f037a)" d="M 775.244704 303.157421 
L 786.745468 303.157421 
L 786.745468 224.393755 
L 775.244704 224.393755 
z
" style="fill:#90cd97;"/>
   </g>
   <g id="patch_158">
    <path clip-path="url(#p992e1f037a)" d="M 788.02333 309.329696 
L 799.524094 309.329696 
L 799.524094 190.291547 
L 788.02333 190.291547 
z
" style="fill:#90cd97;"/>
   </g>
   <g id="matplotlib.axis_1">
    <g id="xtick_1">
     <g id="line2d_1">
      <defs>
       <path d="M 0 0 
L 0 3.5 
" id="m9b292720a3" style="stroke:#000000;stroke-width:0.8;"/>
      </defs>
      <g>
       <use style="stroke:#000000;stroke-width:0.8;" x="142.063788" xlink:href="#m9b292720a3" y="362.394375"/>
      </g>
     </g>
     <g id="text_1">
      <!-- 2017-09 -->
      <g transform="translate(144.823163 411.177188)rotate(-90)scale(0.1 -0.1)">
       <defs>
        <path d="M 1228 531 
L 3431 531 
L 3431 0 
L 469 0 
L 469 531 
Q 828 903 1448 1529 
Q 2069 2156 2228 2338 
Q 2531 2678 2651 2914 
Q 2772 3150 2772 3378 
Q 2772 3750 2511 3984 
Q 2250 4219 1831 4219 
Q 1534 4219 1204 4116 
Q 875 4013 500 3803 
L 500 4441 
Q 881 4594 1212 4672 
Q 1544 4750 1819 4750 
Q 2544 4750 2975 4387 
Q 3406 4025 3406 3419 
Q 3406 3131 3298 2873 
Q 3191 2616 2906 2266 
Q 2828 2175 2409 1742 
Q 1991 1309 1228 531 
z
" id="DejaVuSans-32" transform="scale(0.015625)"/>
        <path d="M 2034 4250 
Q 1547 4250 1301 3770 
Q 1056 3291 1056 2328 
Q 1056 1369 1301 889 
Q 1547 409 2034 409 
Q 2525 409 2770 889 
Q 3016 1369 3016 2328 
Q 3016 3291 2770 3770 
Q 2525 4250 2034 4250 
z
M 2034 4750 
Q 2819 4750 3233 4129 
Q 3647 3509 3647 2328 
Q 3647 1150 3233 529 
Q 2819 -91 2034 -91 
Q 1250 -91 836 529 
Q 422 1150 422 2328 
Q 422 3509 836 4129 
Q 1250 4750 2034 4750 
z
" id="DejaVuSans-30" transform="scale(0.015625)"/>
        <path d="M 794 531 
L 1825 531 
L 1825 4091 
L 703 3866 
L 703 4441 
L 1819 4666 
L 2450 4666 
L 2450 531 
L 3481 531 
L 3481 0 
L 794 0 
L 794 531 
z
" id="DejaVuSans-31" transform="scale(0.015625)"/>
        <path d="M 525 4666 
L 3525 4666 
L 3525 4397 
L 1831 0 
L 1172 0 
L 2766 4134 
L 525 4134 
L 525 4666 
z
" id="DejaVuSans-37" transform="scale(0.015625)"/>
        <path d="M 313 2009 
L 1997 2009 
L 1997 1497 
L 313 1497 
L 313 2009 
z
" id="DejaVuSans-2d" transform="scale(0.015625)"/>
        <path d="M 703 97 
L 703 672 
Q 941 559 1184 500 
Q 1428 441 1663 441 
Q 2288 441 2617 861 
Q 2947 1281 2994 2138 
Q 2813 1869 2534 1725 
Q 2256 1581 1919 1581 
Q 1219 1581 811 2004 
Q 403 2428 403 3163 
Q 403 3881 828 4315 
Q 1253 4750 1959 4750 
Q 2769 4750 3195 4129 
Q 3622 3509 3622 2328 
Q 3622 1225 3098 567 
Q 2575 -91 1691 -91 
Q 1453 -91 1209 -44 
Q 966 3 703 97 
z
M 1959 2075 
Q 2384 2075 2632 2365 
Q 2881 2656 2881 3163 
Q 2881 3666 2632 3958 
Q 2384 4250 1959 4250 
Q 1534 4250 1286 3958 
Q 1038 3666 1038 3163 
Q 1038 2656 1286 2365 
Q 1534 2075 1959 2075 
z
" id="DejaVuSans-39" transform="scale(0.015625)"/>
       </defs>
       <use xlink:href="#DejaVuSans-32"/>
       <use x="63.623047" xlink:href="#DejaVuSans-30"/>
       <use x="127.246094" xlink:href="#DejaVuSans-31"/>
       <use x="190.869141" xlink:href="#DejaVuSans-37"/>
       <use x="254.492188" xlink:href="#DejaVuSans-2d"/>
       <use x="290.576172" xlink:href="#DejaVuSans-30"/>
       <use x="354.199219" xlink:href="#DejaVuSans-39"/>
      </g>
     </g>
    </g>
    <g id="xtick_2">
     <g id="line2d_2">
      <g>
       <use style="stroke:#000000;stroke-width:0.8;" x="154.842414" xlink:href="#m9b292720a3" y="362.394375"/>
      </g>
     </g>
     <g id="text_2">
      <!-- 2017-10 -->
      <g transform="translate(157.601789 411.177188)rotate(-90)scale(0.1 -0.1)">
       <use xlink:href="#DejaVuSans-32"/>
       <use x="63.623047" xlink:href="#DejaVuSans-30"/>
       <use x="127.246094" xlink:href="#DejaVuSans-31"/>
       <use x="190.869141" xlink:href="#DejaVuSans-37"/>
       <use x="254.492188" xlink:href="#DejaVuSans-2d"/>
       <use x="290.576172" xlink:href="#DejaVuSans-31"/>
       <use x="354.199219" xlink:href="#DejaVuSans-30"/>
      </g>
     </g>
    </g>
    <g id="xtick_3">
     <g id="line2d_3">
      <g>
       <use style="stroke:#000000;stroke-width:0.8;" x="167.62104" xlink:href="#m9b292720a3" y="362.394375"/>
      </g>
     </g>
     <g id="text_3">
      <!-- 2017-11 -->
      <g transform="translate(170.380415 411.177188)rotate(-90)scale(0.1 -0.1)">
       <use xlink:href="#DejaVuSans-32"/>
       <use x="63.623047" xlink:href="#DejaVuSans-30"/>
       <use x="127.246094" xlink:href="#DejaVuSans-31"/>
       <use x="190.869141" xlink:href="#DejaVuSans-37"/>
       <use x="254.492188" xlink:href="#DejaVuSans-2d"/>
       <use x="290.576172" xlink:href="#DejaVuSans-31"/>
       <use x="354.199219" xlink:href="#DejaVuSans-31"/>
      </g>
     </g>
    </g>
    <g id="xtick_4">
     <g id="line2d_4">
      <g>
       <use style="stroke:#000000;stroke-width:0.8;" x="180.399666" xlink:href="#m9b292720a3" y="362.394375"/>
      </g>
     </g>
     <g id="text_4">
      <!-- 2017-12 -->
      <g transform="translate(183.159041 411.177188)rotate(-90)scale(0.1 -0.1)">
       <use xlink:href="#DejaVuSans-32"/>
       <use x="63.623047" xlink:href="#DejaVuSans-30"/>
       <use x="127.246094" xlink:href="#DejaVuSans-31"/>
       <use x="190.869141" xlink:href="#DejaVuSans-37"/>
       <use x="254.492188" xlink:href="#DejaVuSans-2d"/>
       <use x="290.576172" xlink:href="#DejaVuSans-31"/>
       <use x="354.199219" xlink:href="#DejaVuSans-32"/>
      </g>
     </g>
    </g>
    <g id="xtick_5">
     <g id="line2d_5">
      <g>
       <use style="stroke:#000000;stroke-width:0.8;" x="193.178292" xlink:href="#m9b292720a3" y="362.394375"/>
      </g>
     </g>
     <g id="text_5">
      <!-- 2018-01 -->
      <g transform="translate(195.937667 411.177188)rotate(-90)scale(0.1 -0.1)">
       <defs>
        <path d="M 2034 2216 
Q 1584 2216 1326 1975 
Q 1069 1734 1069 1313 
Q 1069 891 1326 650 
Q 1584 409 2034 409 
Q 2484 409 2743 651 
Q 3003 894 3003 1313 
Q 3003 1734 2745 1975 
Q 2488 2216 2034 2216 
z
M 1403 2484 
Q 997 2584 770 2862 
Q 544 3141 544 3541 
Q 544 4100 942 4425 
Q 1341 4750 2034 4750 
Q 2731 4750 3128 4425 
Q 3525 4100 3525 3541 
Q 3525 3141 3298 2862 
Q 3072 2584 2669 2484 
Q 3125 2378 3379 2068 
Q 3634 1759 3634 1313 
Q 3634 634 3220 271 
Q 2806 -91 2034 -91 
Q 1263 -91 848 271 
Q 434 634 434 1313 
Q 434 1759 690 2068 
Q 947 2378 1403 2484 
z
M 1172 3481 
Q 1172 3119 1398 2916 
Q 1625 2713 2034 2713 
Q 2441 2713 2670 2916 
Q 2900 3119 2900 3481 
Q 2900 3844 2670 4047 
Q 2441 4250 2034 4250 
Q 1625 4250 1398 4047 
Q 1172 3844 1172 3481 
z
" id="DejaVuSans-38" transform="scale(0.015625)"/>
       </defs>
       <use xlink:href="#DejaVuSans-32"/>
       <use x="63.623047" xlink:href="#DejaVuSans-30"/>
       <use x="127.246094" xlink:href="#DejaVuSans-31"/>
       <use x="190.869141" xlink:href="#DejaVuSans-38"/>
       <use x="254.492188" xlink:href="#DejaVuSans-2d"/>
       <use x="290.576172" xlink:href="#DejaVuSans-30"/>
       <use x="354.199219" xlink:href="#DejaVuSans-31"/>
      </g>
     </g>
    </g>
    <g id="xtick_6">
     <g id="line2d_6">
      <g>
       <use style="stroke:#000000;stroke-width:0.8;" x="205.956918" xlink:href="#m9b292720a3" y="362.394375"/>
      </g>
     </g>
     <g id="text_6">
      <!-- 2018-02 -->
      <g transform="translate(208.716293 411.177188)rotate(-90)scale(0.1 -0.1)">
       <use xlink:href="#DejaVuSans-32"/>
       <use x="63.623047" xlink:href="#DejaVuSans-30"/>
       <use x="127.246094" xlink:href="#DejaVuSans-31"/>
       <use x="190.869141" xlink:href="#DejaVuSans-38"/>
       <use x="254.492188" xlink:href="#DejaVuSans-2d"/>
       <use x="290.576172" xlink:href="#DejaVuSans-30"/>
       <use x="354.199219" xlink:href="#DejaVuSans-32"/>
      </g>
     </g>
    </g>
    <g id="xtick_7">
     <g id="line2d_7">
      <g>
       <use style="stroke:#000000;stroke-width:0.8;" x="218.735544" xlink:href="#m9b292720a3" y="362.394375"/>
      </g>
     </g>
     <g id="text_7">
      <!-- 2018-03 -->
      <g transform="translate(221.494919 411.177188)rotate(-90)scale(0.1 -0.1)">
       <defs>
        <path d="M 2597 2516 
Q 3050 2419 3304 2112 
Q 3559 1806 3559 1356 
Q 3559 666 3084 287 
Q 2609 -91 1734 -91 
Q 1441 -91 1130 -33 
Q 819 25 488 141 
L 488 750 
Q 750 597 1062 519 
Q 1375 441 1716 441 
Q 2309 441 2620 675 
Q 2931 909 2931 1356 
Q 2931 1769 2642 2001 
Q 2353 2234 1838 2234 
L 1294 2234 
L 1294 2753 
L 1863 2753 
Q 2328 2753 2575 2939 
Q 2822 3125 2822 3475 
Q 2822 3834 2567 4026 
Q 2313 4219 1838 4219 
Q 1578 4219 1281 4162 
Q 984 4106 628 3988 
L 628 4550 
Q 988 4650 1302 4700 
Q 1616 4750 1894 4750 
Q 2613 4750 3031 4423 
Q 3450 4097 3450 3541 
Q 3450 3153 3228 2886 
Q 3006 2619 2597 2516 
z
" id="DejaVuSans-33" transform="scale(0.015625)"/>
       </defs>
       <use xlink:href="#DejaVuSans-32"/>
       <use x="63.623047" xlink:href="#DejaVuSans-30"/>
       <use x="127.246094" xlink:href="#DejaVuSans-31"/>
       <use x="190.869141" xlink:href="#DejaVuSans-38"/>
       <use x="254.492188" xlink:href="#DejaVuSans-2d"/>
       <use x="290.576172" xlink:href="#DejaVuSans-30"/>
       <use x="354.199219" xlink:href="#DejaVuSans-33"/>
      </g>
     </g>
    </g>
    <g id="xtick_8">
     <g id="line2d_8">
      <g>
       <use style="stroke:#000000;stroke-width:0.8;" x="231.51417" xlink:href="#m9b292720a3" y="362.394375"/>
      </g>
     </g>
     <g id="text_8">
      <!-- 2018-04 -->
      <g transform="translate(234.273545 411.177188)rotate(-90)scale(0.1 -0.1)">
       <defs>
        <path d="M 2419 4116 
L 825 1625 
L 2419 1625 
L 2419 4116 
z
M 2253 4666 
L 3047 4666 
L 3047 1625 
L 3713 1625 
L 3713 1100 
L 3047 1100 
L 3047 0 
L 2419 0 
L 2419 1100 
L 313 1100 
L 313 1709 
L 2253 4666 
z
" id="DejaVuSans-34" transform="scale(0.015625)"/>
       </defs>
       <use xlink:href="#DejaVuSans-32"/>
       <use x="63.623047" xlink:href="#DejaVuSans-30"/>
       <use x="127.246094" xlink:href="#DejaVuSans-31"/>
       <use x="190.869141" xlink:href="#DejaVuSans-38"/>
       <use x="254.492188" xlink:href="#DejaVuSans-2d"/>
       <use x="290.576172" xlink:href="#DejaVuSans-30"/>
       <use x="354.199219" xlink:href="#DejaVuSans-34"/>
      </g>
     </g>
    </g>
    <g id="xtick_9">
     <g id="line2d_9">
      <g>
       <use style="stroke:#000000;stroke-width:0.8;" x="244.292796" xlink:href="#m9b292720a3" y="362.394375"/>
      </g>
     </g>
     <g id="text_9">
      <!-- 2018-05 -->
      <g transform="translate(247.052171 411.177188)rotate(-90)scale(0.1 -0.1)">
       <defs>
        <path d="M 691 4666 
L 3169 4666 
L 3169 4134 
L 1269 4134 
L 1269 2991 
Q 1406 3038 1543 3061 
Q 1681 3084 1819 3084 
Q 2600 3084 3056 2656 
Q 3513 2228 3513 1497 
Q 3513 744 3044 326 
Q 2575 -91 1722 -91 
Q 1428 -91 1123 -41 
Q 819 9 494 109 
L 494 744 
Q 775 591 1075 516 
Q 1375 441 1709 441 
Q 2250 441 2565 725 
Q 2881 1009 2881 1497 
Q 2881 1984 2565 2268 
Q 2250 2553 1709 2553 
Q 1456 2553 1204 2497 
Q 953 2441 691 2322 
L 691 4666 
z
" id="DejaVuSans-35" transform="scale(0.015625)"/>
       </defs>
       <use xlink:href="#DejaVuSans-32"/>
       <use x="63.623047" xlink:href="#DejaVuSans-30"/>
       <use x="127.246094" xlink:href="#DejaVuSans-31"/>
       <use x="190.869141" xlink:href="#DejaVuSans-38"/>
       <use x="254.492188" xlink:href="#DejaVuSans-2d"/>
       <use x="290.576172" xlink:href="#DejaVuSans-30"/>
       <use x="354.199219" xlink:href="#DejaVuSans-35"/>
      </g>
     </g>
    </g>
    <g id="xtick_10">
     <g id="line2d_10">
      <g>
       <use style="stroke:#000000;stroke-width:0.8;" x="257.071422" xlink:href="#m9b292720a3" y="362.394375"/>
      </g>
     </g>
     <g id="text_10">
      <!-- 2018-06 -->
      <g transform="translate(259.830797 411.177188)rotate(-90)scale(0.1 -0.1)">
       <defs>
        <path d="M 2113 2584 
Q 1688 2584 1439 2293 
Q 1191 2003 1191 1497 
Q 1191 994 1439 701 
Q 1688 409 2113 409 
Q 2538 409 2786 701 
Q 3034 994 3034 1497 
Q 3034 2003 2786 2293 
Q 2538 2584 2113 2584 
z
M 3366 4563 
L 3366 3988 
Q 3128 4100 2886 4159 
Q 2644 4219 2406 4219 
Q 1781 4219 1451 3797 
Q 1122 3375 1075 2522 
Q 1259 2794 1537 2939 
Q 1816 3084 2150 3084 
Q 2853 3084 3261 2657 
Q 3669 2231 3669 1497 
Q 3669 778 3244 343 
Q 2819 -91 2113 -91 
Q 1303 -91 875 529 
Q 447 1150 447 2328 
Q 447 3434 972 4092 
Q 1497 4750 2381 4750 
Q 2619 4750 2861 4703 
Q 3103 4656 3366 4563 
z
" id="DejaVuSans-36" transform="scale(0.015625)"/>
       </defs>
       <use xlink:href="#DejaVuSans-32"/>
       <use x="63.623047" xlink:href="#DejaVuSans-30"/>
       <use x="127.246094" xlink:href="#DejaVuSans-31"/>
       <use x="190.869141" xlink:href="#DejaVuSans-38"/>
       <use x="254.492188" xlink:href="#DejaVuSans-2d"/>
       <use x="290.576172" xlink:href="#DejaVuSans-30"/>
       <use x="354.199219" xlink:href="#DejaVuSans-36"/>
      </g>
     </g>
    </g>
    <g id="xtick_11">
     <g id="line2d_11">
      <g>
       <use style="stroke:#000000;stroke-width:0.8;" x="269.850048" xlink:href="#m9b292720a3" y="362.394375"/>
      </g>
     </g>
     <g id="text_11">
      <!-- 2018-07 -->
      <g transform="translate(272.609423 411.177188)rotate(-90)scale(0.1 -0.1)">
       <use xlink:href="#DejaVuSans-32"/>
       <use x="63.623047" xlink:href="#DejaVuSans-30"/>
       <use x="127.246094" xlink:href="#DejaVuSans-31"/>
       <use x="190.869141" xlink:href="#DejaVuSans-38"/>
       <use x="254.492188" xlink:href="#DejaVuSans-2d"/>
       <use x="290.576172" xlink:href="#DejaVuSans-30"/>
       <use x="354.199219" xlink:href="#DejaVuSans-37"/>
      </g>
     </g>
    </g>
    <g id="xtick_12">
     <g id="line2d_12">
      <g>
       <use style="stroke:#000000;stroke-width:0.8;" x="282.628674" xlink:href="#m9b292720a3" y="362.394375"/>
      </g>
     </g>
     <g id="text_12">
      <!-- 2018-08 -->
      <g transform="translate(285.388049 411.177188)rotate(-90)scale(0.1 -0.1)">
       <use xlink:href="#DejaVuSans-32"/>
       <use x="63.623047" xlink:href="#DejaVuSans-30"/>
       <use x="127.246094" xlink:href="#DejaVuSans-31"/>
       <use x="190.869141" xlink:href="#DejaVuSans-38"/>
       <use x="254.492188" xlink:href="#DejaVuSans-2d"/>
       <use x="290.576172" xlink:href="#DejaVuSans-30"/>
       <use x="354.199219" xlink:href="#DejaVuSans-38"/>
      </g>
     </g>
    </g>
    <g id="xtick_13">
     <g id="line2d_13">
      <g>
       <use style="stroke:#000000;stroke-width:0.8;" x="295.4073" xlink:href="#m9b292720a3" y="362.394375"/>
      </g>
     </g>
     <g id="text_13">
      <!-- 2018-09 -->
      <g transform="translate(298.166675 411.177188)rotate(-90)scale(0.1 -0.1)">
       <use xlink:href="#DejaVuSans-32"/>
       <use x="63.623047" xlink:href="#DejaVuSans-30"/>
       <use x="127.246094" xlink:href="#DejaVuSans-31"/>
       <use x="190.869141" xlink:href="#DejaVuSans-38"/>
       <use x="254.492188" xlink:href="#DejaVuSans-2d"/>
       <use x="290.576172" xlink:href="#DejaVuSans-30"/>
       <use x="354.199219" xlink:href="#DejaVuSans-39"/>
      </g>
     </g>
    </g>
    <g id="xtick_14">
     <g id="line2d_14">
      <g>
       <use style="stroke:#000000;stroke-width:0.8;" x="308.185926" xlink:href="#m9b292720a3" y="362.394375"/>
      </g>
     </g>
     <g id="text_14">
      <!-- 2018-10 -->
      <g transform="translate(310.945301 411.177188)rotate(-90)scale(0.1 -0.1)">
       <use xlink:href="#DejaVuSans-32"/>
       <use x="63.623047" xlink:href="#DejaVuSans-30"/>
       <use x="127.246094" xlink:href="#DejaVuSans-31"/>
       <use x="190.869141" xlink:href="#DejaVuSans-38"/>
       <use x="254.492188" xlink:href="#DejaVuSans-2d"/>
       <use x="290.576172" xlink:href="#DejaVuSans-31"/>
       <use x="354.199219" xlink:href="#DejaVuSans-30"/>
      </g>
     </g>
    </g>
    <g id="xtick_15">
     <g id="line2d_15">
      <g>
       <use style="stroke:#000000;stroke-width:0.8;" x="320.964552" xlink:href="#m9b292720a3" y="362.394375"/>
      </g>
     </g>
     <g id="text_15">
      <!-- 2018-11 -->
      <g transform="translate(323.723927 411.177188)rotate(-90)scale(0.1 -0.1)">
       <use xlink:href="#DejaVuSans-32"/>
       <use x="63.623047" xlink:href="#DejaVuSans-30"/>
       <use x="127.246094" xlink:href="#DejaVuSans-31"/>
       <use x="190.869141" xlink:href="#DejaVuSans-38"/>
       <use x="254.492188" xlink:href="#DejaVuSans-2d"/>
       <use x="290.576172" xlink:href="#DejaVuSans-31"/>
       <use x="354.199219" xlink:href="#DejaVuSans-31"/>
      </g>
     </g>
    </g>
    <g id="xtick_16">
     <g id="line2d_16">
      <g>
       <use style="stroke:#000000;stroke-width:0.8;" x="333.743177" xlink:href="#m9b292720a3" y="362.394375"/>
      </g>
     </g>
     <g id="text_16">
      <!-- 2018-12 -->
      <g transform="translate(336.502552 411.177188)rotate(-90)scale(0.1 -0.1)">
       <use xlink:href="#DejaVuSans-32"/>
       <use x="63.623047" xlink:href="#DejaVuSans-30"/>
       <use x="127.246094" xlink:href="#DejaVuSans-31"/>
       <use x="190.869141" xlink:href="#DejaVuSans-38"/>
       <use x="254.492188" xlink:href="#DejaVuSans-2d"/>
       <use x="290.576172" xlink:href="#DejaVuSans-31"/>
       <use x="354.199219" xlink:href="#DejaVuSans-32"/>
      </g>
     </g>
    </g>
    <g id="xtick_17">
     <g id="line2d_17">
      <g>
       <use style="stroke:#000000;stroke-width:0.8;" x="346.521803" xlink:href="#m9b292720a3" y="362.394375"/>
      </g>
     </g>
     <g id="text_17">
      <!-- 2019-01 -->
      <g transform="translate(349.281178 411.177188)rotate(-90)scale(0.1 -0.1)">
       <use xlink:href="#DejaVuSans-32"/>
       <use x="63.623047" xlink:href="#DejaVuSans-30"/>
       <use x="127.246094" xlink:href="#DejaVuSans-31"/>
       <use x="190.869141" xlink:href="#DejaVuSans-39"/>
       <use x="254.492188" xlink:href="#DejaVuSans-2d"/>
       <use x="290.576172" xlink:href="#DejaVuSans-30"/>
       <use x="354.199219" xlink:href="#DejaVuSans-31"/>
      </g>
     </g>
    </g>
    <g id="xtick_18">
     <g id="line2d_18">
      <g>
       <use style="stroke:#000000;stroke-width:0.8;" x="359.300429" xlink:href="#m9b292720a3" y="362.394375"/>
      </g>
     </g>
     <g id="text_18">
      <!-- 2019-02 -->
      <g transform="translate(362.059804 411.177188)rotate(-90)scale(0.1 -0.1)">
       <use xlink:href="#DejaVuSans-32"/>
       <use x="63.623047" xlink:href="#DejaVuSans-30"/>
       <use x="127.246094" xlink:href="#DejaVuSans-31"/>
       <use x="190.869141" xlink:href="#DejaVuSans-39"/>
       <use x="254.492188" xlink:href="#DejaVuSans-2d"/>
       <use x="290.576172" xlink:href="#DejaVuSans-30"/>
       <use x="354.199219" xlink:href="#DejaVuSans-32"/>
      </g>
     </g>
    </g>
    <g id="xtick_19">
     <g id="line2d_19">
      <g>
       <use style="stroke:#000000;stroke-width:0.8;" x="372.079055" xlink:href="#m9b292720a3" y="362.394375"/>
      </g>
     </g>
     <g id="text_19">
      <!-- 2019-03 -->
      <g transform="translate(374.83843 411.177188)rotate(-90)scale(0.1 -0.1)">
       <use xlink:href="#DejaVuSans-32"/>
       <use x="63.623047" xlink:href="#DejaVuSans-30"/>
       <use x="127.246094" xlink:href="#DejaVuSans-31"/>
       <use x="190.869141" xlink:href="#DejaVuSans-39"/>
       <use x="254.492188" xlink:href="#DejaVuSans-2d"/>
       <use x="290.576172" xlink:href="#DejaVuSans-30"/>
       <use x="354.199219" xlink:href="#DejaVuSans-33"/>
      </g>
     </g>
    </g>
    <g id="xtick_20">
     <g id="line2d_20">
      <g>
       <use style="stroke:#000000;stroke-width:0.8;" x="384.857681" xlink:href="#m9b292720a3" y="362.394375"/>
      </g>
     </g>
     <g id="text_20">
      <!-- 2019-04 -->
      <g transform="translate(387.617056 411.177188)rotate(-90)scale(0.1 -0.1)">
       <use xlink:href="#DejaVuSans-32"/>
       <use x="63.623047" xlink:href="#DejaVuSans-30"/>
       <use x="127.246094" xlink:href="#DejaVuSans-31"/>
       <use x="190.869141" xlink:href="#DejaVuSans-39"/>
       <use x="254.492188" xlink:href="#DejaVuSans-2d"/>
       <use x="290.576172" xlink:href="#DejaVuSans-30"/>
       <use x="354.199219" xlink:href="#DejaVuSans-34"/>
      </g>
     </g>
    </g>
    <g id="xtick_21">
     <g id="line2d_21">
      <g>
       <use style="stroke:#000000;stroke-width:0.8;" x="397.636307" xlink:href="#m9b292720a3" y="362.394375"/>
      </g>
     </g>
     <g id="text_21">
      <!-- 2019-05 -->
      <g transform="translate(400.395682 411.177188)rotate(-90)scale(0.1 -0.1)">
       <use xlink:href="#DejaVuSans-32"/>
       <use x="63.623047" xlink:href="#DejaVuSans-30"/>
       <use x="127.246094" xlink:href="#DejaVuSans-31"/>
       <use x="190.869141" xlink:href="#DejaVuSans-39"/>
       <use x="254.492188" xlink:href="#DejaVuSans-2d"/>
       <use x="290.576172" xlink:href="#DejaVuSans-30"/>
       <use x="354.199219" xlink:href="#DejaVuSans-35"/>
      </g>
     </g>
    </g>
    <g id="xtick_22">
     <g id="line2d_22">
      <g>
       <use style="stroke:#000000;stroke-width:0.8;" x="410.414933" xlink:href="#m9b292720a3" y="362.394375"/>
      </g>
     </g>
     <g id="text_22">
      <!-- 2019-06 -->
      <g transform="translate(413.174308 411.177188)rotate(-90)scale(0.1 -0.1)">
       <use xlink:href="#DejaVuSans-32"/>
       <use x="63.623047" xlink:href="#DejaVuSans-30"/>
       <use x="127.246094" xlink:href="#DejaVuSans-31"/>
       <use x="190.869141" xlink:href="#DejaVuSans-39"/>
       <use x="254.492188" xlink:href="#DejaVuSans-2d"/>
       <use x="290.576172" xlink:href="#DejaVuSans-30"/>
       <use x="354.199219" xlink:href="#DejaVuSans-36"/>
      </g>
     </g>
    </g>
    <g id="xtick_23">
     <g id="line2d_23">
      <g>
       <use style="stroke:#000000;stroke-width:0.8;" x="423.193559" xlink:href="#m9b292720a3" y="362.394375"/>
      </g>
     </g>
     <g id="text_23">
      <!-- 2019-07 -->
      <g transform="translate(425.952934 411.177188)rotate(-90)scale(0.1 -0.1)">
       <use xlink:href="#DejaVuSans-32"/>
       <use x="63.623047" xlink:href="#DejaVuSans-30"/>
       <use x="127.246094" xlink:href="#DejaVuSans-31"/>
       <use x="190.869141" xlink:href="#DejaVuSans-39"/>
       <use x="254.492188" xlink:href="#DejaVuSans-2d"/>
       <use x="290.576172" xlink:href="#DejaVuSans-30"/>
       <use x="354.199219" xlink:href="#DejaVuSans-37"/>
      </g>
     </g>
    </g>
    <g id="xtick_24">
     <g id="line2d_24">
      <g>
       <use style="stroke:#000000;stroke-width:0.8;" x="435.972185" xlink:href="#m9b292720a3" y="362.394375"/>
      </g>
     </g>
     <g id="text_24">
      <!-- 2019-08 -->
      <g transform="translate(438.73156 411.177188)rotate(-90)scale(0.1 -0.1)">
       <use xlink:href="#DejaVuSans-32"/>
       <use x="63.623047" xlink:href="#DejaVuSans-30"/>
       <use x="127.246094" xlink:href="#DejaVuSans-31"/>
       <use x="190.869141" xlink:href="#DejaVuSans-39"/>
       <use x="254.492188" xlink:href="#DejaVuSans-2d"/>
       <use x="290.576172" xlink:href="#DejaVuSans-30"/>
       <use x="354.199219" xlink:href="#DejaVuSans-38"/>
      </g>
     </g>
    </g>
    <g id="xtick_25">
     <g id="line2d_25">
      <g>
       <use style="stroke:#000000;stroke-width:0.8;" x="448.750811" xlink:href="#m9b292720a3" y="362.394375"/>
      </g>
     </g>
     <g id="text_25">
      <!-- 2019-09 -->
      <g transform="translate(451.510186 411.177188)rotate(-90)scale(0.1 -0.1)">
       <use xlink:href="#DejaVuSans-32"/>
       <use x="63.623047" xlink:href="#DejaVuSans-30"/>
       <use x="127.246094" xlink:href="#DejaVuSans-31"/>
       <use x="190.869141" xlink:href="#DejaVuSans-39"/>
       <use x="254.492188" xlink:href="#DejaVuSans-2d"/>
       <use x="290.576172" xlink:href="#DejaVuSans-30"/>
       <use x="354.199219" xlink:href="#DejaVuSans-39"/>
      </g>
     </g>
    </g>
    <g id="xtick_26">
     <g id="line2d_26">
      <g>
       <use style="stroke:#000000;stroke-width:0.8;" x="461.529437" xlink:href="#m9b292720a3" y="362.394375"/>
      </g>
     </g>
     <g id="text_26">
      <!-- 2019-10 -->
      <g transform="translate(464.288812 411.177188)rotate(-90)scale(0.1 -0.1)">
       <use xlink:href="#DejaVuSans-32"/>
       <use x="63.623047" xlink:href="#DejaVuSans-30"/>
       <use x="127.246094" xlink:href="#DejaVuSans-31"/>
       <use x="190.869141" xlink:href="#DejaVuSans-39"/>
       <use x="254.492188" xlink:href="#DejaVuSans-2d"/>
       <use x="290.576172" xlink:href="#DejaVuSans-31"/>
       <use x="354.199219" xlink:href="#DejaVuSans-30"/>
      </g>
     </g>
    </g>
    <g id="xtick_27">
     <g id="line2d_27">
      <g>
       <use style="stroke:#000000;stroke-width:0.8;" x="474.308063" xlink:href="#m9b292720a3" y="362.394375"/>
      </g>
     </g>
     <g id="text_27">
      <!-- 2019-11 -->
      <g transform="translate(477.067438 411.177188)rotate(-90)scale(0.1 -0.1)">
       <use xlink:href="#DejaVuSans-32"/>
       <use x="63.623047" xlink:href="#DejaVuSans-30"/>
       <use x="127.246094" xlink:href="#DejaVuSans-31"/>
       <use x="190.869141" xlink:href="#DejaVuSans-39"/>
       <use x="254.492188" xlink:href="#DejaVuSans-2d"/>
       <use x="290.576172" xlink:href="#DejaVuSans-31"/>
       <use x="354.199219" xlink:href="#DejaVuSans-31"/>
      </g>
     </g>
    </g>
    <g id="xtick_28">
     <g id="line2d_28">
      <g>
       <use style="stroke:#000000;stroke-width:0.8;" x="487.086689" xlink:href="#m9b292720a3" y="362.394375"/>
      </g>
     </g>
     <g id="text_28">
      <!-- 2019-12 -->
      <g transform="translate(489.846064 411.177188)rotate(-90)scale(0.1 -0.1)">
       <use xlink:href="#DejaVuSans-32"/>
       <use x="63.623047" xlink:href="#DejaVuSans-30"/>
       <use x="127.246094" xlink:href="#DejaVuSans-31"/>
       <use x="190.869141" xlink:href="#DejaVuSans-39"/>
       <use x="254.492188" xlink:href="#DejaVuSans-2d"/>
       <use x="290.576172" xlink:href="#DejaVuSans-31"/>
       <use x="354.199219" xlink:href="#DejaVuSans-32"/>
      </g>
     </g>
    </g>
    <g id="xtick_29">
     <g id="line2d_29">
      <g>
       <use style="stroke:#000000;stroke-width:0.8;" x="499.865315" xlink:href="#m9b292720a3" y="362.394375"/>
      </g>
     </g>
     <g id="text_29">
      <!-- 2020-01 -->
      <g transform="translate(502.62469 411.177188)rotate(-90)scale(0.1 -0.1)">
       <use xlink:href="#DejaVuSans-32"/>
       <use x="63.623047" xlink:href="#DejaVuSans-30"/>
       <use x="127.246094" xlink:href="#DejaVuSans-32"/>
       <use x="190.869141" xlink:href="#DejaVuSans-30"/>
       <use x="254.492188" xlink:href="#DejaVuSans-2d"/>
       <use x="290.576172" xlink:href="#DejaVuSans-30"/>
       <use x="354.199219" xlink:href="#DejaVuSans-31"/>
      </g>
     </g>
    </g>
    <g id="xtick_30">
     <g id="line2d_30">
      <g>
       <use style="stroke:#000000;stroke-width:0.8;" x="512.643941" xlink:href="#m9b292720a3" y="362.394375"/>
      </g>
     </g>
     <g id="text_30">
      <!-- 2020-02 -->
      <g transform="translate(515.403316 411.177188)rotate(-90)scale(0.1 -0.1)">
       <use xlink:href="#DejaVuSans-32"/>
       <use x="63.623047" xlink:href="#DejaVuSans-30"/>
       <use x="127.246094" xlink:href="#DejaVuSans-32"/>
       <use x="190.869141" xlink:href="#DejaVuSans-30"/>
       <use x="254.492188" xlink:href="#DejaVuSans-2d"/>
       <use x="290.576172" xlink:href="#DejaVuSans-30"/>
       <use x="354.199219" xlink:href="#DejaVuSans-32"/>
      </g>
     </g>
    </g>
    <g id="xtick_31">
     <g id="line2d_31">
      <g>
       <use style="stroke:#000000;stroke-width:0.8;" x="525.422567" xlink:href="#m9b292720a3" y="362.394375"/>
      </g>
     </g>
     <g id="text_31">
      <!-- 2020-03 -->
      <g transform="translate(528.181942 411.177188)rotate(-90)scale(0.1 -0.1)">
       <use xlink:href="#DejaVuSans-32"/>
       <use x="63.623047" xlink:href="#DejaVuSans-30"/>
       <use x="127.246094" xlink:href="#DejaVuSans-32"/>
       <use x="190.869141" xlink:href="#DejaVuSans-30"/>
       <use x="254.492188" xlink:href="#DejaVuSans-2d"/>
       <use x="290.576172" xlink:href="#DejaVuSans-30"/>
       <use x="354.199219" xlink:href="#DejaVuSans-33"/>
      </g>
     </g>
    </g>
    <g id="xtick_32">
     <g id="line2d_32">
      <g>
       <use style="stroke:#000000;stroke-width:0.8;" x="538.201193" xlink:href="#m9b292720a3" y="362.394375"/>
      </g>
     </g>
     <g id="text_32">
      <!-- 2020-04 -->
      <g transform="translate(540.960568 411.177188)rotate(-90)scale(0.1 -0.1)">
       <use xlink:href="#DejaVuSans-32"/>
       <use x="63.623047" xlink:href="#DejaVuSans-30"/>
       <use x="127.246094" xlink:href="#DejaVuSans-32"/>
       <use x="190.869141" xlink:href="#DejaVuSans-30"/>
       <use x="254.492188" xlink:href="#DejaVuSans-2d"/>
       <use x="290.576172" xlink:href="#DejaVuSans-30"/>
       <use x="354.199219" xlink:href="#DejaVuSans-34"/>
      </g>
     </g>
    </g>
    <g id="xtick_33">
     <g id="line2d_33">
      <g>
       <use style="stroke:#000000;stroke-width:0.8;" x="550.979819" xlink:href="#m9b292720a3" y="362.394375"/>
      </g>
     </g>
     <g id="text_33">
      <!-- 2020-05 -->
      <g transform="translate(553.739194 411.177188)rotate(-90)scale(0.1 -0.1)">
       <use xlink:href="#DejaVuSans-32"/>
       <use x="63.623047" xlink:href="#DejaVuSans-30"/>
       <use x="127.246094" xlink:href="#DejaVuSans-32"/>
       <use x="190.869141" xlink:href="#DejaVuSans-30"/>
       <use x="254.492188" xlink:href="#DejaVuSans-2d"/>
       <use x="290.576172" xlink:href="#DejaVuSans-30"/>
       <use x="354.199219" xlink:href="#DejaVuSans-35"/>
      </g>
     </g>
    </g>
    <g id="xtick_34">
     <g id="line2d_34">
      <g>
       <use style="stroke:#000000;stroke-width:0.8;" x="563.758445" xlink:href="#m9b292720a3" y="362.394375"/>
      </g>
     </g>
     <g id="text_34">
      <!-- 2020-06 -->
      <g transform="translate(566.51782 411.177188)rotate(-90)scale(0.1 -0.1)">
       <use xlink:href="#DejaVuSans-32"/>
       <use x="63.623047" xlink:href="#DejaVuSans-30"/>
       <use x="127.246094" xlink:href="#DejaVuSans-32"/>
       <use x="190.869141" xlink:href="#DejaVuSans-30"/>
       <use x="254.492188" xlink:href="#DejaVuSans-2d"/>
       <use x="290.576172" xlink:href="#DejaVuSans-30"/>
       <use x="354.199219" xlink:href="#DejaVuSans-36"/>
      </g>
     </g>
    </g>
    <g id="xtick_35">
     <g id="line2d_35">
      <g>
       <use style="stroke:#000000;stroke-width:0.8;" x="576.537071" xlink:href="#m9b292720a3" y="362.394375"/>
      </g>
     </g>
     <g id="text_35">
      <!-- 2020-07 -->
      <g transform="translate(579.296446 411.177188)rotate(-90)scale(0.1 -0.1)">
       <use xlink:href="#DejaVuSans-32"/>
       <use x="63.623047" xlink:href="#DejaVuSans-30"/>
       <use x="127.246094" xlink:href="#DejaVuSans-32"/>
       <use x="190.869141" xlink:href="#DejaVuSans-30"/>
       <use x="254.492188" xlink:href="#DejaVuSans-2d"/>
       <use x="290.576172" xlink:href="#DejaVuSans-30"/>
       <use x="354.199219" xlink:href="#DejaVuSans-37"/>
      </g>
     </g>
    </g>
    <g id="xtick_36">
     <g id="line2d_36">
      <g>
       <use style="stroke:#000000;stroke-width:0.8;" x="589.315697" xlink:href="#m9b292720a3" y="362.394375"/>
      </g>
     </g>
     <g id="text_36">
      <!-- 2020-08 -->
      <g transform="translate(592.075072 411.177188)rotate(-90)scale(0.1 -0.1)">
       <use xlink:href="#DejaVuSans-32"/>
       <use x="63.623047" xlink:href="#DejaVuSans-30"/>
       <use x="127.246094" xlink:href="#DejaVuSans-32"/>
       <use x="190.869141" xlink:href="#DejaVuSans-30"/>
       <use x="254.492188" xlink:href="#DejaVuSans-2d"/>
       <use x="290.576172" xlink:href="#DejaVuSans-30"/>
       <use x="354.199219" xlink:href="#DejaVuSans-38"/>
      </g>
     </g>
    </g>
    <g id="xtick_37">
     <g id="line2d_37">
      <g>
       <use style="stroke:#000000;stroke-width:0.8;" x="602.094323" xlink:href="#m9b292720a3" y="362.394375"/>
      </g>
     </g>
     <g id="text_37">
      <!-- 2020-09 -->
      <g transform="translate(604.853698 411.177188)rotate(-90)scale(0.1 -0.1)">
       <use xlink:href="#DejaVuSans-32"/>
       <use x="63.623047" xlink:href="#DejaVuSans-30"/>
       <use x="127.246094" xlink:href="#DejaVuSans-32"/>
       <use x="190.869141" xlink:href="#DejaVuSans-30"/>
       <use x="254.492188" xlink:href="#DejaVuSans-2d"/>
       <use x="290.576172" xlink:href="#DejaVuSans-30"/>
       <use x="354.199219" xlink:href="#DejaVuSans-39"/>
      </g>
     </g>
    </g>
    <g id="xtick_38">
     <g id="line2d_38">
      <g>
       <use style="stroke:#000000;stroke-width:0.8;" x="614.872948" xlink:href="#m9b292720a3" y="362.394375"/>
      </g>
     </g>
     <g id="text_38">
      <!-- 2020-10 -->
      <g transform="translate(617.632323 411.177188)rotate(-90)scale(0.1 -0.1)">
       <use xlink:href="#DejaVuSans-32"/>
       <use x="63.623047" xlink:href="#DejaVuSans-30"/>
       <use x="127.246094" xlink:href="#DejaVuSans-32"/>
       <use x="190.869141" xlink:href="#DejaVuSans-30"/>
       <use x="254.492188" xlink:href="#DejaVuSans-2d"/>
       <use x="290.576172" xlink:href="#DejaVuSans-31"/>
       <use x="354.199219" xlink:href="#DejaVuSans-30"/>
      </g>
     </g>
    </g>
    <g id="xtick_39">
     <g id="line2d_39">
      <g>
       <use style="stroke:#000000;stroke-width:0.8;" x="627.651574" xlink:href="#m9b292720a3" y="362.394375"/>
      </g>
     </g>
     <g id="text_39">
      <!-- 2020-11 -->
      <g transform="translate(630.410949 411.177188)rotate(-90)scale(0.1 -0.1)">
       <use xlink:href="#DejaVuSans-32"/>
       <use x="63.623047" xlink:href="#DejaVuSans-30"/>
       <use x="127.246094" xlink:href="#DejaVuSans-32"/>
       <use x="190.869141" xlink:href="#DejaVuSans-30"/>
       <use x="254.492188" xlink:href="#DejaVuSans-2d"/>
       <use x="290.576172" xlink:href="#DejaVuSans-31"/>
       <use x="354.199219" xlink:href="#DejaVuSans-31"/>
      </g>
     </g>
    </g>
    <g id="xtick_40">
     <g id="line2d_40">
      <g>
       <use style="stroke:#000000;stroke-width:0.8;" x="640.4302" xlink:href="#m9b292720a3" y="362.394375"/>
      </g>
     </g>
     <g id="text_40">
      <!-- 2020-12 -->
      <g transform="translate(643.189575 411.177188)rotate(-90)scale(0.1 -0.1)">
       <use xlink:href="#DejaVuSans-32"/>
       <use x="63.623047" xlink:href="#DejaVuSans-30"/>
       <use x="127.246094" xlink:href="#DejaVuSans-32"/>
       <use x="190.869141" xlink:href="#DejaVuSans-30"/>
       <use x="254.492188" xlink:href="#DejaVuSans-2d"/>
       <use x="290.576172" xlink:href="#DejaVuSans-31"/>
       <use x="354.199219" xlink:href="#DejaVuSans-32"/>
      </g>
     </g>
    </g>
    <g id="xtick_41">
     <g id="line2d_41">
      <g>
       <use style="stroke:#000000;stroke-width:0.8;" x="653.208826" xlink:href="#m9b292720a3" y="362.394375"/>
      </g>
     </g>
     <g id="text_41">
      <!-- 2021-01 -->
      <g transform="translate(655.968201 411.177188)rotate(-90)scale(0.1 -0.1)">
       <use xlink:href="#DejaVuSans-32"/>
       <use x="63.623047" xlink:href="#DejaVuSans-30"/>
       <use x="127.246094" xlink:href="#DejaVuSans-32"/>
       <use x="190.869141" xlink:href="#DejaVuSans-31"/>
       <use x="254.492188" xlink:href="#DejaVuSans-2d"/>
       <use x="290.576172" xlink:href="#DejaVuSans-30"/>
       <use x="354.199219" xlink:href="#DejaVuSans-31"/>
      </g>
     </g>
    </g>
    <g id="xtick_42">
     <g id="line2d_42">
      <g>
       <use style="stroke:#000000;stroke-width:0.8;" x="665.987452" xlink:href="#m9b292720a3" y="362.394375"/>
      </g>
     </g>
     <g id="text_42">
      <!-- 2021-02 -->
      <g transform="translate(668.746827 411.177188)rotate(-90)scale(0.1 -0.1)">
       <use xlink:href="#DejaVuSans-32"/>
       <use x="63.623047" xlink:href="#DejaVuSans-30"/>
       <use x="127.246094" xlink:href="#DejaVuSans-32"/>
       <use x="190.869141" xlink:href="#DejaVuSans-31"/>
       <use x="254.492188" xlink:href="#DejaVuSans-2d"/>
       <use x="290.576172" xlink:href="#DejaVuSans-30"/>
       <use x="354.199219" xlink:href="#DejaVuSans-32"/>
      </g>
     </g>
    </g>
    <g id="xtick_43">
     <g id="line2d_43">
      <g>
       <use style="stroke:#000000;stroke-width:0.8;" x="678.766078" xlink:href="#m9b292720a3" y="362.394375"/>
      </g>
     </g>
     <g id="text_43">
      <!-- 2021-03 -->
      <g transform="translate(681.525453 411.177188)rotate(-90)scale(0.1 -0.1)">
       <use xlink:href="#DejaVuSans-32"/>
       <use x="63.623047" xlink:href="#DejaVuSans-30"/>
       <use x="127.246094" xlink:href="#DejaVuSans-32"/>
       <use x="190.869141" xlink:href="#DejaVuSans-31"/>
       <use x="254.492188" xlink:href="#DejaVuSans-2d"/>
       <use x="290.576172" xlink:href="#DejaVuSans-30"/>
       <use x="354.199219" xlink:href="#DejaVuSans-33"/>
      </g>
     </g>
    </g>
    <g id="xtick_44">
     <g id="line2d_44">
      <g>
       <use style="stroke:#000000;stroke-width:0.8;" x="691.544704" xlink:href="#m9b292720a3" y="362.394375"/>
      </g>
     </g>
     <g id="text_44">
      <!-- 2021-04 -->
      <g transform="translate(694.304079 411.177188)rotate(-90)scale(0.1 -0.1)">
       <use xlink:href="#DejaVuSans-32"/>
       <use x="63.623047" xlink:href="#DejaVuSans-30"/>
       <use x="127.246094" xlink:href="#DejaVuSans-32"/>
       <use x="190.869141" xlink:href="#DejaVuSans-31"/>
       <use x="254.492188" xlink:href="#DejaVuSans-2d"/>
       <use x="290.576172" xlink:href="#DejaVuSans-30"/>
       <use x="354.199219" xlink:href="#DejaVuSans-34"/>
      </g>
     </g>
    </g>
    <g id="xtick_45">
     <g id="line2d_45">
      <g>
       <use style="stroke:#000000;stroke-width:0.8;" x="704.32333" xlink:href="#m9b292720a3" y="362.394375"/>
      </g>
     </g>
     <g id="text_45">
      <!-- 2021-05 -->
      <g transform="translate(707.082705 411.177188)rotate(-90)scale(0.1 -0.1)">
       <use xlink:href="#DejaVuSans-32"/>
       <use x="63.623047" xlink:href="#DejaVuSans-30"/>
       <use x="127.246094" xlink:href="#DejaVuSans-32"/>
       <use x="190.869141" xlink:href="#DejaVuSans-31"/>
       <use x="254.492188" xlink:href="#DejaVuSans-2d"/>
       <use x="290.576172" xlink:href="#DejaVuSans-30"/>
       <use x="354.199219" xlink:href="#DejaVuSans-35"/>
      </g>
     </g>
    </g>
    <g id="xtick_46">
     <g id="line2d_46">
      <g>
       <use style="stroke:#000000;stroke-width:0.8;" x="717.101956" xlink:href="#m9b292720a3" y="362.394375"/>
      </g>
     </g>
     <g id="text_46">
      <!-- 2021-06 -->
      <g transform="translate(719.861331 411.177188)rotate(-90)scale(0.1 -0.1)">
       <use xlink:href="#DejaVuSans-32"/>
       <use x="63.623047" xlink:href="#DejaVuSans-30"/>
       <use x="127.246094" xlink:href="#DejaVuSans-32"/>
       <use x="190.869141" xlink:href="#DejaVuSans-31"/>
       <use x="254.492188" xlink:href="#DejaVuSans-2d"/>
       <use x="290.576172" xlink:href="#DejaVuSans-30"/>
       <use x="354.199219" xlink:href="#DejaVuSans-36"/>
      </g>
     </g>
    </g>
    <g id="xtick_47">
     <g id="line2d_47">
      <g>
       <use style="stroke:#000000;stroke-width:0.8;" x="729.880582" xlink:href="#m9b292720a3" y="362.394375"/>
      </g>
     </g>
     <g id="text_47">
      <!-- 2021-07 -->
      <g transform="translate(732.639957 411.177188)rotate(-90)scale(0.1 -0.1)">
       <use xlink:href="#DejaVuSans-32"/>
       <use x="63.623047" xlink:href="#DejaVuSans-30"/>
       <use x="127.246094" xlink:href="#DejaVuSans-32"/>
       <use x="190.869141" xlink:href="#DejaVuSans-31"/>
       <use x="254.492188" xlink:href="#DejaVuSans-2d"/>
       <use x="290.576172" xlink:href="#DejaVuSans-30"/>
       <use x="354.199219" xlink:href="#DejaVuSans-37"/>
      </g>
     </g>
    </g>
    <g id="xtick_48">
     <g id="line2d_48">
      <g>
       <use style="stroke:#000000;stroke-width:0.8;" x="742.659208" xlink:href="#m9b292720a3" y="362.394375"/>
      </g>
     </g>
     <g id="text_48">
      <!-- 2021-08 -->
      <g transform="translate(745.418583 411.177188)rotate(-90)scale(0.1 -0.1)">
       <use xlink:href="#DejaVuSans-32"/>
       <use x="63.623047" xlink:href="#DejaVuSans-30"/>
       <use x="127.246094" xlink:href="#DejaVuSans-32"/>
       <use x="190.869141" xlink:href="#DejaVuSans-31"/>
       <use x="254.492188" xlink:href="#DejaVuSans-2d"/>
       <use x="290.576172" xlink:href="#DejaVuSans-30"/>
       <use x="354.199219" xlink:href="#DejaVuSans-38"/>
      </g>
     </g>
    </g>
    <g id="xtick_49">
     <g id="line2d_49">
      <g>
       <use style="stroke:#000000;stroke-width:0.8;" x="755.437834" xlink:href="#m9b292720a3" y="362.394375"/>
      </g>
     </g>
     <g id="text_49">
      <!-- 2021-09 -->
      <g transform="translate(758.197209 411.177188)rotate(-90)scale(0.1 -0.1)">
       <use xlink:href="#DejaVuSans-32"/>
       <use x="63.623047" xlink:href="#DejaVuSans-30"/>
       <use x="127.246094" xlink:href="#DejaVuSans-32"/>
       <use x="190.869141" xlink:href="#DejaVuSans-31"/>
       <use x="254.492188" xlink:href="#DejaVuSans-2d"/>
       <use x="290.576172" xlink:href="#DejaVuSans-30"/>
       <use x="354.199219" xlink:href="#DejaVuSans-39"/>
      </g>
     </g>
    </g>
    <g id="xtick_50">
     <g id="line2d_50">
      <g>
       <use style="stroke:#000000;stroke-width:0.8;" x="768.21646" xlink:href="#m9b292720a3" y="362.394375"/>
      </g>
     </g>
     <g id="text_50">
      <!-- 2021-10 -->
      <g transform="translate(770.975835 411.177188)rotate(-90)scale(0.1 -0.1)">
       <use xlink:href="#DejaVuSans-32"/>
       <use x="63.623047" xlink:href="#DejaVuSans-30"/>
       <use x="127.246094" xlink:href="#DejaVuSans-32"/>
       <use x="190.869141" xlink:href="#DejaVuSans-31"/>
       <use x="254.492188" xlink:href="#DejaVuSans-2d"/>
       <use x="290.576172" xlink:href="#DejaVuSans-31"/>
       <use x="354.199219" xlink:href="#DejaVuSans-30"/>
      </g>
     </g>
    </g>
    <g id="xtick_51">
     <g id="line2d_51">
      <g>
       <use style="stroke:#000000;stroke-width:0.8;" x="780.995086" xlink:href="#m9b292720a3" y="362.394375"/>
      </g>
     </g>
     <g id="text_51">
      <!-- 2021-11 -->
      <g transform="translate(783.754461 411.177188)rotate(-90)scale(0.1 -0.1)">
       <use xlink:href="#DejaVuSans-32"/>
       <use x="63.623047" xlink:href="#DejaVuSans-30"/>
       <use x="127.246094" xlink:href="#DejaVuSans-32"/>
       <use x="190.869141" xlink:href="#DejaVuSans-31"/>
       <use x="254.492188" xlink:href="#DejaVuSans-2d"/>
       <use x="290.576172" xlink:href="#DejaVuSans-31"/>
       <use x="354.199219" xlink:href="#DejaVuSans-31"/>
      </g>
     </g>
    </g>
    <g id="xtick_52">
     <g id="line2d_52">
      <g>
       <use style="stroke:#000000;stroke-width:0.8;" x="793.773712" xlink:href="#m9b292720a3" y="362.394375"/>
      </g>
     </g>
     <g id="text_52">
      <!-- 2021-12 -->
      <g transform="translate(796.533087 411.177188)rotate(-90)scale(0.1 -0.1)">
       <use xlink:href="#DejaVuSans-32"/>
       <use x="63.623047" xlink:href="#DejaVuSans-30"/>
       <use x="127.246094" xlink:href="#DejaVuSans-32"/>
       <use x="190.869141" xlink:href="#DejaVuSans-31"/>
       <use x="254.492188" xlink:href="#DejaVuSans-2d"/>
       <use x="290.576172" xlink:href="#DejaVuSans-31"/>
       <use x="354.199219" xlink:href="#DejaVuSans-32"/>
      </g>
     </g>
    </g>
   </g>
   <g id="matplotlib.axis_2">
    <g id="ytick_1">
     <g id="line2d_53">
      <defs>
       <path d="M 0 0 
L -3.5 0 
" id="m297ea380e5" style="stroke:#000000;stroke-width:0.8;"/>
      </defs>
      <g>
       <use style="stroke:#000000;stroke-width:0.8;" x="133.11875" xlink:href="#m297ea380e5" y="362.394375"/>
      </g>
     </g>
     <g id="text_53">
      <!-- 0 -->
      <g transform="translate(107.03125 373.792031)scale(0.3 -0.3)">
       <use xlink:href="#DejaVuSans-30"/>
      </g>
     </g>
    </g>
    <g id="ytick_2">
     <g id="line2d_54">
      <g>
       <use style="stroke:#000000;stroke-width:0.8;" x="133.11875" xlink:href="#m297ea380e5" y="253.674375"/>
      </g>
     </g>
     <g id="text_54">
      <!-- 500 -->
      <g transform="translate(68.85625 265.072031)scale(0.3 -0.3)">
       <use xlink:href="#DejaVuSans-35"/>
       <use x="63.623047" xlink:href="#DejaVuSans-30"/>
       <use x="127.246094" xlink:href="#DejaVuSans-30"/>
      </g>
     </g>
    </g>
    <g id="ytick_3">
     <g id="line2d_55">
      <g>
       <use style="stroke:#000000;stroke-width:0.8;" x="133.11875" xlink:href="#m297ea380e5" y="144.954375"/>
      </g>
     </g>
     <g id="text_55">
      <!-- 1,000 -->
      <g transform="translate(40.234375 156.352031)scale(0.3 -0.3)">
       <defs>
        <path d="M 750 794 
L 1409 794 
L 1409 256 
L 897 -744 
L 494 -744 
L 750 256 
L 750 794 
z
" id="DejaVuSans-2c" transform="scale(0.015625)"/>
       </defs>
       <use xlink:href="#DejaVuSans-31"/>
       <use x="63.623047" xlink:href="#DejaVuSans-2c"/>
       <use x="95.410156" xlink:href="#DejaVuSans-30"/>
       <use x="159.033203" xlink:href="#DejaVuSans-30"/>
       <use x="222.65625" xlink:href="#DejaVuSans-30"/>
      </g>
     </g>
    </g>
    <g id="ytick_4">
     <g id="line2d_56">
      <g>
       <use style="stroke:#000000;stroke-width:0.8;" x="133.11875" xlink:href="#m297ea380e5" y="36.234375"/>
      </g>
     </g>
     <g id="text_56">
      <!-- 1,500 -->
      <g transform="translate(40.234375 47.632031)scale(0.3 -0.3)">
       <use xlink:href="#DejaVuSans-31"/>
       <use x="63.623047" xlink:href="#DejaVuSans-2c"/>
       <use x="95.410156" xlink:href="#DejaVuSans-35"/>
       <use x="159.033203" xlink:href="#DejaVuSans-30"/>
       <use x="222.65625" xlink:href="#DejaVuSans-30"/>
      </g>
     </g>
    </g>
    <g id="text_57">
     <!-- kWh -->
     <g transform="translate(29.995312 232.337812)rotate(-90)scale(0.3 -0.3)">
      <defs>
       <path d="M 581 4863 
L 1159 4863 
L 1159 1991 
L 2875 3500 
L 3609 3500 
L 1753 1863 
L 3688 0 
L 2938 0 
L 1159 1709 
L 1159 0 
L 581 0 
L 581 4863 
z
" id="DejaVuSans-6b" transform="scale(0.015625)"/>
       <path d="M 213 4666 
L 850 4666 
L 1831 722 
L 2809 4666 
L 3519 4666 
L 4500 722 
L 5478 4666 
L 6119 4666 
L 4947 0 
L 4153 0 
L 3169 4050 
L 2175 0 
L 1381 0 
L 213 4666 
z
" id="DejaVuSans-57" transform="scale(0.015625)"/>
       <path d="M 3513 2113 
L 3513 0 
L 2938 0 
L 2938 2094 
Q 2938 2591 2744 2837 
Q 2550 3084 2163 3084 
Q 1697 3084 1428 2787 
Q 1159 2491 1159 1978 
L 1159 0 
L 581 0 
L 581 4863 
L 1159 4863 
L 1159 2956 
Q 1366 3272 1645 3428 
Q 1925 3584 2291 3584 
Q 2894 3584 3203 3211 
Q 3513 2838 3513 2113 
z
" id="DejaVuSans-68" transform="scale(0.015625)"/>
      </defs>
      <use xlink:href="#DejaVuSans-6b"/>
      <use x="57.910156" xlink:href="#DejaVuSans-57"/>
      <use x="156.787109" xlink:href="#DejaVuSans-68"/>
     </g>
    </g>
   </g>
   <g id="line2d_57">
    <path clip-path="url(#p992e1f037a)" d="M 563.758445 362.394375 
L 563.758445 36.234375 
" style="fill:none;stroke:#000000;stroke-dasharray:5.55,2.4;stroke-dashoffset:0;stroke-width:1.5;"/>
   </g>
   <g id="patch_159">
    <path d="M 133.11875 362.394375 
L 133.11875 36.234375 
" style="fill:none;stroke:#000000;stroke-linecap:square;stroke-linejoin:miter;stroke-width:0.8;"/>
   </g>
   <g id="patch_160">
    <path d="M 133.11875 362.394375 
L 802.71875 362.394375 
" style="fill:none;stroke:#000000;stroke-linecap:square;stroke-linejoin:miter;stroke-width:0.8;"/>
   </g>
   <g id="text_58">
    <!-- Monthly Electricity Consumption -->
    <g transform="translate(224.471094 29.995312)scale(0.3 -0.3)">
     <defs>
      <path d="M 628 4666 
L 1569 4666 
L 2759 1491 
L 3956 4666 
L 4897 4666 
L 4897 0 
L 4281 0 
L 4281 4097 
L 3078 897 
L 2444 897 
L 1241 4097 
L 1241 0 
L 628 0 
L 628 4666 
z
" id="DejaVuSans-4d" transform="scale(0.015625)"/>
      <path d="M 1959 3097 
Q 1497 3097 1228 2736 
Q 959 2375 959 1747 
Q 959 1119 1226 758 
Q 1494 397 1959 397 
Q 2419 397 2687 759 
Q 2956 1122 2956 1747 
Q 2956 2369 2687 2733 
Q 2419 3097 1959 3097 
z
M 1959 3584 
Q 2709 3584 3137 3096 
Q 3566 2609 3566 1747 
Q 3566 888 3137 398 
Q 2709 -91 1959 -91 
Q 1206 -91 779 398 
Q 353 888 353 1747 
Q 353 2609 779 3096 
Q 1206 3584 1959 3584 
z
" id="DejaVuSans-6f" transform="scale(0.015625)"/>
      <path d="M 3513 2113 
L 3513 0 
L 2938 0 
L 2938 2094 
Q 2938 2591 2744 2837 
Q 2550 3084 2163 3084 
Q 1697 3084 1428 2787 
Q 1159 2491 1159 1978 
L 1159 0 
L 581 0 
L 581 3500 
L 1159 3500 
L 1159 2956 
Q 1366 3272 1645 3428 
Q 1925 3584 2291 3584 
Q 2894 3584 3203 3211 
Q 3513 2838 3513 2113 
z
" id="DejaVuSans-6e" transform="scale(0.015625)"/>
      <path d="M 1172 4494 
L 1172 3500 
L 2356 3500 
L 2356 3053 
L 1172 3053 
L 1172 1153 
Q 1172 725 1289 603 
Q 1406 481 1766 481 
L 2356 481 
L 2356 0 
L 1766 0 
Q 1100 0 847 248 
Q 594 497 594 1153 
L 594 3053 
L 172 3053 
L 172 3500 
L 594 3500 
L 594 4494 
L 1172 4494 
z
" id="DejaVuSans-74" transform="scale(0.015625)"/>
      <path d="M 603 4863 
L 1178 4863 
L 1178 0 
L 603 0 
L 603 4863 
z
" id="DejaVuSans-6c" transform="scale(0.015625)"/>
      <path d="M 2059 -325 
Q 1816 -950 1584 -1140 
Q 1353 -1331 966 -1331 
L 506 -1331 
L 506 -850 
L 844 -850 
Q 1081 -850 1212 -737 
Q 1344 -625 1503 -206 
L 1606 56 
L 191 3500 
L 800 3500 
L 1894 763 
L 2988 3500 
L 3597 3500 
L 2059 -325 
z
" id="DejaVuSans-79" transform="scale(0.015625)"/>
      <path id="DejaVuSans-20" transform="scale(0.015625)"/>
      <path d="M 628 4666 
L 3578 4666 
L 3578 4134 
L 1259 4134 
L 1259 2753 
L 3481 2753 
L 3481 2222 
L 1259 2222 
L 1259 531 
L 3634 531 
L 3634 0 
L 628 0 
L 628 4666 
z
" id="DejaVuSans-45" transform="scale(0.015625)"/>
      <path d="M 3597 1894 
L 3597 1613 
L 953 1613 
Q 991 1019 1311 708 
Q 1631 397 2203 397 
Q 2534 397 2845 478 
Q 3156 559 3463 722 
L 3463 178 
Q 3153 47 2828 -22 
Q 2503 -91 2169 -91 
Q 1331 -91 842 396 
Q 353 884 353 1716 
Q 353 2575 817 3079 
Q 1281 3584 2069 3584 
Q 2775 3584 3186 3129 
Q 3597 2675 3597 1894 
z
M 3022 2063 
Q 3016 2534 2758 2815 
Q 2500 3097 2075 3097 
Q 1594 3097 1305 2825 
Q 1016 2553 972 2059 
L 3022 2063 
z
" id="DejaVuSans-65" transform="scale(0.015625)"/>
      <path d="M 3122 3366 
L 3122 2828 
Q 2878 2963 2633 3030 
Q 2388 3097 2138 3097 
Q 1578 3097 1268 2742 
Q 959 2388 959 1747 
Q 959 1106 1268 751 
Q 1578 397 2138 397 
Q 2388 397 2633 464 
Q 2878 531 3122 666 
L 3122 134 
Q 2881 22 2623 -34 
Q 2366 -91 2075 -91 
Q 1284 -91 818 406 
Q 353 903 353 1747 
Q 353 2603 823 3093 
Q 1294 3584 2113 3584 
Q 2378 3584 2631 3529 
Q 2884 3475 3122 3366 
z
" id="DejaVuSans-63" transform="scale(0.015625)"/>
      <path d="M 2631 2963 
Q 2534 3019 2420 3045 
Q 2306 3072 2169 3072 
Q 1681 3072 1420 2755 
Q 1159 2438 1159 1844 
L 1159 0 
L 581 0 
L 581 3500 
L 1159 3500 
L 1159 2956 
Q 1341 3275 1631 3429 
Q 1922 3584 2338 3584 
Q 2397 3584 2469 3576 
Q 2541 3569 2628 3553 
L 2631 2963 
z
" id="DejaVuSans-72" transform="scale(0.015625)"/>
      <path d="M 603 3500 
L 1178 3500 
L 1178 0 
L 603 0 
L 603 3500 
z
M 603 4863 
L 1178 4863 
L 1178 4134 
L 603 4134 
L 603 4863 
z
" id="DejaVuSans-69" transform="scale(0.015625)"/>
      <path d="M 4122 4306 
L 4122 3641 
Q 3803 3938 3442 4084 
Q 3081 4231 2675 4231 
Q 1875 4231 1450 3742 
Q 1025 3253 1025 2328 
Q 1025 1406 1450 917 
Q 1875 428 2675 428 
Q 3081 428 3442 575 
Q 3803 722 4122 1019 
L 4122 359 
Q 3791 134 3420 21 
Q 3050 -91 2638 -91 
Q 1578 -91 968 557 
Q 359 1206 359 2328 
Q 359 3453 968 4101 
Q 1578 4750 2638 4750 
Q 3056 4750 3426 4639 
Q 3797 4528 4122 4306 
z
" id="DejaVuSans-43" transform="scale(0.015625)"/>
      <path d="M 2834 3397 
L 2834 2853 
Q 2591 2978 2328 3040 
Q 2066 3103 1784 3103 
Q 1356 3103 1142 2972 
Q 928 2841 928 2578 
Q 928 2378 1081 2264 
Q 1234 2150 1697 2047 
L 1894 2003 
Q 2506 1872 2764 1633 
Q 3022 1394 3022 966 
Q 3022 478 2636 193 
Q 2250 -91 1575 -91 
Q 1294 -91 989 -36 
Q 684 19 347 128 
L 347 722 
Q 666 556 975 473 
Q 1284 391 1588 391 
Q 1994 391 2212 530 
Q 2431 669 2431 922 
Q 2431 1156 2273 1281 
Q 2116 1406 1581 1522 
L 1381 1569 
Q 847 1681 609 1914 
Q 372 2147 372 2553 
Q 372 3047 722 3315 
Q 1072 3584 1716 3584 
Q 2034 3584 2315 3537 
Q 2597 3491 2834 3397 
z
" id="DejaVuSans-73" transform="scale(0.015625)"/>
      <path d="M 544 1381 
L 544 3500 
L 1119 3500 
L 1119 1403 
Q 1119 906 1312 657 
Q 1506 409 1894 409 
Q 2359 409 2629 706 
Q 2900 1003 2900 1516 
L 2900 3500 
L 3475 3500 
L 3475 0 
L 2900 0 
L 2900 538 
Q 2691 219 2414 64 
Q 2138 -91 1772 -91 
Q 1169 -91 856 284 
Q 544 659 544 1381 
z
M 1991 3584 
L 1991 3584 
z
" id="DejaVuSans-75" transform="scale(0.015625)"/>
      <path d="M 3328 2828 
Q 3544 3216 3844 3400 
Q 4144 3584 4550 3584 
Q 5097 3584 5394 3201 
Q 5691 2819 5691 2113 
L 5691 0 
L 5113 0 
L 5113 2094 
Q 5113 2597 4934 2840 
Q 4756 3084 4391 3084 
Q 3944 3084 3684 2787 
Q 3425 2491 3425 1978 
L 3425 0 
L 2847 0 
L 2847 2094 
Q 2847 2600 2669 2842 
Q 2491 3084 2119 3084 
Q 1678 3084 1418 2786 
Q 1159 2488 1159 1978 
L 1159 0 
L 581 0 
L 581 3500 
L 1159 3500 
L 1159 2956 
Q 1356 3278 1631 3431 
Q 1906 3584 2284 3584 
Q 2666 3584 2933 3390 
Q 3200 3197 3328 2828 
z
" id="DejaVuSans-6d" transform="scale(0.015625)"/>
      <path d="M 1159 525 
L 1159 -1331 
L 581 -1331 
L 581 3500 
L 1159 3500 
L 1159 2969 
Q 1341 3281 1617 3432 
Q 1894 3584 2278 3584 
Q 2916 3584 3314 3078 
Q 3713 2572 3713 1747 
Q 3713 922 3314 415 
Q 2916 -91 2278 -91 
Q 1894 -91 1617 61 
Q 1341 213 1159 525 
z
M 3116 1747 
Q 3116 2381 2855 2742 
Q 2594 3103 2138 3103 
Q 1681 3103 1420 2742 
Q 1159 2381 1159 1747 
Q 1159 1113 1420 752 
Q 1681 391 2138 391 
Q 2594 391 2855 752 
Q 3116 1113 3116 1747 
z
" id="DejaVuSans-70" transform="scale(0.015625)"/>
     </defs>
     <use xlink:href="#DejaVuSans-4d"/>
     <use x="86.279297" xlink:href="#DejaVuSans-6f"/>
     <use x="147.460938" xlink:href="#DejaVuSans-6e"/>
     <use x="210.839844" xlink:href="#DejaVuSans-74"/>
     <use x="250.048828" xlink:href="#DejaVuSans-68"/>
     <use x="313.427734" xlink:href="#DejaVuSans-6c"/>
     <use x="341.210938" xlink:href="#DejaVuSans-79"/>
     <use x="400.390625" xlink:href="#DejaVuSans-20"/>
     <use x="432.177734" xlink:href="#DejaVuSans-45"/>
     <use x="495.361328" xlink:href="#DejaVuSans-6c"/>
     <use x="523.144531" xlink:href="#DejaVuSans-65"/>
     <use x="584.667969" xlink:href="#DejaVuSans-63"/>
     <use x="639.648438" xlink:href="#DejaVuSans-74"/>
     <use x="678.857422" xlink:href="#DejaVuSans-72"/>
     <use x="719.970703" xlink:href="#DejaVuSans-69"/>
     <use x="747.753906" xlink:href="#DejaVuSans-63"/>
     <use x="802.734375" xlink:href="#DejaVuSans-69"/>
     <use x="830.517578" xlink:href="#DejaVuSans-74"/>
     <use x="869.726562" xlink:href="#DejaVuSans-79"/>
     <use x="928.90625" xlink:href="#DejaVuSans-20"/>
     <use x="960.693359" xlink:href="#DejaVuSans-43"/>
     <use x="1030.517578" xlink:href="#DejaVuSans-6f"/>
     <use x="1091.699219" xlink:href="#DejaVuSans-6e"/>
     <use x="1155.078125" xlink:href="#DejaVuSans-73"/>
     <use x="1207.177734" xlink:href="#DejaVuSans-75"/>
     <use x="1270.556641" xlink:href="#DejaVuSans-6d"/>
     <use x="1367.96875" xlink:href="#DejaVuSans-70"/>
     <use x="1431.445312" xlink:href="#DejaVuSans-74"/>
     <use x="1470.654297" xlink:href="#DejaVuSans-69"/>
     <use x="1498.4375" xlink:href="#DejaVuSans-6f"/>
     <use x="1559.619141" xlink:href="#DejaVuSans-6e"/>
    </g>
   </g>
   <g id="legend_1">
    <g id="patch_161">
     <path d="M 147.11875 140.303125 
L 300.4625 140.303125 
Q 304.4625 140.303125 304.4625 136.303125 
L 304.4625 50.234375 
Q 304.4625 46.234375 300.4625 46.234375 
L 147.11875 46.234375 
Q 143.11875 46.234375 143.11875 50.234375 
L 143.11875 136.303125 
Q 143.11875 140.303125 147.11875 140.303125 
z
" style="fill:#ffffff;opacity:0.8;stroke:#cccccc;stroke-linejoin:miter;"/>
    </g>
    <g id="patch_162">
     <path d="M 151.11875 69.43125 
L 191.11875 69.43125 
L 191.11875 55.43125 
L 151.11875 55.43125 
z
" style="fill:#f07e6e;"/>
    </g>
    <g id="text_59">
     <!-- Off Peak -->
     <g transform="translate(207.11875 69.43125)scale(0.2 -0.2)">
      <defs>
       <path d="M 2522 4238 
Q 1834 4238 1429 3725 
Q 1025 3213 1025 2328 
Q 1025 1447 1429 934 
Q 1834 422 2522 422 
Q 3209 422 3611 934 
Q 4013 1447 4013 2328 
Q 4013 3213 3611 3725 
Q 3209 4238 2522 4238 
z
M 2522 4750 
Q 3503 4750 4090 4092 
Q 4678 3434 4678 2328 
Q 4678 1225 4090 567 
Q 3503 -91 2522 -91 
Q 1538 -91 948 565 
Q 359 1222 359 2328 
Q 359 3434 948 4092 
Q 1538 4750 2522 4750 
z
" id="DejaVuSans-4f" transform="scale(0.015625)"/>
       <path d="M 2375 4863 
L 2375 4384 
L 1825 4384 
Q 1516 4384 1395 4259 
Q 1275 4134 1275 3809 
L 1275 3500 
L 2222 3500 
L 2222 3053 
L 1275 3053 
L 1275 0 
L 697 0 
L 697 3053 
L 147 3053 
L 147 3500 
L 697 3500 
L 697 3744 
Q 697 4328 969 4595 
Q 1241 4863 1831 4863 
L 2375 4863 
z
" id="DejaVuSans-66" transform="scale(0.015625)"/>
       <path d="M 1259 4147 
L 1259 2394 
L 2053 2394 
Q 2494 2394 2734 2622 
Q 2975 2850 2975 3272 
Q 2975 3691 2734 3919 
Q 2494 4147 2053 4147 
L 1259 4147 
z
M 628 4666 
L 2053 4666 
Q 2838 4666 3239 4311 
Q 3641 3956 3641 3272 
Q 3641 2581 3239 2228 
Q 2838 1875 2053 1875 
L 1259 1875 
L 1259 0 
L 628 0 
L 628 4666 
z
" id="DejaVuSans-50" transform="scale(0.015625)"/>
       <path d="M 2194 1759 
Q 1497 1759 1228 1600 
Q 959 1441 959 1056 
Q 959 750 1161 570 
Q 1363 391 1709 391 
Q 2188 391 2477 730 
Q 2766 1069 2766 1631 
L 2766 1759 
L 2194 1759 
z
M 3341 1997 
L 3341 0 
L 2766 0 
L 2766 531 
Q 2569 213 2275 61 
Q 1981 -91 1556 -91 
Q 1019 -91 701 211 
Q 384 513 384 1019 
Q 384 1609 779 1909 
Q 1175 2209 1959 2209 
L 2766 2209 
L 2766 2266 
Q 2766 2663 2505 2880 
Q 2244 3097 1772 3097 
Q 1472 3097 1187 3025 
Q 903 2953 641 2809 
L 641 3341 
Q 956 3463 1253 3523 
Q 1550 3584 1831 3584 
Q 2591 3584 2966 3190 
Q 3341 2797 3341 1997 
z
" id="DejaVuSans-61" transform="scale(0.015625)"/>
      </defs>
      <use xlink:href="#DejaVuSans-4f"/>
      <use x="78.710938" xlink:href="#DejaVuSans-66"/>
      <use x="113.916016" xlink:href="#DejaVuSans-66"/>
      <use x="149.121094" xlink:href="#DejaVuSans-20"/>
      <use x="180.908203" xlink:href="#DejaVuSans-50"/>
      <use x="237.585938" xlink:href="#DejaVuSans-65"/>
      <use x="299.109375" xlink:href="#DejaVuSans-61"/>
      <use x="360.388672" xlink:href="#DejaVuSans-6b"/>
     </g>
    </g>
    <g id="patch_163">
     <path d="M 151.11875 98.7875 
L 191.11875 98.7875 
L 191.11875 84.7875 
L 151.11875 84.7875 
z
" style="fill:#eddd46;"/>
    </g>
    <g id="text_60">
     <!-- Mid Peak -->
     <g transform="translate(207.11875 98.7875)scale(0.2 -0.2)">
      <defs>
       <path d="M 2906 2969 
L 2906 4863 
L 3481 4863 
L 3481 0 
L 2906 0 
L 2906 525 
Q 2725 213 2448 61 
Q 2172 -91 1784 -91 
Q 1150 -91 751 415 
Q 353 922 353 1747 
Q 353 2572 751 3078 
Q 1150 3584 1784 3584 
Q 2172 3584 2448 3432 
Q 2725 3281 2906 2969 
z
M 947 1747 
Q 947 1113 1208 752 
Q 1469 391 1925 391 
Q 2381 391 2643 752 
Q 2906 1113 2906 1747 
Q 2906 2381 2643 2742 
Q 2381 3103 1925 3103 
Q 1469 3103 1208 2742 
Q 947 2381 947 1747 
z
" id="DejaVuSans-64" transform="scale(0.015625)"/>
      </defs>
      <use xlink:href="#DejaVuSans-4d"/>
      <use x="86.279297" xlink:href="#DejaVuSans-69"/>
      <use x="114.0625" xlink:href="#DejaVuSans-64"/>
      <use x="177.539062" xlink:href="#DejaVuSans-20"/>
      <use x="209.326172" xlink:href="#DejaVuSans-50"/>
      <use x="266.003906" xlink:href="#DejaVuSans-65"/>
      <use x="327.527344" xlink:href="#DejaVuSans-61"/>
      <use x="388.806641" xlink:href="#DejaVuSans-6b"/>
     </g>
    </g>
    <g id="patch_164">
     <path d="M 151.11875 128.14375 
L 191.11875 128.14375 
L 191.11875 114.14375 
L 151.11875 114.14375 
z
" style="fill:#90cd97;"/>
    </g>
    <g id="text_61">
     <!-- On Peak -->
     <g transform="translate(207.11875 128.14375)scale(0.2 -0.2)">
      <use xlink:href="#DejaVuSans-4f"/>
      <use x="78.710938" xlink:href="#DejaVuSans-6e"/>
      <use x="142.089844" xlink:href="#DejaVuSans-20"/>
      <use x="173.876953" xlink:href="#DejaVuSans-50"/>
      <use x="230.554688" xlink:href="#DejaVuSans-65"/>
      <use x="292.078125" xlink:href="#DejaVuSans-61"/>
      <use x="353.357422" xlink:href="#DejaVuSans-6b"/>
     </g>
    </g>
   </g>
  </g>
 </g>
 <defs>
  <clipPath id="p992e1f037a">
   <rect height="326.16" width="669.6" x="133.11875" y="36.234375"/>
  </clipPath>
 </defs>
</svg>
